<?xml version="1.0" encoding="utf-8" standalone="no"?>
<!DOCTYPE svg PUBLIC "-//W3C//DTD SVG 1.1//EN"
  "http://www.w3.org/Graphics/SVG/1.1/DTD/svg11.dtd">
<svg xmlns:xlink="http://www.w3.org/1999/xlink" width="605.856875pt" height="358.27375pt" viewBox="0 0 605.856875 358.27375" xmlns="http://www.w3.org/2000/svg" version="1.1">
 <metadata>
  <rdf:RDF xmlns:dc="http://purl.org/dc/elements/1.1/" xmlns:cc="http://creativecommons.org/ns#" xmlns:rdf="http://www.w3.org/1999/02/22-rdf-syntax-ns#">
   <cc:Work>
    <dc:type rdf:resource="http://purl.org/dc/dcmitype/StillImage"/>
    <dc:date>2022-08-02T09:24:47.969934</dc:date>
    <dc:format>image/svg+xml</dc:format>
    <dc:creator>
     <cc:Agent>
      <dc:title>Matplotlib v3.5.1, https://matplotlib.org/</dc:title>
     </cc:Agent>
    </dc:creator>
   </cc:Work>
  </rdf:RDF>
 </metadata>
 <defs>
  <style type="text/css">*{stroke-linejoin: round; stroke-linecap: butt}</style>
 </defs>
 <g id="figure_1">
  <g id="patch_1">
   <path d="M 0 358.27375 
L 605.856875 358.27375 
L 605.856875 0 
L 0 0 
L 0 358.27375 
z
" style="fill: none"/>
  </g>
  <g id="axes_1">
   <g id="patch_2">
    <path d="M 40.656875 312.975 
L 598.656875 312.975 
L 598.656875 7.2 
L 40.656875 7.2 
L 40.656875 312.975 
z
" style="fill: none"/>
   </g>
   <g id="PathCollection_1">
    <path d="M 561.290804 47.776128 
C 565.294012 47.776128 569.133798 46.185636 571.964494 43.35494 
C 574.79519 40.524245 576.385681 36.684458 576.385681 32.68125 
C 576.385681 28.678042 574.79519 24.838255 571.964494 22.00756 
C 569.133798 19.176864 565.294012 17.586372 561.290804 17.586372 
C 557.287595 17.586372 553.447809 19.176864 550.617113 22.00756 
C 547.786418 24.838255 546.195926 28.678042 546.195926 32.68125 
C 546.195926 36.684458 547.786418 40.524245 550.617113 43.35494 
C 553.447809 46.185636 557.287595 47.776128 561.290804 47.776128 
z
" clip-path="url(#pd02bb57cd4)" style="fill: #d4d4d4; fill-opacity: 0.8; stroke: #ffffff; stroke-opacity: 0.8"/>
    <path d="M 561.290804 47.776128 
C 565.294012 47.776128 569.133798 46.185636 571.964494 43.35494 
C 574.79519 40.524245 576.385681 36.684458 576.385681 32.68125 
C 576.385681 28.678042 574.79519 24.838255 571.964494 22.00756 
C 569.133798 19.176864 565.294012 17.586372 561.290804 17.586372 
C 557.287595 17.586372 553.447809 19.176864 550.617113 22.00756 
C 547.786418 24.838255 546.195926 28.678042 546.195926 32.68125 
C 546.195926 36.684458 547.786418 40.524245 550.617113 43.35494 
C 553.447809 46.185636 557.287595 47.776128 561.290804 47.776128 
z
" clip-path="url(#pd02bb57cd4)" style="fill: #d4d4d4; fill-opacity: 0.8; stroke: #ffffff; stroke-opacity: 0.8"/>
    <path d="M 561.290804 47.776128 
C 565.294012 47.776128 569.133798 46.185636 571.964494 43.35494 
C 574.79519 40.524245 576.385681 36.684458 576.385681 32.68125 
C 576.385681 28.678042 574.79519 24.838255 571.964494 22.00756 
C 569.133798 19.176864 565.294012 17.586372 561.290804 17.586372 
C 557.287595 17.586372 553.447809 19.176864 550.617113 22.00756 
C 547.786418 24.838255 546.195926 28.678042 546.195926 32.68125 
C 546.195926 36.684458 547.786418 40.524245 550.617113 43.35494 
C 553.447809 46.185636 557.287595 47.776128 561.290804 47.776128 
z
" clip-path="url(#pd02bb57cd4)" style="fill: #d4d4d4; fill-opacity: 0.8; stroke: #ffffff; stroke-opacity: 0.8"/>
    <path d="M 125.353304 174.508622 
C 129.17783 174.508622 132.846228 172.989121 135.550576 170.284773 
C 138.254925 167.580425 139.774425 163.912026 139.774425 160.0875 
C 139.774425 156.262974 138.254925 152.594575 135.550576 149.890227 
C 132.846228 147.185879 129.17783 145.666378 125.353304 145.666378 
C 121.528777 145.666378 117.860379 147.185879 115.156031 149.890227 
C 112.451682 152.594575 110.932182 156.262974 110.932182 160.0875 
C 110.932182 163.912026 112.451682 167.580425 115.156031 170.284773 
C 117.860379 172.989121 121.528777 174.508622 125.353304 174.508622 
z
" clip-path="url(#pd02bb57cd4)" style="fill: #d4d4d4; fill-opacity: 0.8; stroke: #ffffff; stroke-opacity: 0.8"/>
    <path d="M 94.214911 253.165529 
C 97.78166 253.165529 101.202804 251.748445 103.724877 249.226372 
C 106.246949 246.7043 107.664034 243.283155 107.664034 239.716406 
C 107.664034 236.149657 106.246949 232.728513 103.724877 230.20644 
C 101.202804 227.684368 97.78166 226.267283 94.214911 226.267283 
C 90.648162 226.267283 87.227017 227.684368 84.704945 230.20644 
C 82.182872 232.728513 80.765788 236.149657 80.765788 239.716406 
C 80.765788 243.283155 82.182872 246.7043 84.704945 249.226372 
C 87.227017 251.748445 90.648162 253.165529 94.214911 253.165529 
z
" clip-path="url(#pd02bb57cd4)" style="fill: #d4d4d4; fill-opacity: 0.8; stroke: #ffffff; stroke-opacity: 0.8"/>
    <path d="M 94.214911 253.165529 
C 97.78166 253.165529 101.202804 251.748445 103.724877 249.226372 
C 106.246949 246.7043 107.664034 243.283155 107.664034 239.716406 
C 107.664034 236.149657 106.246949 232.728513 103.724877 230.20644 
C 101.202804 227.684368 97.78166 226.267283 94.214911 226.267283 
C 90.648162 226.267283 87.227017 227.684368 84.704945 230.20644 
C 82.182872 232.728513 80.765788 236.149657 80.765788 239.716406 
C 80.765788 243.283155 82.182872 246.7043 84.704945 249.226372 
C 87.227017 251.748445 90.648162 253.165529 94.214911 253.165529 
z
" clip-path="url(#pd02bb57cd4)" style="fill: #d4d4d4; fill-opacity: 0.8; stroke: #ffffff; stroke-opacity: 0.8"/>
    <path d="M 94.214911 253.165529 
C 97.78166 253.165529 101.202804 251.748445 103.724877 249.226372 
C 106.246949 246.7043 107.664034 243.283155 107.664034 239.716406 
C 107.664034 236.149657 106.246949 232.728513 103.724877 230.20644 
C 101.202804 227.684368 97.78166 226.267283 94.214911 226.267283 
C 90.648162 226.267283 87.227017 227.684368 84.704945 230.20644 
C 82.182872 232.728513 80.765788 236.149657 80.765788 239.716406 
C 80.765788 243.283155 82.182872 246.7043 84.704945 249.226372 
C 87.227017 251.748445 90.648162 253.165529 94.214911 253.165529 
z
" clip-path="url(#pd02bb57cd4)" style="fill: #d4d4d4; fill-opacity: 0.8; stroke: #ffffff; stroke-opacity: 0.8"/>
    <path d="M 63.076518 244.168003 
C 65.101808 244.168003 67.044421 243.363347 68.476518 241.93125 
C 69.908615 240.499153 70.713271 238.556541 70.713271 236.53125 
C 70.713271 234.505959 69.908615 232.563347 68.476518 231.13125 
C 67.044421 229.699153 65.101808 228.894497 63.076518 228.894497 
C 61.051227 228.894497 59.108615 229.699153 57.676518 231.13125 
C 56.244421 232.563347 55.439765 234.505959 55.439765 236.53125 
C 55.439765 238.556541 56.244421 240.499153 57.676518 241.93125 
C 59.108615 243.363347 61.051227 244.168003 63.076518 244.168003 
z
" clip-path="url(#pd02bb57cd4)" style="fill: #d4d4d4; fill-opacity: 0.8; stroke: #ffffff; stroke-opacity: 0.8"/>
    <path d="M 63.076518 244.168003 
C 65.101808 244.168003 67.044421 243.363347 68.476518 241.93125 
C 69.908615 240.499153 70.713271 238.556541 70.713271 236.53125 
C 70.713271 234.505959 69.908615 232.563347 68.476518 231.13125 
C 67.044421 229.699153 65.101808 228.894497 63.076518 228.894497 
C 61.051227 228.894497 59.108615 229.699153 57.676518 231.13125 
C 56.244421 232.563347 55.439765 234.505959 55.439765 236.53125 
C 55.439765 238.556541 56.244421 240.499153 57.676518 241.93125 
C 59.108615 243.363347 61.051227 244.168003 63.076518 244.168003 
z
" clip-path="url(#pd02bb57cd4)" style="fill: #d4d4d4; fill-opacity: 0.8; stroke: #ffffff; stroke-opacity: 0.8"/>
    <path d="M 63.076518 244.168003 
C 65.101808 244.168003 67.044421 243.363347 68.476518 241.93125 
C 69.908615 240.499153 70.713271 238.556541 70.713271 236.53125 
C 70.713271 234.505959 69.908615 232.563347 68.476518 231.13125 
C 67.044421 229.699153 65.101808 228.894497 63.076518 228.894497 
C 61.051227 228.894497 59.108615 229.699153 57.676518 231.13125 
C 56.244421 232.563347 55.439765 234.505959 55.439765 236.53125 
C 55.439765 238.556541 56.244421 240.499153 57.676518 241.93125 
C 59.108615 243.363347 61.051227 244.168003 63.076518 244.168003 
z
" clip-path="url(#pd02bb57cd4)" style="fill: #d4d4d4; fill-opacity: 0.8; stroke: #ffffff; stroke-opacity: 0.8"/>
    <path d="M 499.014018 40.002025 
C 500.95551 40.002025 502.817745 39.230662 504.190588 37.85782 
C 505.56343 36.484977 506.334793 34.622742 506.334793 32.68125 
C 506.334793 30.739758 505.56343 28.877523 504.190588 27.50468 
C 502.817745 26.131838 500.95551 25.360475 499.014018 25.360475 
C 497.072526 25.360475 495.21029 26.131838 493.837448 27.50468 
C 492.464606 28.877523 491.693243 30.739758 491.693243 32.68125 
C 491.693243 34.622742 492.464606 36.484977 493.837448 37.85782 
C 495.21029 39.230662 497.072526 40.002025 499.014018 40.002025 
z
" clip-path="url(#pd02bb57cd4)" style="fill: #d4d4d4; fill-opacity: 0.8; stroke: #ffffff; stroke-opacity: 0.8"/>
    <path d="M 499.014018 40.002025 
C 500.95551 40.002025 502.817745 39.230662 504.190588 37.85782 
C 505.56343 36.484977 506.334793 34.622742 506.334793 32.68125 
C 506.334793 30.739758 505.56343 28.877523 504.190588 27.50468 
C 502.817745 26.131838 500.95551 25.360475 499.014018 25.360475 
C 497.072526 25.360475 495.21029 26.131838 493.837448 27.50468 
C 492.464606 28.877523 491.693243 30.739758 491.693243 32.68125 
C 491.693243 34.622742 492.464606 36.484977 493.837448 37.85782 
C 495.21029 39.230662 497.072526 40.002025 499.014018 40.002025 
z
" clip-path="url(#pd02bb57cd4)" style="fill: #d4d4d4; fill-opacity: 0.8; stroke: #ffffff; stroke-opacity: 0.8"/>
    <path d="M 187.630089 141.61553 
C 189.488972 141.61553 191.27197 140.876988 192.586398 139.562559 
C 193.900827 138.248131 194.639369 136.465133 194.639369 134.60625 
C 194.639369 132.747367 193.900827 130.964369 192.586398 129.649941 
C 191.27197 128.335512 189.488972 127.59697 187.630089 127.59697 
C 185.771207 127.59697 183.988209 128.335512 182.67378 129.649941 
C 181.359352 130.964369 180.62081 132.747367 180.62081 134.60625 
C 180.62081 136.465133 181.359352 138.248131 182.67378 139.562559 
C 183.988209 140.876988 185.771207 141.61553 187.630089 141.61553 
z
" clip-path="url(#pd02bb57cd4)" style="fill: #d4d4d4; fill-opacity: 0.8; stroke: #ffffff; stroke-opacity: 0.8"/>
    <path d="M 187.630089 141.61553 
C 189.488972 141.61553 191.27197 140.876988 192.586398 139.562559 
C 193.900827 138.248131 194.639369 136.465133 194.639369 134.60625 
C 194.639369 132.747367 193.900827 130.964369 192.586398 129.649941 
C 191.27197 128.335512 189.488972 127.59697 187.630089 127.59697 
C 185.771207 127.59697 183.988209 128.335512 182.67378 129.649941 
C 181.359352 130.964369 180.62081 132.747367 180.62081 134.60625 
C 180.62081 136.465133 181.359352 138.248131 182.67378 139.562559 
C 183.988209 140.876988 185.771207 141.61553 187.630089 141.61553 
z
" clip-path="url(#pd02bb57cd4)" style="fill: #d4d4d4; fill-opacity: 0.8; stroke: #ffffff; stroke-opacity: 0.8"/>
    <path d="M 187.630089 141.61553 
C 189.488972 141.61553 191.27197 140.876988 192.586398 139.562559 
C 193.900827 138.248131 194.639369 136.465133 194.639369 134.60625 
C 194.639369 132.747367 193.900827 130.964369 192.586398 129.649941 
C 191.27197 128.335512 189.488972 127.59697 187.630089 127.59697 
C 185.771207 127.59697 183.988209 128.335512 182.67378 129.649941 
C 181.359352 130.964369 180.62081 132.747367 180.62081 134.60625 
C 180.62081 136.465133 181.359352 138.248131 182.67378 139.562559 
C 183.988209 140.876988 185.771207 141.61553 187.630089 141.61553 
z
" clip-path="url(#pd02bb57cd4)" style="fill: #d4d4d4; fill-opacity: 0.8; stroke: #ffffff; stroke-opacity: 0.8"/>
    <path d="M 187.630089 141.61553 
C 189.488972 141.61553 191.27197 140.876988 192.586398 139.562559 
C 193.900827 138.248131 194.639369 136.465133 194.639369 134.60625 
C 194.639369 132.747367 193.900827 130.964369 192.586398 129.649941 
C 191.27197 128.335512 189.488972 127.59697 187.630089 127.59697 
C 185.771207 127.59697 183.988209 128.335512 182.67378 129.649941 
C 181.359352 130.964369 180.62081 132.747367 180.62081 134.60625 
C 180.62081 136.465133 181.359352 138.248131 182.67378 139.562559 
C 183.988209 140.876988 185.771207 141.61553 187.630089 141.61553 
z
" clip-path="url(#pd02bb57cd4)" style="fill: #d4d4d4; fill-opacity: 0.8; stroke: #ffffff; stroke-opacity: 0.8"/>
    <path d="M 125.353304 174.508622 
C 129.17783 174.508622 132.846228 172.989121 135.550576 170.284773 
C 138.254925 167.580425 139.774425 163.912026 139.774425 160.0875 
C 139.774425 156.262974 138.254925 152.594575 135.550576 149.890227 
C 132.846228 147.185879 129.17783 145.666378 125.353304 145.666378 
C 121.528777 145.666378 117.860379 147.185879 115.156031 149.890227 
C 112.451682 152.594575 110.932182 156.262974 110.932182 160.0875 
C 110.932182 163.912026 112.451682 167.580425 115.156031 170.284773 
C 117.860379 172.989121 121.528777 174.508622 125.353304 174.508622 
z
" clip-path="url(#pd02bb57cd4)" style="fill: #1f5664; fill-opacity: 0.8; stroke: #ffffff; stroke-opacity: 0.8"/>
    <path d="M 94.214911 253.165529 
C 97.78166 253.165529 101.202804 251.748445 103.724877 249.226372 
C 106.246949 246.7043 107.664034 243.283155 107.664034 239.716406 
C 107.664034 236.149657 106.246949 232.728513 103.724877 230.20644 
C 101.202804 227.684368 97.78166 226.267283 94.214911 226.267283 
C 90.648162 226.267283 87.227017 227.684368 84.704945 230.20644 
C 82.182872 232.728513 80.765788 236.149657 80.765788 239.716406 
C 80.765788 243.283155 82.182872 246.7043 84.704945 249.226372 
C 87.227017 251.748445 90.648162 253.165529 94.214911 253.165529 
z
" clip-path="url(#pd02bb57cd4)" style="fill: #143d4d; fill-opacity: 0.8; stroke: #ffffff; stroke-opacity: 0.8"/>
    <path d="M 63.076518 244.168003 
C 65.101808 244.168003 67.044421 243.363347 68.476518 241.93125 
C 69.908615 240.499153 70.713271 238.556541 70.713271 236.53125 
C 70.713271 234.505959 69.908615 232.563347 68.476518 231.13125 
C 67.044421 229.699153 65.101808 228.894497 63.076518 228.894497 
C 61.051227 228.894497 59.108615 229.699153 57.676518 231.13125 
C 56.244421 232.563347 55.439765 234.505959 55.439765 236.53125 
C 55.439765 238.556541 56.244421 240.499153 57.676518 241.93125 
C 59.108615 243.363347 61.051227 244.168003 63.076518 244.168003 
z
" clip-path="url(#pd02bb57cd4)" style="fill: #000d22; fill-opacity: 0.8; stroke: #ffffff; stroke-opacity: 0.8"/>
    <path d="M 63.076518 244.168003 
C 65.101808 244.168003 67.044421 243.363347 68.476518 241.93125 
C 69.908615 240.499153 70.713271 238.556541 70.713271 236.53125 
C 70.713271 234.505959 69.908615 232.563347 68.476518 231.13125 
C 67.044421 229.699153 65.101808 228.894497 63.076518 228.894497 
C 61.051227 228.894497 59.108615 229.699153 57.676518 231.13125 
C 56.244421 232.563347 55.439765 234.505959 55.439765 236.53125 
C 55.439765 238.556541 56.244421 240.499153 57.676518 241.93125 
C 59.108615 243.363347 61.051227 244.168003 63.076518 244.168003 
z
" clip-path="url(#pd02bb57cd4)" style="fill: #000d22; fill-opacity: 0.8; stroke: #ffffff; stroke-opacity: 0.8"/>
    <path d="M 187.630089 141.61553 
C 189.488972 141.61553 191.27197 140.876988 192.586398 139.562559 
C 193.900827 138.248131 194.639369 136.465133 194.639369 134.60625 
C 194.639369 132.747367 193.900827 130.964369 192.586398 129.649941 
C 191.27197 128.335512 189.488972 127.59697 187.630089 127.59697 
C 185.771207 127.59697 183.988209 128.335512 182.67378 129.649941 
C 181.359352 130.964369 180.62081 132.747367 180.62081 134.60625 
C 180.62081 136.465133 181.359352 138.248131 182.67378 139.562559 
C 183.988209 140.876988 185.771207 141.61553 187.630089 141.61553 
z
" clip-path="url(#pd02bb57cd4)" style="fill: #368d95; fill-opacity: 0.8; stroke: #ffffff; stroke-opacity: 0.8"/>
   </g>
   <g id="matplotlib.axis_1">
    <g id="xtick_1">
     <g id="line2d_1">
      <defs>
       <path id="m62157b71da" d="M 0 0 
L 0 3.5 
" style="stroke: #000000; stroke-width: 0.8"/>
      </defs>
      <g>
       <use xlink:href="#m62157b71da" x="63.076518" y="312.975" style="stroke: #000000; stroke-width: 0.8"/>
      </g>
     </g>
     <g id="text_1">
      <!-- 1 -->
      <g transform="translate(58.622768 330.612812)scale(0.14 -0.14)">
       <defs>
        <path id="DejaVuSans-31" d="M 794 531 
L 1825 531 
L 1825 4091 
L 703 3866 
L 703 4441 
L 1819 4666 
L 2450 4666 
L 2450 531 
L 3481 531 
L 3481 0 
L 794 0 
L 794 531 
z
" transform="scale(0.015625)"/>
       </defs>
       <use xlink:href="#DejaVuSans-31"/>
      </g>
     </g>
    </g>
    <g id="xtick_2">
     <g id="line2d_2">
      <g>
       <use xlink:href="#m62157b71da" x="187.630089" y="312.975" style="stroke: #000000; stroke-width: 0.8"/>
      </g>
     </g>
     <g id="text_2">
      <!-- 2 -->
      <g transform="translate(183.176339 330.612812)scale(0.14 -0.14)">
       <defs>
        <path id="DejaVuSans-32" d="M 1228 531 
L 3431 531 
L 3431 0 
L 469 0 
L 469 531 
Q 828 903 1448 1529 
Q 2069 2156 2228 2338 
Q 2531 2678 2651 2914 
Q 2772 3150 2772 3378 
Q 2772 3750 2511 3984 
Q 2250 4219 1831 4219 
Q 1534 4219 1204 4116 
Q 875 4013 500 3803 
L 500 4441 
Q 881 4594 1212 4672 
Q 1544 4750 1819 4750 
Q 2544 4750 2975 4387 
Q 3406 4025 3406 3419 
Q 3406 3131 3298 2873 
Q 3191 2616 2906 2266 
Q 2828 2175 2409 1742 
Q 1991 1309 1228 531 
z
" transform="scale(0.015625)"/>
       </defs>
       <use xlink:href="#DejaVuSans-32"/>
      </g>
     </g>
    </g>
    <g id="xtick_3">
     <g id="line2d_3">
      <g>
       <use xlink:href="#m62157b71da" x="312.183661" y="312.975" style="stroke: #000000; stroke-width: 0.8"/>
      </g>
     </g>
     <g id="text_3">
      <!-- 3 -->
      <g transform="translate(307.729911 330.612812)scale(0.14 -0.14)">
       <defs>
        <path id="DejaVuSans-33" d="M 2597 2516 
Q 3050 2419 3304 2112 
Q 3559 1806 3559 1356 
Q 3559 666 3084 287 
Q 2609 -91 1734 -91 
Q 1441 -91 1130 -33 
Q 819 25 488 141 
L 488 750 
Q 750 597 1062 519 
Q 1375 441 1716 441 
Q 2309 441 2620 675 
Q 2931 909 2931 1356 
Q 2931 1769 2642 2001 
Q 2353 2234 1838 2234 
L 1294 2234 
L 1294 2753 
L 1863 2753 
Q 2328 2753 2575 2939 
Q 2822 3125 2822 3475 
Q 2822 3834 2567 4026 
Q 2313 4219 1838 4219 
Q 1578 4219 1281 4162 
Q 984 4106 628 3988 
L 628 4550 
Q 988 4650 1302 4700 
Q 1616 4750 1894 4750 
Q 2613 4750 3031 4423 
Q 3450 4097 3450 3541 
Q 3450 3153 3228 2886 
Q 3006 2619 2597 2516 
z
" transform="scale(0.015625)"/>
       </defs>
       <use xlink:href="#DejaVuSans-33"/>
      </g>
     </g>
    </g>
    <g id="xtick_4">
     <g id="line2d_4">
      <g>
       <use xlink:href="#m62157b71da" x="436.737232" y="312.975" style="stroke: #000000; stroke-width: 0.8"/>
      </g>
     </g>
     <g id="text_4">
      <!-- 4 -->
      <g transform="translate(432.283482 330.612812)scale(0.14 -0.14)">
       <defs>
        <path id="DejaVuSans-34" d="M 2419 4116 
L 825 1625 
L 2419 1625 
L 2419 4116 
z
M 2253 4666 
L 3047 4666 
L 3047 1625 
L 3713 1625 
L 3713 1100 
L 3047 1100 
L 3047 0 
L 2419 0 
L 2419 1100 
L 313 1100 
L 313 1709 
L 2253 4666 
z
" transform="scale(0.015625)"/>
       </defs>
       <use xlink:href="#DejaVuSans-34"/>
      </g>
     </g>
    </g>
    <g id="xtick_5">
     <g id="line2d_5">
      <g>
       <use xlink:href="#m62157b71da" x="561.290804" y="312.975" style="stroke: #000000; stroke-width: 0.8"/>
      </g>
     </g>
     <g id="text_5">
      <!-- 5 -->
      <g transform="translate(556.837054 330.612812)scale(0.14 -0.14)">
       <defs>
        <path id="DejaVuSans-35" d="M 691 4666 
L 3169 4666 
L 3169 4134 
L 1269 4134 
L 1269 2991 
Q 1406 3038 1543 3061 
Q 1681 3084 1819 3084 
Q 2600 3084 3056 2656 
Q 3513 2228 3513 1497 
Q 3513 744 3044 326 
Q 2575 -91 1722 -91 
Q 1428 -91 1123 -41 
Q 819 9 494 109 
L 494 744 
Q 775 591 1075 516 
Q 1375 441 1709 441 
Q 2250 441 2565 725 
Q 2881 1009 2881 1497 
Q 2881 1984 2565 2268 
Q 2250 2553 1709 2553 
Q 1456 2553 1204 2497 
Q 953 2441 691 2322 
L 691 4666 
z
" transform="scale(0.015625)"/>
       </defs>
       <use xlink:href="#DejaVuSans-35"/>
      </g>
     </g>
    </g>
    <g id="text_6">
     <!-- Status Parameter: Technology -->
     <g transform="translate(215.0375 348.162187)scale(0.14 -0.14)">
      <defs>
       <path id="DejaVuSans-53" d="M 3425 4513 
L 3425 3897 
Q 3066 4069 2747 4153 
Q 2428 4238 2131 4238 
Q 1616 4238 1336 4038 
Q 1056 3838 1056 3469 
Q 1056 3159 1242 3001 
Q 1428 2844 1947 2747 
L 2328 2669 
Q 3034 2534 3370 2195 
Q 3706 1856 3706 1288 
Q 3706 609 3251 259 
Q 2797 -91 1919 -91 
Q 1588 -91 1214 -16 
Q 841 59 441 206 
L 441 856 
Q 825 641 1194 531 
Q 1563 422 1919 422 
Q 2459 422 2753 634 
Q 3047 847 3047 1241 
Q 3047 1584 2836 1778 
Q 2625 1972 2144 2069 
L 1759 2144 
Q 1053 2284 737 2584 
Q 422 2884 422 3419 
Q 422 4038 858 4394 
Q 1294 4750 2059 4750 
Q 2388 4750 2728 4690 
Q 3069 4631 3425 4513 
z
" transform="scale(0.015625)"/>
       <path id="DejaVuSans-74" d="M 1172 4494 
L 1172 3500 
L 2356 3500 
L 2356 3053 
L 1172 3053 
L 1172 1153 
Q 1172 725 1289 603 
Q 1406 481 1766 481 
L 2356 481 
L 2356 0 
L 1766 0 
Q 1100 0 847 248 
Q 594 497 594 1153 
L 594 3053 
L 172 3053 
L 172 3500 
L 594 3500 
L 594 4494 
L 1172 4494 
z
" transform="scale(0.015625)"/>
       <path id="DejaVuSans-61" d="M 2194 1759 
Q 1497 1759 1228 1600 
Q 959 1441 959 1056 
Q 959 750 1161 570 
Q 1363 391 1709 391 
Q 2188 391 2477 730 
Q 2766 1069 2766 1631 
L 2766 1759 
L 2194 1759 
z
M 3341 1997 
L 3341 0 
L 2766 0 
L 2766 531 
Q 2569 213 2275 61 
Q 1981 -91 1556 -91 
Q 1019 -91 701 211 
Q 384 513 384 1019 
Q 384 1609 779 1909 
Q 1175 2209 1959 2209 
L 2766 2209 
L 2766 2266 
Q 2766 2663 2505 2880 
Q 2244 3097 1772 3097 
Q 1472 3097 1187 3025 
Q 903 2953 641 2809 
L 641 3341 
Q 956 3463 1253 3523 
Q 1550 3584 1831 3584 
Q 2591 3584 2966 3190 
Q 3341 2797 3341 1997 
z
" transform="scale(0.015625)"/>
       <path id="DejaVuSans-75" d="M 544 1381 
L 544 3500 
L 1119 3500 
L 1119 1403 
Q 1119 906 1312 657 
Q 1506 409 1894 409 
Q 2359 409 2629 706 
Q 2900 1003 2900 1516 
L 2900 3500 
L 3475 3500 
L 3475 0 
L 2900 0 
L 2900 538 
Q 2691 219 2414 64 
Q 2138 -91 1772 -91 
Q 1169 -91 856 284 
Q 544 659 544 1381 
z
M 1991 3584 
L 1991 3584 
z
" transform="scale(0.015625)"/>
       <path id="DejaVuSans-73" d="M 2834 3397 
L 2834 2853 
Q 2591 2978 2328 3040 
Q 2066 3103 1784 3103 
Q 1356 3103 1142 2972 
Q 928 2841 928 2578 
Q 928 2378 1081 2264 
Q 1234 2150 1697 2047 
L 1894 2003 
Q 2506 1872 2764 1633 
Q 3022 1394 3022 966 
Q 3022 478 2636 193 
Q 2250 -91 1575 -91 
Q 1294 -91 989 -36 
Q 684 19 347 128 
L 347 722 
Q 666 556 975 473 
Q 1284 391 1588 391 
Q 1994 391 2212 530 
Q 2431 669 2431 922 
Q 2431 1156 2273 1281 
Q 2116 1406 1581 1522 
L 1381 1569 
Q 847 1681 609 1914 
Q 372 2147 372 2553 
Q 372 3047 722 3315 
Q 1072 3584 1716 3584 
Q 2034 3584 2315 3537 
Q 2597 3491 2834 3397 
z
" transform="scale(0.015625)"/>
       <path id="DejaVuSans-20" transform="scale(0.015625)"/>
       <path id="DejaVuSans-50" d="M 1259 4147 
L 1259 2394 
L 2053 2394 
Q 2494 2394 2734 2622 
Q 2975 2850 2975 3272 
Q 2975 3691 2734 3919 
Q 2494 4147 2053 4147 
L 1259 4147 
z
M 628 4666 
L 2053 4666 
Q 2838 4666 3239 4311 
Q 3641 3956 3641 3272 
Q 3641 2581 3239 2228 
Q 2838 1875 2053 1875 
L 1259 1875 
L 1259 0 
L 628 0 
L 628 4666 
z
" transform="scale(0.015625)"/>
       <path id="DejaVuSans-72" d="M 2631 2963 
Q 2534 3019 2420 3045 
Q 2306 3072 2169 3072 
Q 1681 3072 1420 2755 
Q 1159 2438 1159 1844 
L 1159 0 
L 581 0 
L 581 3500 
L 1159 3500 
L 1159 2956 
Q 1341 3275 1631 3429 
Q 1922 3584 2338 3584 
Q 2397 3584 2469 3576 
Q 2541 3569 2628 3553 
L 2631 2963 
z
" transform="scale(0.015625)"/>
       <path id="DejaVuSans-6d" d="M 3328 2828 
Q 3544 3216 3844 3400 
Q 4144 3584 4550 3584 
Q 5097 3584 5394 3201 
Q 5691 2819 5691 2113 
L 5691 0 
L 5113 0 
L 5113 2094 
Q 5113 2597 4934 2840 
Q 4756 3084 4391 3084 
Q 3944 3084 3684 2787 
Q 3425 2491 3425 1978 
L 3425 0 
L 2847 0 
L 2847 2094 
Q 2847 2600 2669 2842 
Q 2491 3084 2119 3084 
Q 1678 3084 1418 2786 
Q 1159 2488 1159 1978 
L 1159 0 
L 581 0 
L 581 3500 
L 1159 3500 
L 1159 2956 
Q 1356 3278 1631 3431 
Q 1906 3584 2284 3584 
Q 2666 3584 2933 3390 
Q 3200 3197 3328 2828 
z
" transform="scale(0.015625)"/>
       <path id="DejaVuSans-65" d="M 3597 1894 
L 3597 1613 
L 953 1613 
Q 991 1019 1311 708 
Q 1631 397 2203 397 
Q 2534 397 2845 478 
Q 3156 559 3463 722 
L 3463 178 
Q 3153 47 2828 -22 
Q 2503 -91 2169 -91 
Q 1331 -91 842 396 
Q 353 884 353 1716 
Q 353 2575 817 3079 
Q 1281 3584 2069 3584 
Q 2775 3584 3186 3129 
Q 3597 2675 3597 1894 
z
M 3022 2063 
Q 3016 2534 2758 2815 
Q 2500 3097 2075 3097 
Q 1594 3097 1305 2825 
Q 1016 2553 972 2059 
L 3022 2063 
z
" transform="scale(0.015625)"/>
       <path id="DejaVuSans-3a" d="M 750 794 
L 1409 794 
L 1409 0 
L 750 0 
L 750 794 
z
M 750 3309 
L 1409 3309 
L 1409 2516 
L 750 2516 
L 750 3309 
z
" transform="scale(0.015625)"/>
       <path id="DejaVuSans-54" d="M -19 4666 
L 3928 4666 
L 3928 4134 
L 2272 4134 
L 2272 0 
L 1638 0 
L 1638 4134 
L -19 4134 
L -19 4666 
z
" transform="scale(0.015625)"/>
       <path id="DejaVuSans-63" d="M 3122 3366 
L 3122 2828 
Q 2878 2963 2633 3030 
Q 2388 3097 2138 3097 
Q 1578 3097 1268 2742 
Q 959 2388 959 1747 
Q 959 1106 1268 751 
Q 1578 397 2138 397 
Q 2388 397 2633 464 
Q 2878 531 3122 666 
L 3122 134 
Q 2881 22 2623 -34 
Q 2366 -91 2075 -91 
Q 1284 -91 818 406 
Q 353 903 353 1747 
Q 353 2603 823 3093 
Q 1294 3584 2113 3584 
Q 2378 3584 2631 3529 
Q 2884 3475 3122 3366 
z
" transform="scale(0.015625)"/>
       <path id="DejaVuSans-68" d="M 3513 2113 
L 3513 0 
L 2938 0 
L 2938 2094 
Q 2938 2591 2744 2837 
Q 2550 3084 2163 3084 
Q 1697 3084 1428 2787 
Q 1159 2491 1159 1978 
L 1159 0 
L 581 0 
L 581 4863 
L 1159 4863 
L 1159 2956 
Q 1366 3272 1645 3428 
Q 1925 3584 2291 3584 
Q 2894 3584 3203 3211 
Q 3513 2838 3513 2113 
z
" transform="scale(0.015625)"/>
       <path id="DejaVuSans-6e" d="M 3513 2113 
L 3513 0 
L 2938 0 
L 2938 2094 
Q 2938 2591 2744 2837 
Q 2550 3084 2163 3084 
Q 1697 3084 1428 2787 
Q 1159 2491 1159 1978 
L 1159 0 
L 581 0 
L 581 3500 
L 1159 3500 
L 1159 2956 
Q 1366 3272 1645 3428 
Q 1925 3584 2291 3584 
Q 2894 3584 3203 3211 
Q 3513 2838 3513 2113 
z
" transform="scale(0.015625)"/>
       <path id="DejaVuSans-6f" d="M 1959 3097 
Q 1497 3097 1228 2736 
Q 959 2375 959 1747 
Q 959 1119 1226 758 
Q 1494 397 1959 397 
Q 2419 397 2687 759 
Q 2956 1122 2956 1747 
Q 2956 2369 2687 2733 
Q 2419 3097 1959 3097 
z
M 1959 3584 
Q 2709 3584 3137 3096 
Q 3566 2609 3566 1747 
Q 3566 888 3137 398 
Q 2709 -91 1959 -91 
Q 1206 -91 779 398 
Q 353 888 353 1747 
Q 353 2609 779 3096 
Q 1206 3584 1959 3584 
z
" transform="scale(0.015625)"/>
       <path id="DejaVuSans-6c" d="M 603 4863 
L 1178 4863 
L 1178 0 
L 603 0 
L 603 4863 
z
" transform="scale(0.015625)"/>
       <path id="DejaVuSans-67" d="M 2906 1791 
Q 2906 2416 2648 2759 
Q 2391 3103 1925 3103 
Q 1463 3103 1205 2759 
Q 947 2416 947 1791 
Q 947 1169 1205 825 
Q 1463 481 1925 481 
Q 2391 481 2648 825 
Q 2906 1169 2906 1791 
z
M 3481 434 
Q 3481 -459 3084 -895 
Q 2688 -1331 1869 -1331 
Q 1566 -1331 1297 -1286 
Q 1028 -1241 775 -1147 
L 775 -588 
Q 1028 -725 1275 -790 
Q 1522 -856 1778 -856 
Q 2344 -856 2625 -561 
Q 2906 -266 2906 331 
L 2906 616 
Q 2728 306 2450 153 
Q 2172 0 1784 0 
Q 1141 0 747 490 
Q 353 981 353 1791 
Q 353 2603 747 3093 
Q 1141 3584 1784 3584 
Q 2172 3584 2450 3431 
Q 2728 3278 2906 2969 
L 2906 3500 
L 3481 3500 
L 3481 434 
z
" transform="scale(0.015625)"/>
       <path id="DejaVuSans-79" d="M 2059 -325 
Q 1816 -950 1584 -1140 
Q 1353 -1331 966 -1331 
L 506 -1331 
L 506 -850 
L 844 -850 
Q 1081 -850 1212 -737 
Q 1344 -625 1503 -206 
L 1606 56 
L 191 3500 
L 800 3500 
L 1894 763 
L 2988 3500 
L 3597 3500 
L 2059 -325 
z
" transform="scale(0.015625)"/>
      </defs>
      <use xlink:href="#DejaVuSans-53"/>
      <use xlink:href="#DejaVuSans-74" x="63.476562"/>
      <use xlink:href="#DejaVuSans-61" x="102.685547"/>
      <use xlink:href="#DejaVuSans-74" x="163.964844"/>
      <use xlink:href="#DejaVuSans-75" x="203.173828"/>
      <use xlink:href="#DejaVuSans-73" x="266.552734"/>
      <use xlink:href="#DejaVuSans-20" x="318.652344"/>
      <use xlink:href="#DejaVuSans-50" x="350.439453"/>
      <use xlink:href="#DejaVuSans-61" x="406.242188"/>
      <use xlink:href="#DejaVuSans-72" x="467.521484"/>
      <use xlink:href="#DejaVuSans-61" x="508.634766"/>
      <use xlink:href="#DejaVuSans-6d" x="569.914062"/>
      <use xlink:href="#DejaVuSans-65" x="667.326172"/>
      <use xlink:href="#DejaVuSans-74" x="728.849609"/>
      <use xlink:href="#DejaVuSans-65" x="768.058594"/>
      <use xlink:href="#DejaVuSans-72" x="829.582031"/>
      <use xlink:href="#DejaVuSans-3a" x="868.945312"/>
      <use xlink:href="#DejaVuSans-20" x="902.636719"/>
      <use xlink:href="#DejaVuSans-54" x="934.423828"/>
      <use xlink:href="#DejaVuSans-65" x="978.507812"/>
      <use xlink:href="#DejaVuSans-63" x="1040.03125"/>
      <use xlink:href="#DejaVuSans-68" x="1095.011719"/>
      <use xlink:href="#DejaVuSans-6e" x="1158.390625"/>
      <use xlink:href="#DejaVuSans-6f" x="1221.769531"/>
      <use xlink:href="#DejaVuSans-6c" x="1282.951172"/>
      <use xlink:href="#DejaVuSans-6f" x="1310.734375"/>
      <use xlink:href="#DejaVuSans-67" x="1371.916016"/>
      <use xlink:href="#DejaVuSans-79" x="1435.392578"/>
     </g>
    </g>
   </g>
   <g id="matplotlib.axis_2">
    <g id="ytick_1">
     <g id="line2d_6">
      <defs>
       <path id="m5d68ef6f2c" d="M 0 0 
L -3.5 0 
" style="stroke: #000000; stroke-width: 0.8"/>
      </defs>
      <g>
       <use xlink:href="#m5d68ef6f2c" x="40.656875" y="287.49375" style="stroke: #000000; stroke-width: 0.8"/>
      </g>
     </g>
     <g id="text_7">
      <!-- 1 -->
      <g transform="translate(24.749375 292.812656)scale(0.14 -0.14)">
       <use xlink:href="#DejaVuSans-31"/>
      </g>
     </g>
    </g>
    <g id="ytick_2">
     <g id="line2d_7">
      <g>
       <use xlink:href="#m5d68ef6f2c" x="40.656875" y="223.790625" style="stroke: #000000; stroke-width: 0.8"/>
      </g>
     </g>
     <g id="text_8">
      <!-- 2 -->
      <g transform="translate(24.749375 229.109531)scale(0.14 -0.14)">
       <use xlink:href="#DejaVuSans-32"/>
      </g>
     </g>
    </g>
    <g id="ytick_3">
     <g id="line2d_8">
      <g>
       <use xlink:href="#m5d68ef6f2c" x="40.656875" y="160.0875" style="stroke: #000000; stroke-width: 0.8"/>
      </g>
     </g>
     <g id="text_9">
      <!-- 3 -->
      <g transform="translate(24.749375 165.406406)scale(0.14 -0.14)">
       <use xlink:href="#DejaVuSans-33"/>
      </g>
     </g>
    </g>
    <g id="ytick_4">
     <g id="line2d_9">
      <g>
       <use xlink:href="#m5d68ef6f2c" x="40.656875" y="96.384375" style="stroke: #000000; stroke-width: 0.8"/>
      </g>
     </g>
     <g id="text_10">
      <!-- 4 -->
      <g transform="translate(24.749375 101.703281)scale(0.14 -0.14)">
       <use xlink:href="#DejaVuSans-34"/>
      </g>
     </g>
    </g>
    <g id="ytick_5">
     <g id="line2d_10">
      <g>
       <use xlink:href="#m5d68ef6f2c" x="40.656875" y="32.68125" style="stroke: #000000; stroke-width: 0.8"/>
      </g>
     </g>
     <g id="text_11">
      <!-- 5 -->
      <g transform="translate(24.749375 38.000156)scale(0.14 -0.14)">
       <use xlink:href="#DejaVuSans-35"/>
      </g>
     </g>
    </g>
    <g id="text_12">
     <!-- Status Parameter: Expertise -->
     <g transform="translate(17.837813 258.3325)rotate(-90)scale(0.14 -0.14)">
      <defs>
       <path id="DejaVuSans-45" d="M 628 4666 
L 3578 4666 
L 3578 4134 
L 1259 4134 
L 1259 2753 
L 3481 2753 
L 3481 2222 
L 1259 2222 
L 1259 531 
L 3634 531 
L 3634 0 
L 628 0 
L 628 4666 
z
" transform="scale(0.015625)"/>
       <path id="DejaVuSans-78" d="M 3513 3500 
L 2247 1797 
L 3578 0 
L 2900 0 
L 1881 1375 
L 863 0 
L 184 0 
L 1544 1831 
L 300 3500 
L 978 3500 
L 1906 2253 
L 2834 3500 
L 3513 3500 
z
" transform="scale(0.015625)"/>
       <path id="DejaVuSans-70" d="M 1159 525 
L 1159 -1331 
L 581 -1331 
L 581 3500 
L 1159 3500 
L 1159 2969 
Q 1341 3281 1617 3432 
Q 1894 3584 2278 3584 
Q 2916 3584 3314 3078 
Q 3713 2572 3713 1747 
Q 3713 922 3314 415 
Q 2916 -91 2278 -91 
Q 1894 -91 1617 61 
Q 1341 213 1159 525 
z
M 3116 1747 
Q 3116 2381 2855 2742 
Q 2594 3103 2138 3103 
Q 1681 3103 1420 2742 
Q 1159 2381 1159 1747 
Q 1159 1113 1420 752 
Q 1681 391 2138 391 
Q 2594 391 2855 752 
Q 3116 1113 3116 1747 
z
" transform="scale(0.015625)"/>
       <path id="DejaVuSans-69" d="M 603 3500 
L 1178 3500 
L 1178 0 
L 603 0 
L 603 3500 
z
M 603 4863 
L 1178 4863 
L 1178 4134 
L 603 4134 
L 603 4863 
z
" transform="scale(0.015625)"/>
      </defs>
      <use xlink:href="#DejaVuSans-53"/>
      <use xlink:href="#DejaVuSans-74" x="63.476562"/>
      <use xlink:href="#DejaVuSans-61" x="102.685547"/>
      <use xlink:href="#DejaVuSans-74" x="163.964844"/>
      <use xlink:href="#DejaVuSans-75" x="203.173828"/>
      <use xlink:href="#DejaVuSans-73" x="266.552734"/>
      <use xlink:href="#DejaVuSans-20" x="318.652344"/>
      <use xlink:href="#DejaVuSans-50" x="350.439453"/>
      <use xlink:href="#DejaVuSans-61" x="406.242188"/>
      <use xlink:href="#DejaVuSans-72" x="467.521484"/>
      <use xlink:href="#DejaVuSans-61" x="508.634766"/>
      <use xlink:href="#DejaVuSans-6d" x="569.914062"/>
      <use xlink:href="#DejaVuSans-65" x="667.326172"/>
      <use xlink:href="#DejaVuSans-74" x="728.849609"/>
      <use xlink:href="#DejaVuSans-65" x="768.058594"/>
      <use xlink:href="#DejaVuSans-72" x="829.582031"/>
      <use xlink:href="#DejaVuSans-3a" x="868.945312"/>
      <use xlink:href="#DejaVuSans-20" x="902.636719"/>
      <use xlink:href="#DejaVuSans-45" x="934.423828"/>
      <use xlink:href="#DejaVuSans-78" x="997.607422"/>
      <use xlink:href="#DejaVuSans-70" x="1056.787109"/>
      <use xlink:href="#DejaVuSans-65" x="1120.263672"/>
      <use xlink:href="#DejaVuSans-72" x="1181.787109"/>
      <use xlink:href="#DejaVuSans-74" x="1222.900391"/>
      <use xlink:href="#DejaVuSans-69" x="1262.109375"/>
      <use xlink:href="#DejaVuSans-73" x="1289.892578"/>
      <use xlink:href="#DejaVuSans-65" x="1341.992188"/>
     </g>
    </g>
   </g>
   <g id="patch_3">
    <path d="M 40.656875 312.975 
L 40.656875 7.2 
" style="fill: none; stroke: #000000; stroke-width: 0.8; stroke-linejoin: miter; stroke-linecap: square"/>
   </g>
   <g id="patch_4">
    <path d="M 40.656875 312.975 
L 598.656875 312.975 
" style="fill: none; stroke: #000000; stroke-width: 0.8; stroke-linejoin: miter; stroke-linecap: square"/>
   </g>
  </g>
 </g>
 <defs>
  <clipPath id="pd02bb57cd4">
   <rect x="40.656875" y="7.2" width="558" height="305.775"/>
  </clipPath>
 </defs>
</svg>
