<?xml version="1.0" encoding="utf-8" standalone="no"?>
<!DOCTYPE svg PUBLIC "-//W3C//DTD SVG 1.1//EN"
  "http://www.w3.org/Graphics/SVG/1.1/DTD/svg11.dtd">
<svg xmlns:xlink="http://www.w3.org/1999/xlink" width="702.89pt" height="362.145pt" viewBox="0 0 702.89 362.145" xmlns="http://www.w3.org/2000/svg" version="1.1">
 <metadata>
  <rdf:RDF xmlns:dc="http://purl.org/dc/elements/1.1/" xmlns:cc="http://creativecommons.org/ns#" xmlns:rdf="http://www.w3.org/1999/02/22-rdf-syntax-ns#">
   <cc:Work>
    <dc:type rdf:resource="http://purl.org/dc/dcmitype/StillImage"/>
    <dc:date>2022-08-02T09:25:42.428173</dc:date>
    <dc:format>image/svg+xml</dc:format>
    <dc:creator>
     <cc:Agent>
      <dc:title>Matplotlib v3.5.1, https://matplotlib.org/</dc:title>
     </cc:Agent>
    </dc:creator>
   </cc:Work>
  </rdf:RDF>
 </metadata>
 <defs>
  <style type="text/css">*{stroke-linejoin: round; stroke-linecap: butt}</style>
 </defs>
 <g id="figure_1">
  <g id="patch_1">
   <path d="M 0 362.145 
L 702.89 362.145 
L 702.89 0 
L 0 0 
L 0 362.145 
z
" style="fill: none"/>
  </g>
  <g id="axes_1">
   <g id="patch_2">
    <path d="M 137.69 312.975 
L 695.69 312.975 
L 695.69 7.2 
L 137.69 7.2 
L 137.69 312.975 
z
" style="fill: none"/>
   </g>
   <g id="line2d_1">
    <path d="M 279.011149 312.975 
L 279.011149 7.2 
" clip-path="url(#p9577237513)" style="fill: none; stroke-dasharray: 5.55,2.4; stroke-dashoffset: 0; stroke: #000000; stroke-opacity: 0.5; stroke-width: 1.5"/>
   </g>
   <g id="patch_3">
    <path d="M 147.888433 297.68625 
L 264.441958 297.68625 
L 264.441958 267.10875 
L 147.888433 267.10875 
z
" clip-path="url(#p9577237513)" style="fill: #ffffff"/>
   </g>
   <g id="patch_4">
    <path d="M 147.888433 236.53125 
L 147.888433 236.53125 
L 147.888433 205.95375 
L 147.888433 205.95375 
z
" clip-path="url(#p9577237513)" style="fill: #ffffff"/>
   </g>
   <g id="patch_5">
    <path d="M 147.888433 175.37625 
L 213.449791 175.37625 
L 213.449791 144.79875 
L 147.888433 144.79875 
z
" clip-path="url(#p9577237513)" style="fill: #ffffff"/>
   </g>
   <g id="patch_6">
    <path d="M 147.888433 114.22125 
L 235.303577 114.22125 
L 235.303577 83.64375 
L 147.888433 83.64375 
z
" clip-path="url(#p9577237513)" style="fill: #ffffff"/>
   </g>
   <g id="patch_7">
    <path d="M 147.888433 53.06625 
L 184.31141 53.06625 
L 184.31141 22.48875 
L 147.888433 22.48875 
z
" clip-path="url(#p9577237513)" style="fill: #ffffff"/>
   </g>
   <g id="patch_8">
    <path d="M 147.888433 297.68625 
L 147.888433 297.68625 
L 147.888433 267.10875 
L 147.888433 267.10875 
z
" clip-path="url(#p9577237513)" style="fill: #368d95"/>
   </g>
   <g id="patch_9">
    <path d="M 147.888433 236.53125 
L 220.734386 236.53125 
L 220.734386 205.95375 
L 147.888433 205.95375 
z
" clip-path="url(#p9577237513)" style="fill: #368d95"/>
   </g>
   <g id="patch_10">
    <path d="M 213.449791 175.37625 
L 242.588172 175.37625 
L 242.588172 144.79875 
L 213.449791 144.79875 
z
" clip-path="url(#p9577237513)" style="fill: #368d95"/>
   </g>
   <g id="patch_11">
    <path d="M 235.303577 114.22125 
L 264.441958 114.22125 
L 264.441958 83.64375 
L 235.303577 83.64375 
z
" clip-path="url(#p9577237513)" style="fill: #368d95"/>
   </g>
   <g id="patch_12">
    <path d="M 184.31141 53.06625 
L 228.018982 53.06625 
L 228.018982 22.48875 
L 184.31141 22.48875 
z
" clip-path="url(#p9577237513)" style="fill: #368d95"/>
   </g>
   <g id="patch_13">
    <path d="M 147.888433 297.68625 
L 147.888433 297.68625 
L 147.888433 267.10875 
L 147.888433 267.10875 
z
" clip-path="url(#p9577237513)" style="fill: #95babf"/>
   </g>
   <g id="patch_14">
    <path d="M 220.734386 236.53125 
L 249.872768 236.53125 
L 249.872768 205.95375 
L 220.734386 205.95375 
z
" clip-path="url(#p9577237513)" style="fill: #95babf"/>
   </g>
   <g id="patch_15">
    <path d="M 242.588172 175.37625 
L 257.157363 175.37625 
L 257.157363 144.79875 
L 242.588172 144.79875 
z
" clip-path="url(#p9577237513)" style="fill: #95babf"/>
   </g>
   <g id="patch_16">
    <path d="M 147.888433 114.22125 
L 147.888433 114.22125 
L 147.888433 83.64375 
L 147.888433 83.64375 
z
" clip-path="url(#p9577237513)" style="fill: #95babf"/>
   </g>
   <g id="patch_17">
    <path d="M 228.018982 53.06625 
L 242.588172 53.06625 
L 242.588172 22.48875 
L 228.018982 22.48875 
z
" clip-path="url(#p9577237513)" style="fill: #95babf"/>
   </g>
   <g id="patch_18">
    <path d="M 264.441958 297.68625 
L 293.580339 297.68625 
L 293.580339 267.10875 
L 264.441958 267.10875 
z
" clip-path="url(#p9577237513)" style="fill: #d4d4d4"/>
   </g>
   <g id="patch_19">
    <path d="M 249.872768 236.53125 
L 308.14953 236.53125 
L 308.14953 205.95375 
L 249.872768 205.95375 
z
" clip-path="url(#p9577237513)" style="fill: #d4d4d4"/>
   </g>
   <g id="patch_20">
    <path d="M 257.157363 175.37625 
L 300.864935 175.37625 
L 300.864935 144.79875 
L 257.157363 144.79875 
z
" clip-path="url(#p9577237513)" style="fill: #d4d4d4"/>
   </g>
   <g id="patch_21">
    <path d="M 264.441958 114.22125 
L 293.580339 114.22125 
L 293.580339 83.64375 
L 264.441958 83.64375 
z
" clip-path="url(#p9577237513)" style="fill: #d4d4d4"/>
   </g>
   <g id="patch_22">
    <path d="M 242.588172 53.06625 
L 315.434125 53.06625 
L 315.434125 22.48875 
L 242.588172 22.48875 
z
" clip-path="url(#p9577237513)" style="fill: #d4d4d4"/>
   </g>
   <g id="patch_23">
    <path d="M 293.580339 297.68625 
L 308.14953 297.68625 
L 308.14953 267.10875 
L 293.580339 267.10875 
z
" clip-path="url(#p9577237513)" style="fill: #b6c8aa"/>
   </g>
   <g id="patch_24">
    <path d="M 308.14953 236.53125 
L 351.857102 236.53125 
L 351.857102 205.95375 
L 308.14953 205.95375 
z
" clip-path="url(#p9577237513)" style="fill: #b6c8aa"/>
   </g>
   <g id="patch_25">
    <path d="M 300.864935 175.37625 
L 315.434125 175.37625 
L 315.434125 144.79875 
L 300.864935 144.79875 
z
" clip-path="url(#p9577237513)" style="fill: #b6c8aa"/>
   </g>
   <g id="patch_26">
    <path d="M 293.580339 114.22125 
L 322.718721 114.22125 
L 322.718721 83.64375 
L 293.580339 83.64375 
z
" clip-path="url(#p9577237513)" style="fill: #b6c8aa"/>
   </g>
   <g id="patch_27">
    <path d="M 315.434125 53.06625 
L 330.003316 53.06625 
L 330.003316 22.48875 
L 315.434125 22.48875 
z
" clip-path="url(#p9577237513)" style="fill: #b6c8aa"/>
   </g>
   <g id="patch_28">
    <path d="M 308.14953 297.68625 
L 380.995483 297.68625 
L 380.995483 267.10875 
L 308.14953 267.10875 
z
" clip-path="url(#p9577237513)" style="fill: #7ea56b"/>
   </g>
   <g id="patch_29">
    <path d="M 351.857102 236.53125 
L 657.810104 236.53125 
L 657.810104 205.95375 
L 351.857102 205.95375 
z
" clip-path="url(#p9577237513)" style="fill: #7ea56b"/>
   </g>
   <g id="patch_30">
    <path d="M 315.434125 175.37625 
L 402.849269 175.37625 
L 402.849269 144.79875 
L 315.434125 144.79875 
z
" clip-path="url(#p9577237513)" style="fill: #7ea56b"/>
   </g>
   <g id="patch_31">
    <path d="M 322.718721 114.22125 
L 541.25658 114.22125 
L 541.25658 83.64375 
L 322.718721 83.64375 
z
" clip-path="url(#p9577237513)" style="fill: #7ea56b"/>
   </g>
   <g id="patch_32">
    <path d="M 330.003316 53.06625 
L 533.971984 53.06625 
L 533.971984 22.48875 
L 330.003316 22.48875 
z
" clip-path="url(#p9577237513)" style="fill: #7ea56b"/>
   </g>
   <g id="matplotlib.axis_1">
    <g id="xtick_1">
     <g id="line2d_2">
      <defs>
       <path id="m685143677f" d="M 0 0 
L 0 3.5 
" style="stroke: #000000; stroke-width: 0.8"/>
      </defs>
      <g>
       <use xlink:href="#m685143677f" x="279.011149" y="312.975" style="stroke: #000000; stroke-width: 0.8"/>
      </g>
     </g>
     <g id="text_1">
      <!-- 0 -->
      <g transform="translate(273.921149 332.1325)scale(0.16 -0.16)">
       <defs>
        <path id="DejaVuSans-30" d="M 2034 4250 
Q 1547 4250 1301 3770 
Q 1056 3291 1056 2328 
Q 1056 1369 1301 889 
Q 1547 409 2034 409 
Q 2525 409 2770 889 
Q 3016 1369 3016 2328 
Q 3016 3291 2770 3770 
Q 2525 4250 2034 4250 
z
M 2034 4750 
Q 2819 4750 3233 4129 
Q 3647 3509 3647 2328 
Q 3647 1150 3233 529 
Q 2819 -91 2034 -91 
Q 1250 -91 836 529 
Q 422 1150 422 2328 
Q 422 3509 836 4129 
Q 1250 4750 2034 4750 
z
" transform="scale(0.015625)"/>
       </defs>
       <use xlink:href="#DejaVuSans-30"/>
      </g>
     </g>
    </g>
    <g id="xtick_2">
     <g id="line2d_3">
      <g>
       <use xlink:href="#m685143677f" x="206.165196" y="312.975" style="stroke: #000000; stroke-width: 0.8"/>
      </g>
     </g>
     <g id="text_2">
      <!-- 5 -->
      <g transform="translate(201.075196 332.1325)scale(0.16 -0.16)">
       <defs>
        <path id="DejaVuSans-35" d="M 691 4666 
L 3169 4666 
L 3169 4134 
L 1269 4134 
L 1269 2991 
Q 1406 3038 1543 3061 
Q 1681 3084 1819 3084 
Q 2600 3084 3056 2656 
Q 3513 2228 3513 1497 
Q 3513 744 3044 326 
Q 2575 -91 1722 -91 
Q 1428 -91 1123 -41 
Q 819 9 494 109 
L 494 744 
Q 775 591 1075 516 
Q 1375 441 1709 441 
Q 2250 441 2565 725 
Q 2881 1009 2881 1497 
Q 2881 1984 2565 2268 
Q 2250 2553 1709 2553 
Q 1456 2553 1204 2497 
Q 953 2441 691 2322 
L 691 4666 
z
" transform="scale(0.015625)"/>
       </defs>
       <use xlink:href="#DejaVuSans-35"/>
      </g>
     </g>
    </g>
    <g id="xtick_3">
     <g id="line2d_4">
      <g>
       <use xlink:href="#m685143677f" x="351.857102" y="312.975" style="stroke: #000000; stroke-width: 0.8"/>
      </g>
     </g>
     <g id="text_3">
      <!-- 5 -->
      <g transform="translate(346.767102 332.1325)scale(0.16 -0.16)">
       <use xlink:href="#DejaVuSans-35"/>
      </g>
     </g>
    </g>
    <g id="xtick_4">
     <g id="line2d_5">
      <g>
       <use xlink:href="#m685143677f" x="424.703055" y="312.975" style="stroke: #000000; stroke-width: 0.8"/>
      </g>
     </g>
     <g id="text_4">
      <!-- 10 -->
      <g transform="translate(414.523055 332.1325)scale(0.16 -0.16)">
       <defs>
        <path id="DejaVuSans-31" d="M 794 531 
L 1825 531 
L 1825 4091 
L 703 3866 
L 703 4441 
L 1819 4666 
L 2450 4666 
L 2450 531 
L 3481 531 
L 3481 0 
L 794 0 
L 794 531 
z
" transform="scale(0.015625)"/>
       </defs>
       <use xlink:href="#DejaVuSans-31"/>
       <use xlink:href="#DejaVuSans-30" x="63.623047"/>
      </g>
     </g>
    </g>
    <g id="xtick_5">
     <g id="line2d_6">
      <g>
       <use xlink:href="#m685143677f" x="497.549008" y="312.975" style="stroke: #000000; stroke-width: 0.8"/>
      </g>
     </g>
     <g id="text_5">
      <!-- 15 -->
      <g transform="translate(487.369008 332.1325)scale(0.16 -0.16)">
       <use xlink:href="#DejaVuSans-31"/>
       <use xlink:href="#DejaVuSans-35" x="63.623047"/>
      </g>
     </g>
    </g>
    <g id="xtick_6">
     <g id="line2d_7">
      <g>
       <use xlink:href="#m685143677f" x="570.394961" y="312.975" style="stroke: #000000; stroke-width: 0.8"/>
      </g>
     </g>
     <g id="text_6">
      <!-- 20 -->
      <g transform="translate(560.214961 332.1325)scale(0.16 -0.16)">
       <defs>
        <path id="DejaVuSans-32" d="M 1228 531 
L 3431 531 
L 3431 0 
L 469 0 
L 469 531 
Q 828 903 1448 1529 
Q 2069 2156 2228 2338 
Q 2531 2678 2651 2914 
Q 2772 3150 2772 3378 
Q 2772 3750 2511 3984 
Q 2250 4219 1831 4219 
Q 1534 4219 1204 4116 
Q 875 4013 500 3803 
L 500 4441 
Q 881 4594 1212 4672 
Q 1544 4750 1819 4750 
Q 2544 4750 2975 4387 
Q 3406 4025 3406 3419 
Q 3406 3131 3298 2873 
Q 3191 2616 2906 2266 
Q 2828 2175 2409 1742 
Q 1991 1309 1228 531 
z
" transform="scale(0.015625)"/>
       </defs>
       <use xlink:href="#DejaVuSans-32"/>
       <use xlink:href="#DejaVuSans-30" x="63.623047"/>
      </g>
     </g>
    </g>
    <g id="xtick_7">
     <g id="line2d_8">
      <g>
       <use xlink:href="#m685143677f" x="643.240914" y="312.975" style="stroke: #000000; stroke-width: 0.8"/>
      </g>
     </g>
     <g id="text_7">
      <!-- 25 -->
      <g transform="translate(633.060914 332.1325)scale(0.16 -0.16)">
       <use xlink:href="#DejaVuSans-32"/>
       <use xlink:href="#DejaVuSans-35" x="63.623047"/>
      </g>
     </g>
    </g>
    <g id="text_8">
     <!-- Number of Respondents -->
     <g transform="translate(320.04875 351.6175)scale(0.16 -0.16)">
      <defs>
       <path id="DejaVuSans-4e" d="M 628 4666 
L 1478 4666 
L 3547 763 
L 3547 4666 
L 4159 4666 
L 4159 0 
L 3309 0 
L 1241 3903 
L 1241 0 
L 628 0 
L 628 4666 
z
" transform="scale(0.015625)"/>
       <path id="DejaVuSans-75" d="M 544 1381 
L 544 3500 
L 1119 3500 
L 1119 1403 
Q 1119 906 1312 657 
Q 1506 409 1894 409 
Q 2359 409 2629 706 
Q 2900 1003 2900 1516 
L 2900 3500 
L 3475 3500 
L 3475 0 
L 2900 0 
L 2900 538 
Q 2691 219 2414 64 
Q 2138 -91 1772 -91 
Q 1169 -91 856 284 
Q 544 659 544 1381 
z
M 1991 3584 
L 1991 3584 
z
" transform="scale(0.015625)"/>
       <path id="DejaVuSans-6d" d="M 3328 2828 
Q 3544 3216 3844 3400 
Q 4144 3584 4550 3584 
Q 5097 3584 5394 3201 
Q 5691 2819 5691 2113 
L 5691 0 
L 5113 0 
L 5113 2094 
Q 5113 2597 4934 2840 
Q 4756 3084 4391 3084 
Q 3944 3084 3684 2787 
Q 3425 2491 3425 1978 
L 3425 0 
L 2847 0 
L 2847 2094 
Q 2847 2600 2669 2842 
Q 2491 3084 2119 3084 
Q 1678 3084 1418 2786 
Q 1159 2488 1159 1978 
L 1159 0 
L 581 0 
L 581 3500 
L 1159 3500 
L 1159 2956 
Q 1356 3278 1631 3431 
Q 1906 3584 2284 3584 
Q 2666 3584 2933 3390 
Q 3200 3197 3328 2828 
z
" transform="scale(0.015625)"/>
       <path id="DejaVuSans-62" d="M 3116 1747 
Q 3116 2381 2855 2742 
Q 2594 3103 2138 3103 
Q 1681 3103 1420 2742 
Q 1159 2381 1159 1747 
Q 1159 1113 1420 752 
Q 1681 391 2138 391 
Q 2594 391 2855 752 
Q 3116 1113 3116 1747 
z
M 1159 2969 
Q 1341 3281 1617 3432 
Q 1894 3584 2278 3584 
Q 2916 3584 3314 3078 
Q 3713 2572 3713 1747 
Q 3713 922 3314 415 
Q 2916 -91 2278 -91 
Q 1894 -91 1617 61 
Q 1341 213 1159 525 
L 1159 0 
L 581 0 
L 581 4863 
L 1159 4863 
L 1159 2969 
z
" transform="scale(0.015625)"/>
       <path id="DejaVuSans-65" d="M 3597 1894 
L 3597 1613 
L 953 1613 
Q 991 1019 1311 708 
Q 1631 397 2203 397 
Q 2534 397 2845 478 
Q 3156 559 3463 722 
L 3463 178 
Q 3153 47 2828 -22 
Q 2503 -91 2169 -91 
Q 1331 -91 842 396 
Q 353 884 353 1716 
Q 353 2575 817 3079 
Q 1281 3584 2069 3584 
Q 2775 3584 3186 3129 
Q 3597 2675 3597 1894 
z
M 3022 2063 
Q 3016 2534 2758 2815 
Q 2500 3097 2075 3097 
Q 1594 3097 1305 2825 
Q 1016 2553 972 2059 
L 3022 2063 
z
" transform="scale(0.015625)"/>
       <path id="DejaVuSans-72" d="M 2631 2963 
Q 2534 3019 2420 3045 
Q 2306 3072 2169 3072 
Q 1681 3072 1420 2755 
Q 1159 2438 1159 1844 
L 1159 0 
L 581 0 
L 581 3500 
L 1159 3500 
L 1159 2956 
Q 1341 3275 1631 3429 
Q 1922 3584 2338 3584 
Q 2397 3584 2469 3576 
Q 2541 3569 2628 3553 
L 2631 2963 
z
" transform="scale(0.015625)"/>
       <path id="DejaVuSans-20" transform="scale(0.015625)"/>
       <path id="DejaVuSans-6f" d="M 1959 3097 
Q 1497 3097 1228 2736 
Q 959 2375 959 1747 
Q 959 1119 1226 758 
Q 1494 397 1959 397 
Q 2419 397 2687 759 
Q 2956 1122 2956 1747 
Q 2956 2369 2687 2733 
Q 2419 3097 1959 3097 
z
M 1959 3584 
Q 2709 3584 3137 3096 
Q 3566 2609 3566 1747 
Q 3566 888 3137 398 
Q 2709 -91 1959 -91 
Q 1206 -91 779 398 
Q 353 888 353 1747 
Q 353 2609 779 3096 
Q 1206 3584 1959 3584 
z
" transform="scale(0.015625)"/>
       <path id="DejaVuSans-66" d="M 2375 4863 
L 2375 4384 
L 1825 4384 
Q 1516 4384 1395 4259 
Q 1275 4134 1275 3809 
L 1275 3500 
L 2222 3500 
L 2222 3053 
L 1275 3053 
L 1275 0 
L 697 0 
L 697 3053 
L 147 3053 
L 147 3500 
L 697 3500 
L 697 3744 
Q 697 4328 969 4595 
Q 1241 4863 1831 4863 
L 2375 4863 
z
" transform="scale(0.015625)"/>
       <path id="DejaVuSans-52" d="M 2841 2188 
Q 3044 2119 3236 1894 
Q 3428 1669 3622 1275 
L 4263 0 
L 3584 0 
L 2988 1197 
Q 2756 1666 2539 1819 
Q 2322 1972 1947 1972 
L 1259 1972 
L 1259 0 
L 628 0 
L 628 4666 
L 2053 4666 
Q 2853 4666 3247 4331 
Q 3641 3997 3641 3322 
Q 3641 2881 3436 2590 
Q 3231 2300 2841 2188 
z
M 1259 4147 
L 1259 2491 
L 2053 2491 
Q 2509 2491 2742 2702 
Q 2975 2913 2975 3322 
Q 2975 3731 2742 3939 
Q 2509 4147 2053 4147 
L 1259 4147 
z
" transform="scale(0.015625)"/>
       <path id="DejaVuSans-73" d="M 2834 3397 
L 2834 2853 
Q 2591 2978 2328 3040 
Q 2066 3103 1784 3103 
Q 1356 3103 1142 2972 
Q 928 2841 928 2578 
Q 928 2378 1081 2264 
Q 1234 2150 1697 2047 
L 1894 2003 
Q 2506 1872 2764 1633 
Q 3022 1394 3022 966 
Q 3022 478 2636 193 
Q 2250 -91 1575 -91 
Q 1294 -91 989 -36 
Q 684 19 347 128 
L 347 722 
Q 666 556 975 473 
Q 1284 391 1588 391 
Q 1994 391 2212 530 
Q 2431 669 2431 922 
Q 2431 1156 2273 1281 
Q 2116 1406 1581 1522 
L 1381 1569 
Q 847 1681 609 1914 
Q 372 2147 372 2553 
Q 372 3047 722 3315 
Q 1072 3584 1716 3584 
Q 2034 3584 2315 3537 
Q 2597 3491 2834 3397 
z
" transform="scale(0.015625)"/>
       <path id="DejaVuSans-70" d="M 1159 525 
L 1159 -1331 
L 581 -1331 
L 581 3500 
L 1159 3500 
L 1159 2969 
Q 1341 3281 1617 3432 
Q 1894 3584 2278 3584 
Q 2916 3584 3314 3078 
Q 3713 2572 3713 1747 
Q 3713 922 3314 415 
Q 2916 -91 2278 -91 
Q 1894 -91 1617 61 
Q 1341 213 1159 525 
z
M 3116 1747 
Q 3116 2381 2855 2742 
Q 2594 3103 2138 3103 
Q 1681 3103 1420 2742 
Q 1159 2381 1159 1747 
Q 1159 1113 1420 752 
Q 1681 391 2138 391 
Q 2594 391 2855 752 
Q 3116 1113 3116 1747 
z
" transform="scale(0.015625)"/>
       <path id="DejaVuSans-6e" d="M 3513 2113 
L 3513 0 
L 2938 0 
L 2938 2094 
Q 2938 2591 2744 2837 
Q 2550 3084 2163 3084 
Q 1697 3084 1428 2787 
Q 1159 2491 1159 1978 
L 1159 0 
L 581 0 
L 581 3500 
L 1159 3500 
L 1159 2956 
Q 1366 3272 1645 3428 
Q 1925 3584 2291 3584 
Q 2894 3584 3203 3211 
Q 3513 2838 3513 2113 
z
" transform="scale(0.015625)"/>
       <path id="DejaVuSans-64" d="M 2906 2969 
L 2906 4863 
L 3481 4863 
L 3481 0 
L 2906 0 
L 2906 525 
Q 2725 213 2448 61 
Q 2172 -91 1784 -91 
Q 1150 -91 751 415 
Q 353 922 353 1747 
Q 353 2572 751 3078 
Q 1150 3584 1784 3584 
Q 2172 3584 2448 3432 
Q 2725 3281 2906 2969 
z
M 947 1747 
Q 947 1113 1208 752 
Q 1469 391 1925 391 
Q 2381 391 2643 752 
Q 2906 1113 2906 1747 
Q 2906 2381 2643 2742 
Q 2381 3103 1925 3103 
Q 1469 3103 1208 2742 
Q 947 2381 947 1747 
z
" transform="scale(0.015625)"/>
       <path id="DejaVuSans-74" d="M 1172 4494 
L 1172 3500 
L 2356 3500 
L 2356 3053 
L 1172 3053 
L 1172 1153 
Q 1172 725 1289 603 
Q 1406 481 1766 481 
L 2356 481 
L 2356 0 
L 1766 0 
Q 1100 0 847 248 
Q 594 497 594 1153 
L 594 3053 
L 172 3053 
L 172 3500 
L 594 3500 
L 594 4494 
L 1172 4494 
z
" transform="scale(0.015625)"/>
      </defs>
      <use xlink:href="#DejaVuSans-4e"/>
      <use xlink:href="#DejaVuSans-75" x="74.804688"/>
      <use xlink:href="#DejaVuSans-6d" x="138.183594"/>
      <use xlink:href="#DejaVuSans-62" x="235.595703"/>
      <use xlink:href="#DejaVuSans-65" x="299.072266"/>
      <use xlink:href="#DejaVuSans-72" x="360.595703"/>
      <use xlink:href="#DejaVuSans-20" x="401.708984"/>
      <use xlink:href="#DejaVuSans-6f" x="433.496094"/>
      <use xlink:href="#DejaVuSans-66" x="494.677734"/>
      <use xlink:href="#DejaVuSans-20" x="529.882812"/>
      <use xlink:href="#DejaVuSans-52" x="561.669922"/>
      <use xlink:href="#DejaVuSans-65" x="626.652344"/>
      <use xlink:href="#DejaVuSans-73" x="688.175781"/>
      <use xlink:href="#DejaVuSans-70" x="740.275391"/>
      <use xlink:href="#DejaVuSans-6f" x="803.751953"/>
      <use xlink:href="#DejaVuSans-6e" x="864.933594"/>
      <use xlink:href="#DejaVuSans-64" x="928.3125"/>
      <use xlink:href="#DejaVuSans-65" x="991.789062"/>
      <use xlink:href="#DejaVuSans-6e" x="1053.3125"/>
      <use xlink:href="#DejaVuSans-74" x="1116.691406"/>
      <use xlink:href="#DejaVuSans-73" x="1155.900391"/>
     </g>
    </g>
   </g>
   <g id="matplotlib.axis_2">
    <g id="ytick_1">
     <g id="text_9">
      <!-- Southern Africa -->
      <g transform="translate(7.2 288.47625)scale(0.16 -0.16)">
       <defs>
        <path id="DejaVuSans-53" d="M 3425 4513 
L 3425 3897 
Q 3066 4069 2747 4153 
Q 2428 4238 2131 4238 
Q 1616 4238 1336 4038 
Q 1056 3838 1056 3469 
Q 1056 3159 1242 3001 
Q 1428 2844 1947 2747 
L 2328 2669 
Q 3034 2534 3370 2195 
Q 3706 1856 3706 1288 
Q 3706 609 3251 259 
Q 2797 -91 1919 -91 
Q 1588 -91 1214 -16 
Q 841 59 441 206 
L 441 856 
Q 825 641 1194 531 
Q 1563 422 1919 422 
Q 2459 422 2753 634 
Q 3047 847 3047 1241 
Q 3047 1584 2836 1778 
Q 2625 1972 2144 2069 
L 1759 2144 
Q 1053 2284 737 2584 
Q 422 2884 422 3419 
Q 422 4038 858 4394 
Q 1294 4750 2059 4750 
Q 2388 4750 2728 4690 
Q 3069 4631 3425 4513 
z
" transform="scale(0.015625)"/>
        <path id="DejaVuSans-68" d="M 3513 2113 
L 3513 0 
L 2938 0 
L 2938 2094 
Q 2938 2591 2744 2837 
Q 2550 3084 2163 3084 
Q 1697 3084 1428 2787 
Q 1159 2491 1159 1978 
L 1159 0 
L 581 0 
L 581 4863 
L 1159 4863 
L 1159 2956 
Q 1366 3272 1645 3428 
Q 1925 3584 2291 3584 
Q 2894 3584 3203 3211 
Q 3513 2838 3513 2113 
z
" transform="scale(0.015625)"/>
        <path id="DejaVuSans-41" d="M 2188 4044 
L 1331 1722 
L 3047 1722 
L 2188 4044 
z
M 1831 4666 
L 2547 4666 
L 4325 0 
L 3669 0 
L 3244 1197 
L 1141 1197 
L 716 0 
L 50 0 
L 1831 4666 
z
" transform="scale(0.015625)"/>
        <path id="DejaVuSans-69" d="M 603 3500 
L 1178 3500 
L 1178 0 
L 603 0 
L 603 3500 
z
M 603 4863 
L 1178 4863 
L 1178 4134 
L 603 4134 
L 603 4863 
z
" transform="scale(0.015625)"/>
        <path id="DejaVuSans-63" d="M 3122 3366 
L 3122 2828 
Q 2878 2963 2633 3030 
Q 2388 3097 2138 3097 
Q 1578 3097 1268 2742 
Q 959 2388 959 1747 
Q 959 1106 1268 751 
Q 1578 397 2138 397 
Q 2388 397 2633 464 
Q 2878 531 3122 666 
L 3122 134 
Q 2881 22 2623 -34 
Q 2366 -91 2075 -91 
Q 1284 -91 818 406 
Q 353 903 353 1747 
Q 353 2603 823 3093 
Q 1294 3584 2113 3584 
Q 2378 3584 2631 3529 
Q 2884 3475 3122 3366 
z
" transform="scale(0.015625)"/>
        <path id="DejaVuSans-61" d="M 2194 1759 
Q 1497 1759 1228 1600 
Q 959 1441 959 1056 
Q 959 750 1161 570 
Q 1363 391 1709 391 
Q 2188 391 2477 730 
Q 2766 1069 2766 1631 
L 2766 1759 
L 2194 1759 
z
M 3341 1997 
L 3341 0 
L 2766 0 
L 2766 531 
Q 2569 213 2275 61 
Q 1981 -91 1556 -91 
Q 1019 -91 701 211 
Q 384 513 384 1019 
Q 384 1609 779 1909 
Q 1175 2209 1959 2209 
L 2766 2209 
L 2766 2266 
Q 2766 2663 2505 2880 
Q 2244 3097 1772 3097 
Q 1472 3097 1187 3025 
Q 903 2953 641 2809 
L 641 3341 
Q 956 3463 1253 3523 
Q 1550 3584 1831 3584 
Q 2591 3584 2966 3190 
Q 3341 2797 3341 1997 
z
" transform="scale(0.015625)"/>
       </defs>
       <use xlink:href="#DejaVuSans-53"/>
       <use xlink:href="#DejaVuSans-6f" x="63.476562"/>
       <use xlink:href="#DejaVuSans-75" x="124.658203"/>
       <use xlink:href="#DejaVuSans-74" x="188.037109"/>
       <use xlink:href="#DejaVuSans-68" x="227.246094"/>
       <use xlink:href="#DejaVuSans-65" x="290.625"/>
       <use xlink:href="#DejaVuSans-72" x="352.148438"/>
       <use xlink:href="#DejaVuSans-6e" x="391.511719"/>
       <use xlink:href="#DejaVuSans-20" x="454.890625"/>
       <use xlink:href="#DejaVuSans-41" x="486.677734"/>
       <use xlink:href="#DejaVuSans-66" x="551.460938"/>
       <use xlink:href="#DejaVuSans-72" x="586.666016"/>
       <use xlink:href="#DejaVuSans-69" x="627.779297"/>
       <use xlink:href="#DejaVuSans-63" x="655.5625"/>
       <use xlink:href="#DejaVuSans-61" x="710.542969"/>
      </g>
     </g>
    </g>
    <g id="ytick_2">
     <g id="text_10">
      <!-- Eastern Africa -->
      <g transform="translate(19.1775 227.32125)scale(0.16 -0.16)">
       <defs>
        <path id="DejaVuSans-45" d="M 628 4666 
L 3578 4666 
L 3578 4134 
L 1259 4134 
L 1259 2753 
L 3481 2753 
L 3481 2222 
L 1259 2222 
L 1259 531 
L 3634 531 
L 3634 0 
L 628 0 
L 628 4666 
z
" transform="scale(0.015625)"/>
       </defs>
       <use xlink:href="#DejaVuSans-45"/>
       <use xlink:href="#DejaVuSans-61" x="63.183594"/>
       <use xlink:href="#DejaVuSans-73" x="124.462891"/>
       <use xlink:href="#DejaVuSans-74" x="176.5625"/>
       <use xlink:href="#DejaVuSans-65" x="215.771484"/>
       <use xlink:href="#DejaVuSans-72" x="277.294922"/>
       <use xlink:href="#DejaVuSans-6e" x="316.658203"/>
       <use xlink:href="#DejaVuSans-20" x="380.037109"/>
       <use xlink:href="#DejaVuSans-41" x="411.824219"/>
       <use xlink:href="#DejaVuSans-66" x="476.607422"/>
       <use xlink:href="#DejaVuSans-72" x="511.8125"/>
       <use xlink:href="#DejaVuSans-69" x="552.925781"/>
       <use xlink:href="#DejaVuSans-63" x="580.708984"/>
       <use xlink:href="#DejaVuSans-61" x="635.689453"/>
      </g>
     </g>
    </g>
    <g id="ytick_3">
     <g id="text_11">
      <!-- Middle Africa -->
      <g transform="translate(27.1275 166.16625)scale(0.16 -0.16)">
       <defs>
        <path id="DejaVuSans-4d" d="M 628 4666 
L 1569 4666 
L 2759 1491 
L 3956 4666 
L 4897 4666 
L 4897 0 
L 4281 0 
L 4281 4097 
L 3078 897 
L 2444 897 
L 1241 4097 
L 1241 0 
L 628 0 
L 628 4666 
z
" transform="scale(0.015625)"/>
        <path id="DejaVuSans-6c" d="M 603 4863 
L 1178 4863 
L 1178 0 
L 603 0 
L 603 4863 
z
" transform="scale(0.015625)"/>
       </defs>
       <use xlink:href="#DejaVuSans-4d"/>
       <use xlink:href="#DejaVuSans-69" x="86.279297"/>
       <use xlink:href="#DejaVuSans-64" x="114.0625"/>
       <use xlink:href="#DejaVuSans-64" x="177.539062"/>
       <use xlink:href="#DejaVuSans-6c" x="241.015625"/>
       <use xlink:href="#DejaVuSans-65" x="268.798828"/>
       <use xlink:href="#DejaVuSans-20" x="330.322266"/>
       <use xlink:href="#DejaVuSans-41" x="362.109375"/>
       <use xlink:href="#DejaVuSans-66" x="426.892578"/>
       <use xlink:href="#DejaVuSans-72" x="462.097656"/>
       <use xlink:href="#DejaVuSans-69" x="503.210938"/>
       <use xlink:href="#DejaVuSans-63" x="530.994141"/>
       <use xlink:href="#DejaVuSans-61" x="585.974609"/>
      </g>
     </g>
    </g>
    <g id="ytick_4">
     <g id="text_12">
      <!-- Western Africa -->
      <g transform="translate(14.3675 105.01125)scale(0.16 -0.16)">
       <defs>
        <path id="DejaVuSans-57" d="M 213 4666 
L 850 4666 
L 1831 722 
L 2809 4666 
L 3519 4666 
L 4500 722 
L 5478 4666 
L 6119 4666 
L 4947 0 
L 4153 0 
L 3169 4050 
L 2175 0 
L 1381 0 
L 213 4666 
z
" transform="scale(0.015625)"/>
       </defs>
       <use xlink:href="#DejaVuSans-57"/>
       <use xlink:href="#DejaVuSans-65" x="93.001953"/>
       <use xlink:href="#DejaVuSans-73" x="154.525391"/>
       <use xlink:href="#DejaVuSans-74" x="206.625"/>
       <use xlink:href="#DejaVuSans-65" x="245.833984"/>
       <use xlink:href="#DejaVuSans-72" x="307.357422"/>
       <use xlink:href="#DejaVuSans-6e" x="346.720703"/>
       <use xlink:href="#DejaVuSans-20" x="410.099609"/>
       <use xlink:href="#DejaVuSans-41" x="441.886719"/>
       <use xlink:href="#DejaVuSans-66" x="506.669922"/>
       <use xlink:href="#DejaVuSans-72" x="541.875"/>
       <use xlink:href="#DejaVuSans-69" x="582.988281"/>
       <use xlink:href="#DejaVuSans-63" x="610.771484"/>
       <use xlink:href="#DejaVuSans-61" x="665.751953"/>
      </g>
     </g>
    </g>
    <g id="ytick_5">
     <g id="text_13">
      <!-- Northern Africa -->
      <g transform="translate(8.95 43.85625)scale(0.16 -0.16)">
       <use xlink:href="#DejaVuSans-4e"/>
       <use xlink:href="#DejaVuSans-6f" x="74.804688"/>
       <use xlink:href="#DejaVuSans-72" x="135.986328"/>
       <use xlink:href="#DejaVuSans-74" x="177.099609"/>
       <use xlink:href="#DejaVuSans-68" x="216.308594"/>
       <use xlink:href="#DejaVuSans-65" x="279.6875"/>
       <use xlink:href="#DejaVuSans-72" x="341.210938"/>
       <use xlink:href="#DejaVuSans-6e" x="380.574219"/>
       <use xlink:href="#DejaVuSans-20" x="443.953125"/>
       <use xlink:href="#DejaVuSans-41" x="475.740234"/>
       <use xlink:href="#DejaVuSans-66" x="540.523438"/>
       <use xlink:href="#DejaVuSans-72" x="575.728516"/>
       <use xlink:href="#DejaVuSans-69" x="616.841797"/>
       <use xlink:href="#DejaVuSans-63" x="644.625"/>
       <use xlink:href="#DejaVuSans-61" x="699.605469"/>
      </g>
     </g>
    </g>
   </g>
   <g id="patch_33">
    <path d="M 137.69 312.975 
L 695.69 312.975 
" style="fill: none; stroke: #000000; stroke-width: 0.8; stroke-linejoin: miter; stroke-linecap: square"/>
   </g>
   <g id="legend_1">
    <g id="patch_34">
     <path d="M 522.2825 306.975 
L 687.29 306.975 
Q 689.69 306.975 689.69 304.575 
L 689.69 200.0925 
Q 689.69 197.6925 687.29 197.6925 
L 522.2825 197.6925 
Q 519.8825 197.6925 519.8825 200.0925 
L 519.8825 304.575 
Q 519.8825 306.975 522.2825 306.975 
z
" style="fill: #ffffff; opacity: 0.8"/>
    </g>
    <g id="text_14">
     <!-- DSVs: Importance -->
     <g transform="translate(550.815312 211.610625)scale(0.12 -0.12)">
      <defs>
       <path id="DejaVuSans-44" d="M 1259 4147 
L 1259 519 
L 2022 519 
Q 2988 519 3436 956 
Q 3884 1394 3884 2338 
Q 3884 3275 3436 3711 
Q 2988 4147 2022 4147 
L 1259 4147 
z
M 628 4666 
L 1925 4666 
Q 3281 4666 3915 4102 
Q 4550 3538 4550 2338 
Q 4550 1131 3912 565 
Q 3275 0 1925 0 
L 628 0 
L 628 4666 
z
" transform="scale(0.015625)"/>
       <path id="DejaVuSans-56" d="M 1831 0 
L 50 4666 
L 709 4666 
L 2188 738 
L 3669 4666 
L 4325 4666 
L 2547 0 
L 1831 0 
z
" transform="scale(0.015625)"/>
       <path id="DejaVuSans-3a" d="M 750 794 
L 1409 794 
L 1409 0 
L 750 0 
L 750 794 
z
M 750 3309 
L 1409 3309 
L 1409 2516 
L 750 2516 
L 750 3309 
z
" transform="scale(0.015625)"/>
       <path id="DejaVuSans-49" d="M 628 4666 
L 1259 4666 
L 1259 0 
L 628 0 
L 628 4666 
z
" transform="scale(0.015625)"/>
      </defs>
      <use xlink:href="#DejaVuSans-44"/>
      <use xlink:href="#DejaVuSans-53" x="77.001953"/>
      <use xlink:href="#DejaVuSans-56" x="140.478516"/>
      <use xlink:href="#DejaVuSans-73" x="208.886719"/>
      <use xlink:href="#DejaVuSans-3a" x="260.986328"/>
      <use xlink:href="#DejaVuSans-20" x="294.677734"/>
      <use xlink:href="#DejaVuSans-49" x="326.464844"/>
      <use xlink:href="#DejaVuSans-6d" x="355.957031"/>
      <use xlink:href="#DejaVuSans-70" x="453.369141"/>
      <use xlink:href="#DejaVuSans-6f" x="516.845703"/>
      <use xlink:href="#DejaVuSans-72" x="578.027344"/>
      <use xlink:href="#DejaVuSans-74" x="619.140625"/>
      <use xlink:href="#DejaVuSans-61" x="658.349609"/>
      <use xlink:href="#DejaVuSans-6e" x="719.628906"/>
      <use xlink:href="#DejaVuSans-63" x="783.007812"/>
      <use xlink:href="#DejaVuSans-65" x="837.988281"/>
     </g>
    </g>
    <g id="patch_35">
     <path d="M 524.6825 229.224375 
L 548.6825 229.224375 
L 548.6825 220.824375 
L 524.6825 220.824375 
z
" style="fill: #368d95"/>
    </g>
    <g id="text_15">
     <!-- Not important -->
     <g transform="translate(558.2825 229.224375)scale(0.12 -0.12)">
      <use xlink:href="#DejaVuSans-4e"/>
      <use xlink:href="#DejaVuSans-6f" x="74.804688"/>
      <use xlink:href="#DejaVuSans-74" x="135.986328"/>
      <use xlink:href="#DejaVuSans-20" x="175.195312"/>
      <use xlink:href="#DejaVuSans-69" x="206.982422"/>
      <use xlink:href="#DejaVuSans-6d" x="234.765625"/>
      <use xlink:href="#DejaVuSans-70" x="332.177734"/>
      <use xlink:href="#DejaVuSans-6f" x="395.654297"/>
      <use xlink:href="#DejaVuSans-72" x="456.835938"/>
      <use xlink:href="#DejaVuSans-74" x="497.949219"/>
      <use xlink:href="#DejaVuSans-61" x="537.158203"/>
      <use xlink:href="#DejaVuSans-6e" x="598.4375"/>
      <use xlink:href="#DejaVuSans-74" x="661.816406"/>
     </g>
    </g>
    <g id="patch_36">
     <path d="M 524.6825 246.838125 
L 548.6825 246.838125 
L 548.6825 238.438125 
L 524.6825 238.438125 
z
" style="fill: #95babf"/>
    </g>
    <g id="text_16">
     <!-- A little important -->
     <g transform="translate(558.2825 246.838125)scale(0.12 -0.12)">
      <use xlink:href="#DejaVuSans-41"/>
      <use xlink:href="#DejaVuSans-20" x="68.408203"/>
      <use xlink:href="#DejaVuSans-6c" x="100.195312"/>
      <use xlink:href="#DejaVuSans-69" x="127.978516"/>
      <use xlink:href="#DejaVuSans-74" x="155.761719"/>
      <use xlink:href="#DejaVuSans-74" x="194.970703"/>
      <use xlink:href="#DejaVuSans-6c" x="234.179688"/>
      <use xlink:href="#DejaVuSans-65" x="261.962891"/>
      <use xlink:href="#DejaVuSans-20" x="323.486328"/>
      <use xlink:href="#DejaVuSans-69" x="355.273438"/>
      <use xlink:href="#DejaVuSans-6d" x="383.056641"/>
      <use xlink:href="#DejaVuSans-70" x="480.46875"/>
      <use xlink:href="#DejaVuSans-6f" x="543.945312"/>
      <use xlink:href="#DejaVuSans-72" x="605.126953"/>
      <use xlink:href="#DejaVuSans-74" x="646.240234"/>
      <use xlink:href="#DejaVuSans-61" x="685.449219"/>
      <use xlink:href="#DejaVuSans-6e" x="746.728516"/>
      <use xlink:href="#DejaVuSans-74" x="810.107422"/>
     </g>
    </g>
    <g id="patch_37">
     <path d="M 524.6825 264.451875 
L 548.6825 264.451875 
L 548.6825 256.051875 
L 524.6825 256.051875 
z
" style="fill: #d4d4d4"/>
    </g>
    <g id="text_17">
     <!-- Somewhat important -->
     <g transform="translate(558.2825 264.451875)scale(0.12 -0.12)">
      <defs>
       <path id="DejaVuSans-77" d="M 269 3500 
L 844 3500 
L 1563 769 
L 2278 3500 
L 2956 3500 
L 3675 769 
L 4391 3500 
L 4966 3500 
L 4050 0 
L 3372 0 
L 2619 2869 
L 1863 0 
L 1184 0 
L 269 3500 
z
" transform="scale(0.015625)"/>
      </defs>
      <use xlink:href="#DejaVuSans-53"/>
      <use xlink:href="#DejaVuSans-6f" x="63.476562"/>
      <use xlink:href="#DejaVuSans-6d" x="124.658203"/>
      <use xlink:href="#DejaVuSans-65" x="222.070312"/>
      <use xlink:href="#DejaVuSans-77" x="283.59375"/>
      <use xlink:href="#DejaVuSans-68" x="365.380859"/>
      <use xlink:href="#DejaVuSans-61" x="428.759766"/>
      <use xlink:href="#DejaVuSans-74" x="490.039062"/>
      <use xlink:href="#DejaVuSans-20" x="529.248047"/>
      <use xlink:href="#DejaVuSans-69" x="561.035156"/>
      <use xlink:href="#DejaVuSans-6d" x="588.818359"/>
      <use xlink:href="#DejaVuSans-70" x="686.230469"/>
      <use xlink:href="#DejaVuSans-6f" x="749.707031"/>
      <use xlink:href="#DejaVuSans-72" x="810.888672"/>
      <use xlink:href="#DejaVuSans-74" x="852.001953"/>
      <use xlink:href="#DejaVuSans-61" x="891.210938"/>
      <use xlink:href="#DejaVuSans-6e" x="952.490234"/>
      <use xlink:href="#DejaVuSans-74" x="1015.869141"/>
     </g>
    </g>
    <g id="patch_38">
     <path d="M 524.6825 282.065625 
L 548.6825 282.065625 
L 548.6825 273.665625 
L 524.6825 273.665625 
z
" style="fill: #b6c8aa"/>
    </g>
    <g id="text_18">
     <!-- Important -->
     <g transform="translate(558.2825 282.065625)scale(0.12 -0.12)">
      <use xlink:href="#DejaVuSans-49"/>
      <use xlink:href="#DejaVuSans-6d" x="29.492188"/>
      <use xlink:href="#DejaVuSans-70" x="126.904297"/>
      <use xlink:href="#DejaVuSans-6f" x="190.380859"/>
      <use xlink:href="#DejaVuSans-72" x="251.5625"/>
      <use xlink:href="#DejaVuSans-74" x="292.675781"/>
      <use xlink:href="#DejaVuSans-61" x="331.884766"/>
      <use xlink:href="#DejaVuSans-6e" x="393.164062"/>
      <use xlink:href="#DejaVuSans-74" x="456.542969"/>
     </g>
    </g>
    <g id="patch_39">
     <path d="M 524.6825 299.679375 
L 548.6825 299.679375 
L 548.6825 291.279375 
L 524.6825 291.279375 
z
" style="fill: #7ea56b"/>
    </g>
    <g id="text_19">
     <!-- Very important -->
     <g transform="translate(558.2825 299.679375)scale(0.12 -0.12)">
      <defs>
       <path id="DejaVuSans-79" d="M 2059 -325 
Q 1816 -950 1584 -1140 
Q 1353 -1331 966 -1331 
L 506 -1331 
L 506 -850 
L 844 -850 
Q 1081 -850 1212 -737 
Q 1344 -625 1503 -206 
L 1606 56 
L 191 3500 
L 800 3500 
L 1894 763 
L 2988 3500 
L 3597 3500 
L 2059 -325 
z
" transform="scale(0.015625)"/>
      </defs>
      <use xlink:href="#DejaVuSans-56"/>
      <use xlink:href="#DejaVuSans-65" x="60.658203"/>
      <use xlink:href="#DejaVuSans-72" x="122.181641"/>
      <use xlink:href="#DejaVuSans-79" x="163.294922"/>
      <use xlink:href="#DejaVuSans-20" x="222.474609"/>
      <use xlink:href="#DejaVuSans-69" x="254.261719"/>
      <use xlink:href="#DejaVuSans-6d" x="282.044922"/>
      <use xlink:href="#DejaVuSans-70" x="379.457031"/>
      <use xlink:href="#DejaVuSans-6f" x="442.933594"/>
      <use xlink:href="#DejaVuSans-72" x="504.115234"/>
      <use xlink:href="#DejaVuSans-74" x="545.228516"/>
      <use xlink:href="#DejaVuSans-61" x="584.4375"/>
      <use xlink:href="#DejaVuSans-6e" x="645.716797"/>
      <use xlink:href="#DejaVuSans-74" x="709.095703"/>
     </g>
    </g>
   </g>
  </g>
 </g>
 <defs>
  <clipPath id="p9577237513">
   <rect x="137.69" y="7.2" width="558" height="305.775"/>
  </clipPath>
 </defs>
</svg>
