<?xml version="1.0" encoding="utf-8" standalone="no"?>
<!DOCTYPE svg PUBLIC "-//W3C//DTD SVG 1.1//EN"
  "http://www.w3.org/Graphics/SVG/1.1/DTD/svg11.dtd">
<svg xmlns:xlink="http://www.w3.org/1999/xlink" width="701.1575pt" height="362.145pt" viewBox="0 0 701.1575 362.145" xmlns="http://www.w3.org/2000/svg" version="1.1">
 <metadata>
  <rdf:RDF xmlns:dc="http://purl.org/dc/elements/1.1/" xmlns:cc="http://creativecommons.org/ns#" xmlns:rdf="http://www.w3.org/1999/02/22-rdf-syntax-ns#">
   <cc:Work>
    <dc:type rdf:resource="http://purl.org/dc/dcmitype/StillImage"/>
    <dc:date>2022-08-02T09:32:34.750089</dc:date>
    <dc:format>image/svg+xml</dc:format>
    <dc:creator>
     <cc:Agent>
      <dc:title>Matplotlib v3.5.1, https://matplotlib.org/</dc:title>
     </cc:Agent>
    </dc:creator>
   </cc:Work>
  </rdf:RDF>
 </metadata>
 <defs>
  <style type="text/css">*{stroke-linejoin: round; stroke-linecap: butt}</style>
 </defs>
 <g id="figure_1">
  <g id="patch_1">
   <path d="M -0 362.145 
L 701.1575 362.145 
L 701.1575 0 
L -0 0 
L -0 362.145 
z
" style="fill: none"/>
  </g>
  <g id="axes_1">
   <g id="patch_2">
    <path d="M 135.9575 312.975 
L 693.9575 312.975 
L 693.9575 7.2 
L 135.9575 7.2 
L 135.9575 312.975 
z
" style="fill: none"/>
   </g>
   <g id="line2d_1">
    <path d="M 240.103626 312.975 
L 240.103626 7.2 
" clip-path="url(#p69a5c8cb14)" style="fill: none; stroke-dasharray: 5.55,2.4; stroke-dashoffset: 0; stroke: #000000; stroke-opacity: 0.5; stroke-width: 1.5"/>
   </g>
   <g id="patch_3">
    <path d="M 147.87613 300.234375 
L 147.87613 300.234375 
L 147.87613 274.753125 
L 147.87613 274.753125 
z
" clip-path="url(#p69a5c8cb14)" style="fill: #ffffff"/>
   </g>
   <g id="patch_4">
    <path d="M 147.87613 249.271875 
L 218.820358 249.271875 
L 218.820358 223.790625 
L 147.87613 223.790625 
z
" clip-path="url(#p69a5c8cb14)" style="fill: #ffffff"/>
   </g>
   <g id="patch_5">
    <path d="M 147.87613 198.309375 
L 162.064976 198.309375 
L 162.064976 172.828125 
L 147.87613 172.828125 
z
" clip-path="url(#p69a5c8cb14)" style="fill: #ffffff"/>
   </g>
   <g id="patch_6">
    <path d="M 147.87613 147.346875 
L 204.631513 147.346875 
L 204.631513 121.865625 
L 147.87613 121.865625 
z
" clip-path="url(#p69a5c8cb14)" style="fill: #ffffff"/>
   </g>
   <g id="patch_7">
    <path d="M 147.87613 96.384375 
L 176.253821 96.384375 
L 176.253821 70.903125 
L 147.87613 70.903125 
z
" clip-path="url(#p69a5c8cb14)" style="fill: #ffffff"/>
   </g>
   <g id="patch_8">
    <path d="M 147.87613 45.421875 
L 211.725935 45.421875 
L 211.725935 19.940625 
L 147.87613 19.940625 
z
" clip-path="url(#p69a5c8cb14)" style="fill: #ffffff"/>
   </g>
   <g id="patch_9">
    <path d="M 147.87613 300.234375 
L 180.983437 300.234375 
L 180.983437 274.753125 
L 147.87613 274.753125 
z
" clip-path="url(#p69a5c8cb14)" style="fill: #368d95"/>
   </g>
   <g id="patch_10">
    <path d="M 218.820358 249.271875 
L 228.279588 249.271875 
L 228.279588 223.790625 
L 218.820358 223.790625 
z
" clip-path="url(#p69a5c8cb14)" style="fill: #368d95"/>
   </g>
   <g id="patch_11">
    <path d="M 162.064976 198.309375 
L 199.901897 198.309375 
L 199.901897 172.828125 
L 162.064976 172.828125 
z
" clip-path="url(#p69a5c8cb14)" style="fill: #368d95"/>
   </g>
   <g id="patch_12">
    <path d="M 147.87613 147.346875 
L 147.87613 147.346875 
L 147.87613 121.865625 
L 147.87613 121.865625 
z
" clip-path="url(#p69a5c8cb14)" style="fill: #368d95"/>
   </g>
   <g id="patch_13">
    <path d="M 176.253821 96.384375 
L 199.901897 96.384375 
L 199.901897 70.903125 
L 176.253821 70.903125 
z
" clip-path="url(#p69a5c8cb14)" style="fill: #368d95"/>
   </g>
   <g id="patch_14">
    <path d="M 147.87613 45.421875 
L 147.87613 45.421875 
L 147.87613 19.940625 
L 147.87613 19.940625 
z
" clip-path="url(#p69a5c8cb14)" style="fill: #368d95"/>
   </g>
   <g id="patch_15">
    <path d="M 180.983437 300.234375 
L 195.172282 300.234375 
L 195.172282 274.753125 
L 180.983437 274.753125 
z
" clip-path="url(#p69a5c8cb14)" style="fill: #95babf"/>
   </g>
   <g id="patch_16">
    <path d="M 228.279588 249.271875 
L 233.009204 249.271875 
L 233.009204 223.790625 
L 228.279588 223.790625 
z
" clip-path="url(#p69a5c8cb14)" style="fill: #95babf"/>
   </g>
   <g id="patch_17">
    <path d="M 199.901897 198.309375 
L 209.361128 198.309375 
L 209.361128 172.828125 
L 199.901897 172.828125 
z
" clip-path="url(#p69a5c8cb14)" style="fill: #95babf"/>
   </g>
   <g id="patch_18">
    <path d="M 204.631513 147.346875 
L 218.820358 147.346875 
L 218.820358 121.865625 
L 204.631513 121.865625 
z
" clip-path="url(#p69a5c8cb14)" style="fill: #95babf"/>
   </g>
   <g id="patch_19">
    <path d="M 199.901897 96.384375 
L 209.361128 96.384375 
L 209.361128 70.903125 
L 199.901897 70.903125 
z
" clip-path="url(#p69a5c8cb14)" style="fill: #95babf"/>
   </g>
   <g id="patch_20">
    <path d="M 211.725935 45.421875 
L 221.185166 45.421875 
L 221.185166 19.940625 
L 211.725935 19.940625 
z
" clip-path="url(#p69a5c8cb14)" style="fill: #95babf"/>
   </g>
   <g id="patch_21">
    <path d="M 195.172282 300.234375 
L 285.034971 300.234375 
L 285.034971 274.753125 
L 195.172282 274.753125 
z
" clip-path="url(#p69a5c8cb14)" style="fill: #d4d4d4"/>
   </g>
   <g id="patch_22">
    <path d="M 233.009204 249.271875 
L 247.198049 249.271875 
L 247.198049 223.790625 
L 233.009204 223.790625 
z
" clip-path="url(#p69a5c8cb14)" style="fill: #d4d4d4"/>
   </g>
   <g id="patch_23">
    <path d="M 209.361128 198.309375 
L 270.846125 198.309375 
L 270.846125 172.828125 
L 209.361128 172.828125 
z
" clip-path="url(#p69a5c8cb14)" style="fill: #d4d4d4"/>
   </g>
   <g id="patch_24">
    <path d="M 218.820358 147.346875 
L 261.386895 147.346875 
L 261.386895 121.865625 
L 218.820358 121.865625 
z
" clip-path="url(#p69a5c8cb14)" style="fill: #d4d4d4"/>
   </g>
   <g id="patch_25">
    <path d="M 209.361128 96.384375 
L 270.846125 96.384375 
L 270.846125 70.903125 
L 209.361128 70.903125 
z
" clip-path="url(#p69a5c8cb14)" style="fill: #d4d4d4"/>
   </g>
   <g id="patch_26">
    <path d="M 221.185166 45.421875 
L 259.022087 45.421875 
L 259.022087 19.940625 
L 221.185166 19.940625 
z
" clip-path="url(#p69a5c8cb14)" style="fill: #d4d4d4"/>
   </g>
   <g id="patch_27">
    <path d="M 285.034971 300.234375 
L 346.519968 300.234375 
L 346.519968 274.753125 
L 285.034971 274.753125 
z
" clip-path="url(#p69a5c8cb14)" style="fill: #b6c8aa"/>
   </g>
   <g id="patch_28">
    <path d="M 247.198049 249.271875 
L 270.846125 249.271875 
L 270.846125 223.790625 
L 247.198049 223.790625 
z
" clip-path="url(#p69a5c8cb14)" style="fill: #b6c8aa"/>
   </g>
   <g id="patch_29">
    <path d="M 270.846125 198.309375 
L 341.790353 198.309375 
L 341.790353 172.828125 
L 270.846125 172.828125 
z
" clip-path="url(#p69a5c8cb14)" style="fill: #b6c8aa"/>
   </g>
   <g id="patch_30">
    <path d="M 261.386895 147.346875 
L 289.764586 147.346875 
L 289.764586 121.865625 
L 261.386895 121.865625 
z
" clip-path="url(#p69a5c8cb14)" style="fill: #b6c8aa"/>
   </g>
   <g id="patch_31">
    <path d="M 270.846125 96.384375 
L 346.519968 96.384375 
L 346.519968 70.903125 
L 270.846125 70.903125 
z
" clip-path="url(#p69a5c8cb14)" style="fill: #b6c8aa"/>
   </g>
   <g id="patch_32">
    <path d="M 259.022087 45.421875 
L 315.777469 45.421875 
L 315.777469 19.940625 
L 259.022087 19.940625 
z
" clip-path="url(#p69a5c8cb14)" style="fill: #b6c8aa"/>
   </g>
   <g id="patch_33">
    <path d="M 346.519968 300.234375 
L 573.541497 300.234375 
L 573.541497 274.753125 
L 346.519968 274.753125 
z
" clip-path="url(#p69a5c8cb14)" style="fill: #7ea56b"/>
   </g>
   <g id="patch_34">
    <path d="M 270.846125 249.271875 
L 327.601507 249.271875 
L 327.601507 223.790625 
L 270.846125 223.790625 
z
" clip-path="url(#p69a5c8cb14)" style="fill: #7ea56b"/>
   </g>
   <g id="patch_35">
    <path d="M 341.790353 198.309375 
L 639.75611 198.309375 
L 639.75611 172.828125 
L 341.790353 172.828125 
z
" clip-path="url(#p69a5c8cb14)" style="fill: #7ea56b"/>
   </g>
   <g id="patch_36">
    <path d="M 289.764586 147.346875 
L 384.35689 147.346875 
L 384.35689 121.865625 
L 289.764586 121.865625 
z
" clip-path="url(#p69a5c8cb14)" style="fill: #7ea56b"/>
   </g>
   <g id="patch_37">
    <path d="M 346.519968 96.384375 
L 530.974961 96.384375 
L 530.974961 70.903125 
L 346.519968 70.903125 
z
" clip-path="url(#p69a5c8cb14)" style="fill: #7ea56b"/>
   </g>
   <g id="patch_38">
    <path d="M 315.777469 45.421875 
L 367.803237 45.421875 
L 367.803237 19.940625 
L 315.777469 19.940625 
z
" clip-path="url(#p69a5c8cb14)" style="fill: #7ea56b"/>
   </g>
   <g id="matplotlib.axis_1">
    <g id="xtick_1">
     <g id="line2d_2">
      <defs>
       <path id="m667d129014" d="M 0 0 
L 0 3.5 
" style="stroke: #000000; stroke-width: 0.8"/>
      </defs>
      <g>
       <use xlink:href="#m667d129014" x="240.103626" y="312.975" style="stroke: #000000; stroke-width: 0.8"/>
      </g>
     </g>
     <g id="text_1">
      <!-- 0 -->
      <g transform="translate(235.013626 332.1325)scale(0.16 -0.16)">
       <defs>
        <path id="DejaVuSans-30" d="M 2034 4250 
Q 1547 4250 1301 3770 
Q 1056 3291 1056 2328 
Q 1056 1369 1301 889 
Q 1547 409 2034 409 
Q 2525 409 2770 889 
Q 3016 1369 3016 2328 
Q 3016 3291 2770 3770 
Q 2525 4250 2034 4250 
z
M 2034 4750 
Q 2819 4750 3233 4129 
Q 3647 3509 3647 2328 
Q 3647 1150 3233 529 
Q 2819 -91 2034 -91 
Q 1250 -91 836 529 
Q 422 1150 422 2328 
Q 422 3509 836 4129 
Q 1250 4750 2034 4750 
z
" transform="scale(0.015625)"/>
       </defs>
       <use xlink:href="#DejaVuSans-30"/>
      </g>
     </g>
    </g>
    <g id="xtick_2">
     <g id="line2d_3">
      <g>
       <use xlink:href="#m667d129014" x="145.511323" y="312.975" style="stroke: #000000; stroke-width: 0.8"/>
      </g>
     </g>
     <g id="text_2">
      <!-- 20 -->
      <g transform="translate(135.331323 332.1325)scale(0.16 -0.16)">
       <defs>
        <path id="DejaVuSans-32" d="M 1228 531 
L 3431 531 
L 3431 0 
L 469 0 
L 469 531 
Q 828 903 1448 1529 
Q 2069 2156 2228 2338 
Q 2531 2678 2651 2914 
Q 2772 3150 2772 3378 
Q 2772 3750 2511 3984 
Q 2250 4219 1831 4219 
Q 1534 4219 1204 4116 
Q 875 4013 500 3803 
L 500 4441 
Q 881 4594 1212 4672 
Q 1544 4750 1819 4750 
Q 2544 4750 2975 4387 
Q 3406 4025 3406 3419 
Q 3406 3131 3298 2873 
Q 3191 2616 2906 2266 
Q 2828 2175 2409 1742 
Q 1991 1309 1228 531 
z
" transform="scale(0.015625)"/>
       </defs>
       <use xlink:href="#DejaVuSans-32"/>
       <use xlink:href="#DejaVuSans-30" x="63.623047"/>
      </g>
     </g>
    </g>
    <g id="xtick_3">
     <g id="line2d_4">
      <g>
       <use xlink:href="#m667d129014" x="334.69593" y="312.975" style="stroke: #000000; stroke-width: 0.8"/>
      </g>
     </g>
     <g id="text_3">
      <!-- 20 -->
      <g transform="translate(324.51593 332.1325)scale(0.16 -0.16)">
       <use xlink:href="#DejaVuSans-32"/>
       <use xlink:href="#DejaVuSans-30" x="63.623047"/>
      </g>
     </g>
    </g>
    <g id="xtick_4">
     <g id="line2d_5">
      <g>
       <use xlink:href="#m667d129014" x="429.288234" y="312.975" style="stroke: #000000; stroke-width: 0.8"/>
      </g>
     </g>
     <g id="text_4">
      <!-- 40 -->
      <g transform="translate(419.108234 332.1325)scale(0.16 -0.16)">
       <defs>
        <path id="DejaVuSans-34" d="M 2419 4116 
L 825 1625 
L 2419 1625 
L 2419 4116 
z
M 2253 4666 
L 3047 4666 
L 3047 1625 
L 3713 1625 
L 3713 1100 
L 3047 1100 
L 3047 0 
L 2419 0 
L 2419 1100 
L 313 1100 
L 313 1709 
L 2253 4666 
z
" transform="scale(0.015625)"/>
       </defs>
       <use xlink:href="#DejaVuSans-34"/>
       <use xlink:href="#DejaVuSans-30" x="63.623047"/>
      </g>
     </g>
    </g>
    <g id="xtick_5">
     <g id="line2d_6">
      <g>
       <use xlink:href="#m667d129014" x="523.880538" y="312.975" style="stroke: #000000; stroke-width: 0.8"/>
      </g>
     </g>
     <g id="text_5">
      <!-- 60 -->
      <g transform="translate(513.700538 332.1325)scale(0.16 -0.16)">
       <defs>
        <path id="DejaVuSans-36" d="M 2113 2584 
Q 1688 2584 1439 2293 
Q 1191 2003 1191 1497 
Q 1191 994 1439 701 
Q 1688 409 2113 409 
Q 2538 409 2786 701 
Q 3034 994 3034 1497 
Q 3034 2003 2786 2293 
Q 2538 2584 2113 2584 
z
M 3366 4563 
L 3366 3988 
Q 3128 4100 2886 4159 
Q 2644 4219 2406 4219 
Q 1781 4219 1451 3797 
Q 1122 3375 1075 2522 
Q 1259 2794 1537 2939 
Q 1816 3084 2150 3084 
Q 2853 3084 3261 2657 
Q 3669 2231 3669 1497 
Q 3669 778 3244 343 
Q 2819 -91 2113 -91 
Q 1303 -91 875 529 
Q 447 1150 447 2328 
Q 447 3434 972 4092 
Q 1497 4750 2381 4750 
Q 2619 4750 2861 4703 
Q 3103 4656 3366 4563 
z
" transform="scale(0.015625)"/>
       </defs>
       <use xlink:href="#DejaVuSans-36"/>
       <use xlink:href="#DejaVuSans-30" x="63.623047"/>
      </g>
     </g>
    </g>
    <g id="xtick_6">
     <g id="line2d_7">
      <g>
       <use xlink:href="#m667d129014" x="618.472842" y="312.975" style="stroke: #000000; stroke-width: 0.8"/>
      </g>
     </g>
     <g id="text_6">
      <!-- 80 -->
      <g transform="translate(608.292842 332.1325)scale(0.16 -0.16)">
       <defs>
        <path id="DejaVuSans-38" d="M 2034 2216 
Q 1584 2216 1326 1975 
Q 1069 1734 1069 1313 
Q 1069 891 1326 650 
Q 1584 409 2034 409 
Q 2484 409 2743 651 
Q 3003 894 3003 1313 
Q 3003 1734 2745 1975 
Q 2488 2216 2034 2216 
z
M 1403 2484 
Q 997 2584 770 2862 
Q 544 3141 544 3541 
Q 544 4100 942 4425 
Q 1341 4750 2034 4750 
Q 2731 4750 3128 4425 
Q 3525 4100 3525 3541 
Q 3525 3141 3298 2862 
Q 3072 2584 2669 2484 
Q 3125 2378 3379 2068 
Q 3634 1759 3634 1313 
Q 3634 634 3220 271 
Q 2806 -91 2034 -91 
Q 1263 -91 848 271 
Q 434 634 434 1313 
Q 434 1759 690 2068 
Q 947 2378 1403 2484 
z
M 1172 3481 
Q 1172 3119 1398 2916 
Q 1625 2713 2034 2713 
Q 2441 2713 2670 2916 
Q 2900 3119 2900 3481 
Q 2900 3844 2670 4047 
Q 2441 4250 2034 4250 
Q 1625 4250 1398 4047 
Q 1172 3844 1172 3481 
z
" transform="scale(0.015625)"/>
       </defs>
       <use xlink:href="#DejaVuSans-38"/>
       <use xlink:href="#DejaVuSans-30" x="63.623047"/>
      </g>
     </g>
    </g>
    <g id="text_7">
     <!-- Number of Respondents -->
     <g transform="translate(318.31625 351.6175)scale(0.16 -0.16)">
      <defs>
       <path id="DejaVuSans-4e" d="M 628 4666 
L 1478 4666 
L 3547 763 
L 3547 4666 
L 4159 4666 
L 4159 0 
L 3309 0 
L 1241 3903 
L 1241 0 
L 628 0 
L 628 4666 
z
" transform="scale(0.015625)"/>
       <path id="DejaVuSans-75" d="M 544 1381 
L 544 3500 
L 1119 3500 
L 1119 1403 
Q 1119 906 1312 657 
Q 1506 409 1894 409 
Q 2359 409 2629 706 
Q 2900 1003 2900 1516 
L 2900 3500 
L 3475 3500 
L 3475 0 
L 2900 0 
L 2900 538 
Q 2691 219 2414 64 
Q 2138 -91 1772 -91 
Q 1169 -91 856 284 
Q 544 659 544 1381 
z
M 1991 3584 
L 1991 3584 
z
" transform="scale(0.015625)"/>
       <path id="DejaVuSans-6d" d="M 3328 2828 
Q 3544 3216 3844 3400 
Q 4144 3584 4550 3584 
Q 5097 3584 5394 3201 
Q 5691 2819 5691 2113 
L 5691 0 
L 5113 0 
L 5113 2094 
Q 5113 2597 4934 2840 
Q 4756 3084 4391 3084 
Q 3944 3084 3684 2787 
Q 3425 2491 3425 1978 
L 3425 0 
L 2847 0 
L 2847 2094 
Q 2847 2600 2669 2842 
Q 2491 3084 2119 3084 
Q 1678 3084 1418 2786 
Q 1159 2488 1159 1978 
L 1159 0 
L 581 0 
L 581 3500 
L 1159 3500 
L 1159 2956 
Q 1356 3278 1631 3431 
Q 1906 3584 2284 3584 
Q 2666 3584 2933 3390 
Q 3200 3197 3328 2828 
z
" transform="scale(0.015625)"/>
       <path id="DejaVuSans-62" d="M 3116 1747 
Q 3116 2381 2855 2742 
Q 2594 3103 2138 3103 
Q 1681 3103 1420 2742 
Q 1159 2381 1159 1747 
Q 1159 1113 1420 752 
Q 1681 391 2138 391 
Q 2594 391 2855 752 
Q 3116 1113 3116 1747 
z
M 1159 2969 
Q 1341 3281 1617 3432 
Q 1894 3584 2278 3584 
Q 2916 3584 3314 3078 
Q 3713 2572 3713 1747 
Q 3713 922 3314 415 
Q 2916 -91 2278 -91 
Q 1894 -91 1617 61 
Q 1341 213 1159 525 
L 1159 0 
L 581 0 
L 581 4863 
L 1159 4863 
L 1159 2969 
z
" transform="scale(0.015625)"/>
       <path id="DejaVuSans-65" d="M 3597 1894 
L 3597 1613 
L 953 1613 
Q 991 1019 1311 708 
Q 1631 397 2203 397 
Q 2534 397 2845 478 
Q 3156 559 3463 722 
L 3463 178 
Q 3153 47 2828 -22 
Q 2503 -91 2169 -91 
Q 1331 -91 842 396 
Q 353 884 353 1716 
Q 353 2575 817 3079 
Q 1281 3584 2069 3584 
Q 2775 3584 3186 3129 
Q 3597 2675 3597 1894 
z
M 3022 2063 
Q 3016 2534 2758 2815 
Q 2500 3097 2075 3097 
Q 1594 3097 1305 2825 
Q 1016 2553 972 2059 
L 3022 2063 
z
" transform="scale(0.015625)"/>
       <path id="DejaVuSans-72" d="M 2631 2963 
Q 2534 3019 2420 3045 
Q 2306 3072 2169 3072 
Q 1681 3072 1420 2755 
Q 1159 2438 1159 1844 
L 1159 0 
L 581 0 
L 581 3500 
L 1159 3500 
L 1159 2956 
Q 1341 3275 1631 3429 
Q 1922 3584 2338 3584 
Q 2397 3584 2469 3576 
Q 2541 3569 2628 3553 
L 2631 2963 
z
" transform="scale(0.015625)"/>
       <path id="DejaVuSans-20" transform="scale(0.015625)"/>
       <path id="DejaVuSans-6f" d="M 1959 3097 
Q 1497 3097 1228 2736 
Q 959 2375 959 1747 
Q 959 1119 1226 758 
Q 1494 397 1959 397 
Q 2419 397 2687 759 
Q 2956 1122 2956 1747 
Q 2956 2369 2687 2733 
Q 2419 3097 1959 3097 
z
M 1959 3584 
Q 2709 3584 3137 3096 
Q 3566 2609 3566 1747 
Q 3566 888 3137 398 
Q 2709 -91 1959 -91 
Q 1206 -91 779 398 
Q 353 888 353 1747 
Q 353 2609 779 3096 
Q 1206 3584 1959 3584 
z
" transform="scale(0.015625)"/>
       <path id="DejaVuSans-66" d="M 2375 4863 
L 2375 4384 
L 1825 4384 
Q 1516 4384 1395 4259 
Q 1275 4134 1275 3809 
L 1275 3500 
L 2222 3500 
L 2222 3053 
L 1275 3053 
L 1275 0 
L 697 0 
L 697 3053 
L 147 3053 
L 147 3500 
L 697 3500 
L 697 3744 
Q 697 4328 969 4595 
Q 1241 4863 1831 4863 
L 2375 4863 
z
" transform="scale(0.015625)"/>
       <path id="DejaVuSans-52" d="M 2841 2188 
Q 3044 2119 3236 1894 
Q 3428 1669 3622 1275 
L 4263 0 
L 3584 0 
L 2988 1197 
Q 2756 1666 2539 1819 
Q 2322 1972 1947 1972 
L 1259 1972 
L 1259 0 
L 628 0 
L 628 4666 
L 2053 4666 
Q 2853 4666 3247 4331 
Q 3641 3997 3641 3322 
Q 3641 2881 3436 2590 
Q 3231 2300 2841 2188 
z
M 1259 4147 
L 1259 2491 
L 2053 2491 
Q 2509 2491 2742 2702 
Q 2975 2913 2975 3322 
Q 2975 3731 2742 3939 
Q 2509 4147 2053 4147 
L 1259 4147 
z
" transform="scale(0.015625)"/>
       <path id="DejaVuSans-73" d="M 2834 3397 
L 2834 2853 
Q 2591 2978 2328 3040 
Q 2066 3103 1784 3103 
Q 1356 3103 1142 2972 
Q 928 2841 928 2578 
Q 928 2378 1081 2264 
Q 1234 2150 1697 2047 
L 1894 2003 
Q 2506 1872 2764 1633 
Q 3022 1394 3022 966 
Q 3022 478 2636 193 
Q 2250 -91 1575 -91 
Q 1294 -91 989 -36 
Q 684 19 347 128 
L 347 722 
Q 666 556 975 473 
Q 1284 391 1588 391 
Q 1994 391 2212 530 
Q 2431 669 2431 922 
Q 2431 1156 2273 1281 
Q 2116 1406 1581 1522 
L 1381 1569 
Q 847 1681 609 1914 
Q 372 2147 372 2553 
Q 372 3047 722 3315 
Q 1072 3584 1716 3584 
Q 2034 3584 2315 3537 
Q 2597 3491 2834 3397 
z
" transform="scale(0.015625)"/>
       <path id="DejaVuSans-70" d="M 1159 525 
L 1159 -1331 
L 581 -1331 
L 581 3500 
L 1159 3500 
L 1159 2969 
Q 1341 3281 1617 3432 
Q 1894 3584 2278 3584 
Q 2916 3584 3314 3078 
Q 3713 2572 3713 1747 
Q 3713 922 3314 415 
Q 2916 -91 2278 -91 
Q 1894 -91 1617 61 
Q 1341 213 1159 525 
z
M 3116 1747 
Q 3116 2381 2855 2742 
Q 2594 3103 2138 3103 
Q 1681 3103 1420 2742 
Q 1159 2381 1159 1747 
Q 1159 1113 1420 752 
Q 1681 391 2138 391 
Q 2594 391 2855 752 
Q 3116 1113 3116 1747 
z
" transform="scale(0.015625)"/>
       <path id="DejaVuSans-6e" d="M 3513 2113 
L 3513 0 
L 2938 0 
L 2938 2094 
Q 2938 2591 2744 2837 
Q 2550 3084 2163 3084 
Q 1697 3084 1428 2787 
Q 1159 2491 1159 1978 
L 1159 0 
L 581 0 
L 581 3500 
L 1159 3500 
L 1159 2956 
Q 1366 3272 1645 3428 
Q 1925 3584 2291 3584 
Q 2894 3584 3203 3211 
Q 3513 2838 3513 2113 
z
" transform="scale(0.015625)"/>
       <path id="DejaVuSans-64" d="M 2906 2969 
L 2906 4863 
L 3481 4863 
L 3481 0 
L 2906 0 
L 2906 525 
Q 2725 213 2448 61 
Q 2172 -91 1784 -91 
Q 1150 -91 751 415 
Q 353 922 353 1747 
Q 353 2572 751 3078 
Q 1150 3584 1784 3584 
Q 2172 3584 2448 3432 
Q 2725 3281 2906 2969 
z
M 947 1747 
Q 947 1113 1208 752 
Q 1469 391 1925 391 
Q 2381 391 2643 752 
Q 2906 1113 2906 1747 
Q 2906 2381 2643 2742 
Q 2381 3103 1925 3103 
Q 1469 3103 1208 2742 
Q 947 2381 947 1747 
z
" transform="scale(0.015625)"/>
       <path id="DejaVuSans-74" d="M 1172 4494 
L 1172 3500 
L 2356 3500 
L 2356 3053 
L 1172 3053 
L 1172 1153 
Q 1172 725 1289 603 
Q 1406 481 1766 481 
L 2356 481 
L 2356 0 
L 1766 0 
Q 1100 0 847 248 
Q 594 497 594 1153 
L 594 3053 
L 172 3053 
L 172 3500 
L 594 3500 
L 594 4494 
L 1172 4494 
z
" transform="scale(0.015625)"/>
      </defs>
      <use xlink:href="#DejaVuSans-4e"/>
      <use xlink:href="#DejaVuSans-75" x="74.804688"/>
      <use xlink:href="#DejaVuSans-6d" x="138.183594"/>
      <use xlink:href="#DejaVuSans-62" x="235.595703"/>
      <use xlink:href="#DejaVuSans-65" x="299.072266"/>
      <use xlink:href="#DejaVuSans-72" x="360.595703"/>
      <use xlink:href="#DejaVuSans-20" x="401.708984"/>
      <use xlink:href="#DejaVuSans-6f" x="433.496094"/>
      <use xlink:href="#DejaVuSans-66" x="494.677734"/>
      <use xlink:href="#DejaVuSans-20" x="529.882812"/>
      <use xlink:href="#DejaVuSans-52" x="561.669922"/>
      <use xlink:href="#DejaVuSans-65" x="626.652344"/>
      <use xlink:href="#DejaVuSans-73" x="688.175781"/>
      <use xlink:href="#DejaVuSans-70" x="740.275391"/>
      <use xlink:href="#DejaVuSans-6f" x="803.751953"/>
      <use xlink:href="#DejaVuSans-6e" x="864.933594"/>
      <use xlink:href="#DejaVuSans-64" x="928.3125"/>
      <use xlink:href="#DejaVuSans-65" x="991.789062"/>
      <use xlink:href="#DejaVuSans-6e" x="1053.3125"/>
      <use xlink:href="#DejaVuSans-74" x="1116.691406"/>
      <use xlink:href="#DejaVuSans-73" x="1155.900391"/>
     </g>
    </g>
   </g>
   <g id="matplotlib.axis_2">
    <g id="ytick_1">
     <g id="text_8">
      <!-- L Amer &amp; Carib -->
      <g transform="translate(7.2 293.5725)scale(0.16 -0.16)">
       <defs>
        <path id="DejaVuSans-4c" d="M 628 4666 
L 1259 4666 
L 1259 531 
L 3531 531 
L 3531 0 
L 628 0 
L 628 4666 
z
" transform="scale(0.015625)"/>
        <path id="DejaVuSans-41" d="M 2188 4044 
L 1331 1722 
L 3047 1722 
L 2188 4044 
z
M 1831 4666 
L 2547 4666 
L 4325 0 
L 3669 0 
L 3244 1197 
L 1141 1197 
L 716 0 
L 50 0 
L 1831 4666 
z
" transform="scale(0.015625)"/>
        <path id="DejaVuSans-26" d="M 1556 2509 
Q 1272 2256 1139 2004 
Q 1006 1753 1006 1478 
Q 1006 1022 1337 719 
Q 1669 416 2169 416 
Q 2466 416 2725 514 
Q 2984 613 3213 813 
L 1556 2509 
z
M 1997 2859 
L 3584 1234 
Q 3769 1513 3872 1830 
Q 3975 2147 3994 2503 
L 4575 2503 
Q 4538 2091 4375 1687 
Q 4213 1284 3922 891 
L 4794 0 
L 4006 0 
L 3559 459 
Q 3234 181 2878 45 
Q 2522 -91 2113 -91 
Q 1359 -91 881 339 
Q 403 769 403 1441 
Q 403 1841 612 2192 
Q 822 2544 1241 2853 
Q 1091 3050 1012 3245 
Q 934 3441 934 3628 
Q 934 4134 1281 4442 
Q 1628 4750 2203 4750 
Q 2463 4750 2720 4694 
Q 2978 4638 3244 4525 
L 3244 3956 
Q 2972 4103 2725 4179 
Q 2478 4256 2266 4256 
Q 1938 4256 1733 4082 
Q 1528 3909 1528 3634 
Q 1528 3475 1620 3314 
Q 1713 3153 1997 2859 
z
" transform="scale(0.015625)"/>
        <path id="DejaVuSans-43" d="M 4122 4306 
L 4122 3641 
Q 3803 3938 3442 4084 
Q 3081 4231 2675 4231 
Q 1875 4231 1450 3742 
Q 1025 3253 1025 2328 
Q 1025 1406 1450 917 
Q 1875 428 2675 428 
Q 3081 428 3442 575 
Q 3803 722 4122 1019 
L 4122 359 
Q 3791 134 3420 21 
Q 3050 -91 2638 -91 
Q 1578 -91 968 557 
Q 359 1206 359 2328 
Q 359 3453 968 4101 
Q 1578 4750 2638 4750 
Q 3056 4750 3426 4639 
Q 3797 4528 4122 4306 
z
" transform="scale(0.015625)"/>
        <path id="DejaVuSans-61" d="M 2194 1759 
Q 1497 1759 1228 1600 
Q 959 1441 959 1056 
Q 959 750 1161 570 
Q 1363 391 1709 391 
Q 2188 391 2477 730 
Q 2766 1069 2766 1631 
L 2766 1759 
L 2194 1759 
z
M 3341 1997 
L 3341 0 
L 2766 0 
L 2766 531 
Q 2569 213 2275 61 
Q 1981 -91 1556 -91 
Q 1019 -91 701 211 
Q 384 513 384 1019 
Q 384 1609 779 1909 
Q 1175 2209 1959 2209 
L 2766 2209 
L 2766 2266 
Q 2766 2663 2505 2880 
Q 2244 3097 1772 3097 
Q 1472 3097 1187 3025 
Q 903 2953 641 2809 
L 641 3341 
Q 956 3463 1253 3523 
Q 1550 3584 1831 3584 
Q 2591 3584 2966 3190 
Q 3341 2797 3341 1997 
z
" transform="scale(0.015625)"/>
        <path id="DejaVuSans-69" d="M 603 3500 
L 1178 3500 
L 1178 0 
L 603 0 
L 603 3500 
z
M 603 4863 
L 1178 4863 
L 1178 4134 
L 603 4134 
L 603 4863 
z
" transform="scale(0.015625)"/>
       </defs>
       <use xlink:href="#DejaVuSans-4c"/>
       <use xlink:href="#DejaVuSans-20" x="55.712891"/>
       <use xlink:href="#DejaVuSans-41" x="87.5"/>
       <use xlink:href="#DejaVuSans-6d" x="155.908203"/>
       <use xlink:href="#DejaVuSans-65" x="253.320312"/>
       <use xlink:href="#DejaVuSans-72" x="314.84375"/>
       <use xlink:href="#DejaVuSans-20" x="355.957031"/>
       <use xlink:href="#DejaVuSans-26" x="387.744141"/>
       <use xlink:href="#DejaVuSans-20" x="465.722656"/>
       <use xlink:href="#DejaVuSans-43" x="497.509766"/>
       <use xlink:href="#DejaVuSans-61" x="567.333984"/>
       <use xlink:href="#DejaVuSans-72" x="628.613281"/>
       <use xlink:href="#DejaVuSans-69" x="669.726562"/>
       <use xlink:href="#DejaVuSans-62" x="697.509766"/>
      </g>
     </g>
    </g>
    <g id="ytick_2">
     <g id="text_9">
      <!-- Oceania -->
      <g transform="translate(63.525 242.61)scale(0.16 -0.16)">
       <defs>
        <path id="DejaVuSans-4f" d="M 2522 4238 
Q 1834 4238 1429 3725 
Q 1025 3213 1025 2328 
Q 1025 1447 1429 934 
Q 1834 422 2522 422 
Q 3209 422 3611 934 
Q 4013 1447 4013 2328 
Q 4013 3213 3611 3725 
Q 3209 4238 2522 4238 
z
M 2522 4750 
Q 3503 4750 4090 4092 
Q 4678 3434 4678 2328 
Q 4678 1225 4090 567 
Q 3503 -91 2522 -91 
Q 1538 -91 948 565 
Q 359 1222 359 2328 
Q 359 3434 948 4092 
Q 1538 4750 2522 4750 
z
" transform="scale(0.015625)"/>
        <path id="DejaVuSans-63" d="M 3122 3366 
L 3122 2828 
Q 2878 2963 2633 3030 
Q 2388 3097 2138 3097 
Q 1578 3097 1268 2742 
Q 959 2388 959 1747 
Q 959 1106 1268 751 
Q 1578 397 2138 397 
Q 2388 397 2633 464 
Q 2878 531 3122 666 
L 3122 134 
Q 2881 22 2623 -34 
Q 2366 -91 2075 -91 
Q 1284 -91 818 406 
Q 353 903 353 1747 
Q 353 2603 823 3093 
Q 1294 3584 2113 3584 
Q 2378 3584 2631 3529 
Q 2884 3475 3122 3366 
z
" transform="scale(0.015625)"/>
       </defs>
       <use xlink:href="#DejaVuSans-4f"/>
       <use xlink:href="#DejaVuSans-63" x="78.710938"/>
       <use xlink:href="#DejaVuSans-65" x="133.691406"/>
       <use xlink:href="#DejaVuSans-61" x="195.214844"/>
       <use xlink:href="#DejaVuSans-6e" x="256.494141"/>
       <use xlink:href="#DejaVuSans-69" x="319.873047"/>
       <use xlink:href="#DejaVuSans-61" x="347.65625"/>
      </g>
     </g>
    </g>
    <g id="ytick_3">
     <g id="text_10">
      <!-- Africa -->
      <g transform="translate(83.335 191.6475)scale(0.16 -0.16)">
       <use xlink:href="#DejaVuSans-41"/>
       <use xlink:href="#DejaVuSans-66" x="64.783203"/>
       <use xlink:href="#DejaVuSans-72" x="99.988281"/>
       <use xlink:href="#DejaVuSans-69" x="141.101562"/>
       <use xlink:href="#DejaVuSans-63" x="168.884766"/>
       <use xlink:href="#DejaVuSans-61" x="223.865234"/>
      </g>
     </g>
    </g>
    <g id="ytick_4">
     <g id="text_11">
      <!-- N America -->
      <g transform="translate(45.9025 140.685)scale(0.16 -0.16)">
       <use xlink:href="#DejaVuSans-4e"/>
       <use xlink:href="#DejaVuSans-20" x="74.804688"/>
       <use xlink:href="#DejaVuSans-41" x="106.591797"/>
       <use xlink:href="#DejaVuSans-6d" x="175"/>
       <use xlink:href="#DejaVuSans-65" x="272.412109"/>
       <use xlink:href="#DejaVuSans-72" x="333.935547"/>
       <use xlink:href="#DejaVuSans-69" x="375.048828"/>
       <use xlink:href="#DejaVuSans-63" x="402.832031"/>
       <use xlink:href="#DejaVuSans-61" x="457.8125"/>
      </g>
     </g>
    </g>
    <g id="ytick_5">
     <g id="text_12">
      <!-- Asia -->
      <g transform="translate(95.4275 89.7225)scale(0.16 -0.16)">
       <use xlink:href="#DejaVuSans-41"/>
       <use xlink:href="#DejaVuSans-73" x="68.408203"/>
       <use xlink:href="#DejaVuSans-69" x="120.507812"/>
       <use xlink:href="#DejaVuSans-61" x="148.291016"/>
      </g>
     </g>
    </g>
    <g id="ytick_6">
     <g id="text_13">
      <!-- Europe -->
      <g transform="translate(72.6975 38.76)scale(0.16 -0.16)">
       <defs>
        <path id="DejaVuSans-45" d="M 628 4666 
L 3578 4666 
L 3578 4134 
L 1259 4134 
L 1259 2753 
L 3481 2753 
L 3481 2222 
L 1259 2222 
L 1259 531 
L 3634 531 
L 3634 0 
L 628 0 
L 628 4666 
z
" transform="scale(0.015625)"/>
       </defs>
       <use xlink:href="#DejaVuSans-45"/>
       <use xlink:href="#DejaVuSans-75" x="63.183594"/>
       <use xlink:href="#DejaVuSans-72" x="126.5625"/>
       <use xlink:href="#DejaVuSans-6f" x="165.425781"/>
       <use xlink:href="#DejaVuSans-70" x="226.607422"/>
       <use xlink:href="#DejaVuSans-65" x="290.083984"/>
      </g>
     </g>
    </g>
   </g>
   <g id="patch_39">
    <path d="M 135.9575 312.975 
L 693.9575 312.975 
" style="fill: none; stroke: #000000; stroke-width: 0.8; stroke-linejoin: miter; stroke-linecap: square"/>
   </g>
  </g>
 </g>
 <defs>
  <clipPath id="p69a5c8cb14">
   <rect x="135.9575" y="7.2" width="558" height="305.775"/>
  </clipPath>
 </defs>
</svg>
