<?xml version="1.0" encoding="utf-8" standalone="no"?>
<!DOCTYPE svg PUBLIC "-//W3C//DTD SVG 1.1//EN"
  "http://www.w3.org/Graphics/SVG/1.1/DTD/svg11.dtd">
<svg xmlns:xlink="http://www.w3.org/1999/xlink" width="764.149375pt" height="344.523594pt" viewBox="0 0 764.149375 344.523594" xmlns="http://www.w3.org/2000/svg" version="1.1">
 <metadata>
  <rdf:RDF xmlns:dc="http://purl.org/dc/elements/1.1/" xmlns:cc="http://creativecommons.org/ns#" xmlns:rdf="http://www.w3.org/1999/02/22-rdf-syntax-ns#">
   <cc:Work>
    <dc:type rdf:resource="http://purl.org/dc/dcmitype/StillImage"/>
    <dc:date>2022-08-02T09:32:25.714920</dc:date>
    <dc:format>image/svg+xml</dc:format>
    <dc:creator>
     <cc:Agent>
      <dc:title>Matplotlib v3.5.1, https://matplotlib.org/</dc:title>
     </cc:Agent>
    </dc:creator>
   </cc:Work>
  </rdf:RDF>
 </metadata>
 <defs>
  <style type="text/css">*{stroke-linejoin: round; stroke-linecap: butt}</style>
 </defs>
 <g id="figure_1">
  <g id="patch_1">
   <path d="M 0 344.523594 
L 764.149375 344.523594 
L 764.149375 0 
L 0 0 
L 0 344.523594 
z
" style="fill: none"/>
  </g>
  <g id="axes_1">
   <g id="patch_2">
    <path d="M 50.836875 316.774219 
L 608.836875 316.774219 
L 608.836875 10.999219 
L 50.836875 10.999219 
L 50.836875 316.774219 
z
" style="fill: none"/>
   </g>
   <g id="patch_3">
    <path d="M 60.136875 316.774219 
L 70.765446 316.774219 
L 70.765446 50.872279 
L 60.136875 50.872279 
z
" clip-path="url(#p678e580be2)" style="fill: #214550; stroke: #ffffff; stroke-linejoin: miter"/>
   </g>
   <g id="patch_4">
    <path d="M 153.136875 316.774219 
L 163.765446 316.774219 
L 163.765446 82.336526 
L 153.136875 82.336526 
z
" clip-path="url(#p678e580be2)" style="fill: #214550; stroke: #ffffff; stroke-linejoin: miter"/>
   </g>
   <g id="patch_5">
    <path d="M 246.136875 316.774219 
L 256.765446 316.774219 
L 256.765446 72.154219 
L 246.136875 72.154219 
z
" clip-path="url(#p678e580be2)" style="fill: #214550; stroke: #ffffff; stroke-linejoin: miter"/>
   </g>
   <g id="patch_6">
    <path d="M 339.136875 316.774219 
L 349.765446 316.774219 
L 349.765446 247.271561 
L 339.136875 247.271561 
z
" clip-path="url(#p678e580be2)" style="fill: #214550; stroke: #ffffff; stroke-linejoin: miter"/>
   </g>
   <g id="patch_7">
    <path d="M 432.136875 316.774219 
L 442.765446 316.774219 
L 442.765446 185.719054 
L 432.136875 185.719054 
z
" clip-path="url(#p678e580be2)" style="fill: #214550; stroke: #ffffff; stroke-linejoin: miter"/>
   </g>
   <g id="patch_8">
    <path d="M 525.136875 316.774219 
L 535.765446 316.774219 
L 535.765446 176.117719 
L 525.136875 176.117719 
z
" clip-path="url(#p678e580be2)" style="fill: #214550; stroke: #ffffff; stroke-linejoin: miter"/>
   </g>
   <g id="patch_9">
    <path d="M 70.765446 316.774219 
L 81.394018 316.774219 
L 81.394018 77.474704 
L 70.765446 77.474704 
z
" clip-path="url(#p678e580be2)" style="fill: #b7795b; stroke: #ffffff; stroke-linejoin: miter"/>
   </g>
   <g id="patch_10">
    <path d="M 163.765446 316.774219 
L 174.394018 316.774219 
L 174.394018 92.549411 
L 163.765446 92.549411 
z
" clip-path="url(#p678e580be2)" style="fill: #b7795b; stroke: #ffffff; stroke-linejoin: miter"/>
   </g>
   <g id="patch_11">
    <path d="M 256.765446 316.774219 
L 267.394018 316.774219 
L 267.394018 133.309219 
L 256.765446 133.309219 
z
" clip-path="url(#p678e580be2)" style="fill: #b7795b; stroke: #ffffff; stroke-linejoin: miter"/>
   </g>
   <g id="patch_12">
    <path d="M 349.765446 316.774219 
L 360.394018 316.774219 
L 360.394018 205.594429 
L 349.765446 205.594429 
z
" clip-path="url(#p678e580be2)" style="fill: #b7795b; stroke: #ffffff; stroke-linejoin: miter"/>
   </g>
   <g id="patch_13">
    <path d="M 442.765446 316.774219 
L 453.394018 316.774219 
L 453.394018 131.138216 
L 442.765446 131.138216 
z
" clip-path="url(#p678e580be2)" style="fill: #b7795b; stroke: #ffffff; stroke-linejoin: miter"/>
   </g>
   <g id="patch_14">
    <path d="M 535.765446 316.774219 
L 546.394018 316.774219 
L 546.394018 127.193719 
L 535.765446 127.193719 
z
" clip-path="url(#p678e580be2)" style="fill: #b7795b; stroke: #ffffff; stroke-linejoin: miter"/>
   </g>
   <g id="patch_15">
    <path d="M 81.394018 316.774219 
L 92.022589 316.774219 
L 92.022589 90.775916 
L 81.394018 90.775916 
z
" clip-path="url(#p678e580be2)" style="fill: #ccb873; stroke: #ffffff; stroke-linejoin: miter"/>
   </g>
   <g id="patch_16">
    <path d="M 174.394018 316.774219 
L 185.022589 316.774219 
L 185.022589 133.309219 
L 174.394018 133.309219 
z
" clip-path="url(#p678e580be2)" style="fill: #ccb873; stroke: #ffffff; stroke-linejoin: miter"/>
   </g>
   <g id="patch_17">
    <path d="M 267.394018 316.774219 
L 278.022589 316.774219 
L 278.022589 72.154219 
L 267.394018 72.154219 
z
" clip-path="url(#p678e580be2)" style="fill: #ccb873; stroke: #ffffff; stroke-linejoin: miter"/>
   </g>
   <g id="patch_18">
    <path d="M 360.394018 316.774219 
L 371.022589 316.774219 
L 371.022589 261.184324 
L 360.394018 261.184324 
z
" clip-path="url(#p678e580be2)" style="fill: #ccb873; stroke: #ffffff; stroke-linejoin: miter"/>
   </g>
   <g id="patch_19">
    <path d="M 453.394018 316.774219 
L 464.022589 316.774219 
L 464.022589 163.886719 
L 453.394018 163.886719 
z
" clip-path="url(#p678e580be2)" style="fill: #ccb873; stroke: #ffffff; stroke-linejoin: miter"/>
   </g>
   <g id="patch_20">
    <path d="M 546.394018 316.774219 
L 557.022589 316.774219 
L 557.022589 170.002219 
L 546.394018 170.002219 
z
" clip-path="url(#p678e580be2)" style="fill: #ccb873; stroke: #ffffff; stroke-linejoin: miter"/>
   </g>
   <g id="patch_21">
    <path d="M 92.022589 316.774219 
L 102.651161 316.774219 
L 102.651161 64.173491 
L 92.022589 64.173491 
z
" clip-path="url(#p678e580be2)" style="fill: #428389; stroke: #ffffff; stroke-linejoin: miter"/>
   </g>
   <g id="patch_22">
    <path d="M 185.022589 316.774219 
L 195.651161 316.774219 
L 195.651161 123.126911 
L 185.022589 123.126911 
z
" clip-path="url(#p678e580be2)" style="fill: #428389; stroke: #ffffff; stroke-linejoin: miter"/>
   </g>
   <g id="patch_23">
    <path d="M 278.022589 316.774219 
L 288.651161 316.774219 
L 288.651161 133.309219 
L 278.022589 133.309219 
z
" clip-path="url(#p678e580be2)" style="fill: #428389; stroke: #ffffff; stroke-linejoin: miter"/>
   </g>
   <g id="patch_24">
    <path d="M 371.022589 316.774219 
L 381.651161 316.774219 
L 381.651161 219.476614 
L 371.022589 219.476614 
z
" clip-path="url(#p678e580be2)" style="fill: #428389; stroke: #ffffff; stroke-linejoin: miter"/>
   </g>
   <g id="patch_25">
    <path d="M 464.022589 316.774219 
L 474.651161 316.774219 
L 474.651161 152.970551 
L 464.022589 152.970551 
z
" clip-path="url(#p678e580be2)" style="fill: #428389; stroke: #ffffff; stroke-linejoin: miter"/>
   </g>
   <g id="patch_26">
    <path d="M 557.022589 316.774219 
L 567.651161 316.774219 
L 567.651161 170.002219 
L 557.022589 170.002219 
z
" clip-path="url(#p678e580be2)" style="fill: #428389; stroke: #ffffff; stroke-linejoin: miter"/>
   </g>
   <g id="patch_27">
    <path d="M 102.651161 316.774219 
L 113.279732 316.774219 
L 113.279732 77.474704 
L 102.651161 77.474704 
z
" clip-path="url(#p678e580be2)" style="fill: #434370; stroke: #ffffff; stroke-linejoin: miter"/>
   </g>
   <g id="patch_28">
    <path d="M 195.651161 316.774219 
L 206.279732 316.774219 
L 206.279732 153.704411 
L 195.651161 153.704411 
z
" clip-path="url(#p678e580be2)" style="fill: #434370; stroke: #ffffff; stroke-linejoin: miter"/>
   </g>
   <g id="patch_29">
    <path d="M 288.651161 316.774219 
L 299.279732 316.774219 
L 299.279732 72.154219 
L 288.651161 72.154219 
z
" clip-path="url(#p678e580be2)" style="fill: #434370; stroke: #ffffff; stroke-linejoin: miter"/>
   </g>
   <g id="patch_30">
    <path d="M 381.651161 316.774219 
L 392.279732 316.774219 
L 392.279732 191.681666 
L 381.651161 191.681666 
z
" clip-path="url(#p678e580be2)" style="fill: #434370; stroke: #ffffff; stroke-linejoin: miter"/>
   </g>
   <g id="patch_31">
    <path d="M 474.651161 316.774219 
L 485.279732 316.774219 
L 485.279732 163.886719 
L 474.651161 163.886719 
z
" clip-path="url(#p678e580be2)" style="fill: #434370; stroke: #ffffff; stroke-linejoin: miter"/>
   </g>
   <g id="patch_32">
    <path d="M 567.651161 316.774219 
L 578.279732 316.774219 
L 578.279732 218.926219 
L 567.651161 218.926219 
z
" clip-path="url(#p678e580be2)" style="fill: #434370; stroke: #ffffff; stroke-linejoin: miter"/>
   </g>
   <g id="patch_33">
    <path d="M 113.279732 316.774219 
L 123.908304 316.774219 
L 123.908304 104.046551 
L 113.279732 104.046551 
z
" clip-path="url(#p678e580be2)" style="fill: #809e72; stroke: #ffffff; stroke-linejoin: miter"/>
   </g>
   <g id="patch_34">
    <path d="M 206.279732 316.774219 
L 216.908304 316.774219 
L 216.908304 143.491526 
L 206.279732 143.491526 
z
" clip-path="url(#p678e580be2)" style="fill: #809e72; stroke: #ffffff; stroke-linejoin: miter"/>
   </g>
   <g id="patch_35">
    <path d="M 299.279732 316.774219 
L 309.908304 316.774219 
L 309.908304 72.154219 
L 299.279732 72.154219 
z
" clip-path="url(#p678e580be2)" style="fill: #809e72; stroke: #ffffff; stroke-linejoin: miter"/>
   </g>
   <g id="patch_36">
    <path d="M 392.279732 316.774219 
L 402.908304 316.774219 
L 402.908304 170.827811 
L 392.279732 170.827811 
z
" clip-path="url(#p678e580be2)" style="fill: #809e72; stroke: #ffffff; stroke-linejoin: miter"/>
   </g>
   <g id="patch_37">
    <path d="M 485.279732 316.774219 
L 495.908304 316.774219 
L 495.908304 109.275304 
L 485.279732 109.275304 
z
" clip-path="url(#p678e580be2)" style="fill: #809e72; stroke: #ffffff; stroke-linejoin: miter"/>
   </g>
   <g id="patch_38">
    <path d="M 578.279732 316.774219 
L 588.908304 316.774219 
L 588.908304 145.540219 
L 578.279732 145.540219 
z
" clip-path="url(#p678e580be2)" style="fill: #809e72; stroke: #ffffff; stroke-linejoin: miter"/>
   </g>
   <g id="patch_39">
    <path d="M 123.908304 316.774219 
L 134.536875 316.774219 
L 134.536875 77.474704 
L 123.908304 77.474704 
z
" clip-path="url(#p678e580be2)" style="fill: #091d3c; stroke: #ffffff; stroke-linejoin: miter"/>
   </g>
   <g id="patch_40">
    <path d="M 216.908304 316.774219 
L 227.536875 316.774219 
L 227.536875 174.069026 
L 216.908304 174.069026 
z
" clip-path="url(#p678e580be2)" style="fill: #091d3c; stroke: #ffffff; stroke-linejoin: miter"/>
   </g>
   <g id="patch_41">
    <path d="M 309.908304 316.774219 
L 320.536875 316.774219 
L 320.536875 133.309219 
L 309.908304 133.309219 
z
" clip-path="url(#p678e580be2)" style="fill: #091d3c; stroke: #ffffff; stroke-linejoin: miter"/>
   </g>
   <g id="patch_42">
    <path d="M 402.908304 316.774219 
L 413.536875 316.774219 
L 413.536875 295.920364 
L 402.908304 295.920364 
z
" clip-path="url(#p678e580be2)" style="fill: #091d3c; stroke: #ffffff; stroke-linejoin: miter"/>
   </g>
   <g id="patch_43">
    <path d="M 495.908304 316.774219 
L 506.536875 316.774219 
L 506.536875 229.414301 
L 495.908304 229.414301 
z
" clip-path="url(#p678e580be2)" style="fill: #091d3c; stroke: #ffffff; stroke-linejoin: miter"/>
   </g>
   <g id="patch_44">
    <path d="M 588.908304 316.774219 
L 599.536875 316.774219 
L 599.536875 231.157219 
L 588.908304 231.157219 
z
" clip-path="url(#p678e580be2)" style="fill: #091d3c; stroke: #ffffff; stroke-linejoin: miter"/>
   </g>
   <g id="matplotlib.axis_1">
    <g id="xtick_1">
     <g id="line2d_1">
      <defs>
       <path id="ma2023b862c" d="M 0 0 
L 0 3.5 
" style="stroke: #000000; stroke-width: 0.8"/>
      </defs>
      <g>
       <use xlink:href="#ma2023b862c" x="97.336875" y="316.774219" style="stroke: #000000; stroke-width: 0.8"/>
      </g>
     </g>
     <g id="text_1">
      <!-- Europe -->
      <g transform="translate(72.723125 334.412031)scale(0.14 -0.14)">
       <defs>
        <path id="DejaVuSans-45" d="M 628 4666 
L 3578 4666 
L 3578 4134 
L 1259 4134 
L 1259 2753 
L 3481 2753 
L 3481 2222 
L 1259 2222 
L 1259 531 
L 3634 531 
L 3634 0 
L 628 0 
L 628 4666 
z
" transform="scale(0.015625)"/>
        <path id="DejaVuSans-75" d="M 544 1381 
L 544 3500 
L 1119 3500 
L 1119 1403 
Q 1119 906 1312 657 
Q 1506 409 1894 409 
Q 2359 409 2629 706 
Q 2900 1003 2900 1516 
L 2900 3500 
L 3475 3500 
L 3475 0 
L 2900 0 
L 2900 538 
Q 2691 219 2414 64 
Q 2138 -91 1772 -91 
Q 1169 -91 856 284 
Q 544 659 544 1381 
z
M 1991 3584 
L 1991 3584 
z
" transform="scale(0.015625)"/>
        <path id="DejaVuSans-72" d="M 2631 2963 
Q 2534 3019 2420 3045 
Q 2306 3072 2169 3072 
Q 1681 3072 1420 2755 
Q 1159 2438 1159 1844 
L 1159 0 
L 581 0 
L 581 3500 
L 1159 3500 
L 1159 2956 
Q 1341 3275 1631 3429 
Q 1922 3584 2338 3584 
Q 2397 3584 2469 3576 
Q 2541 3569 2628 3553 
L 2631 2963 
z
" transform="scale(0.015625)"/>
        <path id="DejaVuSans-6f" d="M 1959 3097 
Q 1497 3097 1228 2736 
Q 959 2375 959 1747 
Q 959 1119 1226 758 
Q 1494 397 1959 397 
Q 2419 397 2687 759 
Q 2956 1122 2956 1747 
Q 2956 2369 2687 2733 
Q 2419 3097 1959 3097 
z
M 1959 3584 
Q 2709 3584 3137 3096 
Q 3566 2609 3566 1747 
Q 3566 888 3137 398 
Q 2709 -91 1959 -91 
Q 1206 -91 779 398 
Q 353 888 353 1747 
Q 353 2609 779 3096 
Q 1206 3584 1959 3584 
z
" transform="scale(0.015625)"/>
        <path id="DejaVuSans-70" d="M 1159 525 
L 1159 -1331 
L 581 -1331 
L 581 3500 
L 1159 3500 
L 1159 2969 
Q 1341 3281 1617 3432 
Q 1894 3584 2278 3584 
Q 2916 3584 3314 3078 
Q 3713 2572 3713 1747 
Q 3713 922 3314 415 
Q 2916 -91 2278 -91 
Q 1894 -91 1617 61 
Q 1341 213 1159 525 
z
M 3116 1747 
Q 3116 2381 2855 2742 
Q 2594 3103 2138 3103 
Q 1681 3103 1420 2742 
Q 1159 2381 1159 1747 
Q 1159 1113 1420 752 
Q 1681 391 2138 391 
Q 2594 391 2855 752 
Q 3116 1113 3116 1747 
z
" transform="scale(0.015625)"/>
        <path id="DejaVuSans-65" d="M 3597 1894 
L 3597 1613 
L 953 1613 
Q 991 1019 1311 708 
Q 1631 397 2203 397 
Q 2534 397 2845 478 
Q 3156 559 3463 722 
L 3463 178 
Q 3153 47 2828 -22 
Q 2503 -91 2169 -91 
Q 1331 -91 842 396 
Q 353 884 353 1716 
Q 353 2575 817 3079 
Q 1281 3584 2069 3584 
Q 2775 3584 3186 3129 
Q 3597 2675 3597 1894 
z
M 3022 2063 
Q 3016 2534 2758 2815 
Q 2500 3097 2075 3097 
Q 1594 3097 1305 2825 
Q 1016 2553 972 2059 
L 3022 2063 
z
" transform="scale(0.015625)"/>
       </defs>
       <use xlink:href="#DejaVuSans-45"/>
       <use xlink:href="#DejaVuSans-75" x="63.183594"/>
       <use xlink:href="#DejaVuSans-72" x="126.5625"/>
       <use xlink:href="#DejaVuSans-6f" x="165.425781"/>
       <use xlink:href="#DejaVuSans-70" x="226.607422"/>
       <use xlink:href="#DejaVuSans-65" x="290.083984"/>
      </g>
     </g>
    </g>
    <g id="xtick_2">
     <g id="line2d_2">
      <g>
       <use xlink:href="#ma2023b862c" x="190.336875" y="316.774219" style="stroke: #000000; stroke-width: 0.8"/>
      </g>
     </g>
     <g id="text_2">
      <!-- Asia -->
      <g transform="translate(175.6675 334.412031)scale(0.14 -0.14)">
       <defs>
        <path id="DejaVuSans-41" d="M 2188 4044 
L 1331 1722 
L 3047 1722 
L 2188 4044 
z
M 1831 4666 
L 2547 4666 
L 4325 0 
L 3669 0 
L 3244 1197 
L 1141 1197 
L 716 0 
L 50 0 
L 1831 4666 
z
" transform="scale(0.015625)"/>
        <path id="DejaVuSans-73" d="M 2834 3397 
L 2834 2853 
Q 2591 2978 2328 3040 
Q 2066 3103 1784 3103 
Q 1356 3103 1142 2972 
Q 928 2841 928 2578 
Q 928 2378 1081 2264 
Q 1234 2150 1697 2047 
L 1894 2003 
Q 2506 1872 2764 1633 
Q 3022 1394 3022 966 
Q 3022 478 2636 193 
Q 2250 -91 1575 -91 
Q 1294 -91 989 -36 
Q 684 19 347 128 
L 347 722 
Q 666 556 975 473 
Q 1284 391 1588 391 
Q 1994 391 2212 530 
Q 2431 669 2431 922 
Q 2431 1156 2273 1281 
Q 2116 1406 1581 1522 
L 1381 1569 
Q 847 1681 609 1914 
Q 372 2147 372 2553 
Q 372 3047 722 3315 
Q 1072 3584 1716 3584 
Q 2034 3584 2315 3537 
Q 2597 3491 2834 3397 
z
" transform="scale(0.015625)"/>
        <path id="DejaVuSans-69" d="M 603 3500 
L 1178 3500 
L 1178 0 
L 603 0 
L 603 3500 
z
M 603 4863 
L 1178 4863 
L 1178 4134 
L 603 4134 
L 603 4863 
z
" transform="scale(0.015625)"/>
        <path id="DejaVuSans-61" d="M 2194 1759 
Q 1497 1759 1228 1600 
Q 959 1441 959 1056 
Q 959 750 1161 570 
Q 1363 391 1709 391 
Q 2188 391 2477 730 
Q 2766 1069 2766 1631 
L 2766 1759 
L 2194 1759 
z
M 3341 1997 
L 3341 0 
L 2766 0 
L 2766 531 
Q 2569 213 2275 61 
Q 1981 -91 1556 -91 
Q 1019 -91 701 211 
Q 384 513 384 1019 
Q 384 1609 779 1909 
Q 1175 2209 1959 2209 
L 2766 2209 
L 2766 2266 
Q 2766 2663 2505 2880 
Q 2244 3097 1772 3097 
Q 1472 3097 1187 3025 
Q 903 2953 641 2809 
L 641 3341 
Q 956 3463 1253 3523 
Q 1550 3584 1831 3584 
Q 2591 3584 2966 3190 
Q 3341 2797 3341 1997 
z
" transform="scale(0.015625)"/>
       </defs>
       <use xlink:href="#DejaVuSans-41"/>
       <use xlink:href="#DejaVuSans-73" x="68.408203"/>
       <use xlink:href="#DejaVuSans-69" x="120.507812"/>
       <use xlink:href="#DejaVuSans-61" x="148.291016"/>
      </g>
     </g>
    </g>
    <g id="xtick_3">
     <g id="line2d_3">
      <g>
       <use xlink:href="#ma2023b862c" x="283.336875" y="316.774219" style="stroke: #000000; stroke-width: 0.8"/>
      </g>
     </g>
     <g id="text_3">
      <!-- N America -->
      <g transform="translate(247.000313 334.412031)scale(0.14 -0.14)">
       <defs>
        <path id="DejaVuSans-4e" d="M 628 4666 
L 1478 4666 
L 3547 763 
L 3547 4666 
L 4159 4666 
L 4159 0 
L 3309 0 
L 1241 3903 
L 1241 0 
L 628 0 
L 628 4666 
z
" transform="scale(0.015625)"/>
        <path id="DejaVuSans-20" transform="scale(0.015625)"/>
        <path id="DejaVuSans-6d" d="M 3328 2828 
Q 3544 3216 3844 3400 
Q 4144 3584 4550 3584 
Q 5097 3584 5394 3201 
Q 5691 2819 5691 2113 
L 5691 0 
L 5113 0 
L 5113 2094 
Q 5113 2597 4934 2840 
Q 4756 3084 4391 3084 
Q 3944 3084 3684 2787 
Q 3425 2491 3425 1978 
L 3425 0 
L 2847 0 
L 2847 2094 
Q 2847 2600 2669 2842 
Q 2491 3084 2119 3084 
Q 1678 3084 1418 2786 
Q 1159 2488 1159 1978 
L 1159 0 
L 581 0 
L 581 3500 
L 1159 3500 
L 1159 2956 
Q 1356 3278 1631 3431 
Q 1906 3584 2284 3584 
Q 2666 3584 2933 3390 
Q 3200 3197 3328 2828 
z
" transform="scale(0.015625)"/>
        <path id="DejaVuSans-63" d="M 3122 3366 
L 3122 2828 
Q 2878 2963 2633 3030 
Q 2388 3097 2138 3097 
Q 1578 3097 1268 2742 
Q 959 2388 959 1747 
Q 959 1106 1268 751 
Q 1578 397 2138 397 
Q 2388 397 2633 464 
Q 2878 531 3122 666 
L 3122 134 
Q 2881 22 2623 -34 
Q 2366 -91 2075 -91 
Q 1284 -91 818 406 
Q 353 903 353 1747 
Q 353 2603 823 3093 
Q 1294 3584 2113 3584 
Q 2378 3584 2631 3529 
Q 2884 3475 3122 3366 
z
" transform="scale(0.015625)"/>
       </defs>
       <use xlink:href="#DejaVuSans-4e"/>
       <use xlink:href="#DejaVuSans-20" x="74.804688"/>
       <use xlink:href="#DejaVuSans-41" x="106.591797"/>
       <use xlink:href="#DejaVuSans-6d" x="175"/>
       <use xlink:href="#DejaVuSans-65" x="272.412109"/>
       <use xlink:href="#DejaVuSans-72" x="333.935547"/>
       <use xlink:href="#DejaVuSans-69" x="375.048828"/>
       <use xlink:href="#DejaVuSans-63" x="402.832031"/>
       <use xlink:href="#DejaVuSans-61" x="457.8125"/>
      </g>
     </g>
    </g>
    <g id="xtick_4">
     <g id="line2d_4">
      <g>
       <use xlink:href="#ma2023b862c" x="376.336875" y="316.774219" style="stroke: #000000; stroke-width: 0.8"/>
      </g>
     </g>
     <g id="text_4">
      <!-- Africa -->
      <g transform="translate(356.377031 334.412031)scale(0.14 -0.14)">
       <defs>
        <path id="DejaVuSans-66" d="M 2375 4863 
L 2375 4384 
L 1825 4384 
Q 1516 4384 1395 4259 
Q 1275 4134 1275 3809 
L 1275 3500 
L 2222 3500 
L 2222 3053 
L 1275 3053 
L 1275 0 
L 697 0 
L 697 3053 
L 147 3053 
L 147 3500 
L 697 3500 
L 697 3744 
Q 697 4328 969 4595 
Q 1241 4863 1831 4863 
L 2375 4863 
z
" transform="scale(0.015625)"/>
       </defs>
       <use xlink:href="#DejaVuSans-41"/>
       <use xlink:href="#DejaVuSans-66" x="64.783203"/>
       <use xlink:href="#DejaVuSans-72" x="99.988281"/>
       <use xlink:href="#DejaVuSans-69" x="141.101562"/>
       <use xlink:href="#DejaVuSans-63" x="168.884766"/>
       <use xlink:href="#DejaVuSans-61" x="223.865234"/>
      </g>
     </g>
    </g>
    <g id="xtick_5">
     <g id="line2d_5">
      <g>
       <use xlink:href="#ma2023b862c" x="469.336875" y="316.774219" style="stroke: #000000; stroke-width: 0.8"/>
      </g>
     </g>
     <g id="text_5">
      <!-- Oceania -->
      <g transform="translate(440.710156 334.412031)scale(0.14 -0.14)">
       <defs>
        <path id="DejaVuSans-4f" d="M 2522 4238 
Q 1834 4238 1429 3725 
Q 1025 3213 1025 2328 
Q 1025 1447 1429 934 
Q 1834 422 2522 422 
Q 3209 422 3611 934 
Q 4013 1447 4013 2328 
Q 4013 3213 3611 3725 
Q 3209 4238 2522 4238 
z
M 2522 4750 
Q 3503 4750 4090 4092 
Q 4678 3434 4678 2328 
Q 4678 1225 4090 567 
Q 3503 -91 2522 -91 
Q 1538 -91 948 565 
Q 359 1222 359 2328 
Q 359 3434 948 4092 
Q 1538 4750 2522 4750 
z
" transform="scale(0.015625)"/>
        <path id="DejaVuSans-6e" d="M 3513 2113 
L 3513 0 
L 2938 0 
L 2938 2094 
Q 2938 2591 2744 2837 
Q 2550 3084 2163 3084 
Q 1697 3084 1428 2787 
Q 1159 2491 1159 1978 
L 1159 0 
L 581 0 
L 581 3500 
L 1159 3500 
L 1159 2956 
Q 1366 3272 1645 3428 
Q 1925 3584 2291 3584 
Q 2894 3584 3203 3211 
Q 3513 2838 3513 2113 
z
" transform="scale(0.015625)"/>
       </defs>
       <use xlink:href="#DejaVuSans-4f"/>
       <use xlink:href="#DejaVuSans-63" x="78.710938"/>
       <use xlink:href="#DejaVuSans-65" x="133.691406"/>
       <use xlink:href="#DejaVuSans-61" x="195.214844"/>
       <use xlink:href="#DejaVuSans-6e" x="256.494141"/>
       <use xlink:href="#DejaVuSans-69" x="319.873047"/>
       <use xlink:href="#DejaVuSans-61" x="347.65625"/>
      </g>
     </g>
    </g>
    <g id="xtick_6">
     <g id="line2d_6">
      <g>
       <use xlink:href="#ma2023b862c" x="562.336875" y="316.774219" style="stroke: #000000; stroke-width: 0.8"/>
      </g>
     </g>
     <g id="text_6">
      <!-- L Amer &amp; Carib -->
      <g transform="translate(509.067969 334.412031)scale(0.14 -0.14)">
       <defs>
        <path id="DejaVuSans-4c" d="M 628 4666 
L 1259 4666 
L 1259 531 
L 3531 531 
L 3531 0 
L 628 0 
L 628 4666 
z
" transform="scale(0.015625)"/>
        <path id="DejaVuSans-26" d="M 1556 2509 
Q 1272 2256 1139 2004 
Q 1006 1753 1006 1478 
Q 1006 1022 1337 719 
Q 1669 416 2169 416 
Q 2466 416 2725 514 
Q 2984 613 3213 813 
L 1556 2509 
z
M 1997 2859 
L 3584 1234 
Q 3769 1513 3872 1830 
Q 3975 2147 3994 2503 
L 4575 2503 
Q 4538 2091 4375 1687 
Q 4213 1284 3922 891 
L 4794 0 
L 4006 0 
L 3559 459 
Q 3234 181 2878 45 
Q 2522 -91 2113 -91 
Q 1359 -91 881 339 
Q 403 769 403 1441 
Q 403 1841 612 2192 
Q 822 2544 1241 2853 
Q 1091 3050 1012 3245 
Q 934 3441 934 3628 
Q 934 4134 1281 4442 
Q 1628 4750 2203 4750 
Q 2463 4750 2720 4694 
Q 2978 4638 3244 4525 
L 3244 3956 
Q 2972 4103 2725 4179 
Q 2478 4256 2266 4256 
Q 1938 4256 1733 4082 
Q 1528 3909 1528 3634 
Q 1528 3475 1620 3314 
Q 1713 3153 1997 2859 
z
" transform="scale(0.015625)"/>
        <path id="DejaVuSans-43" d="M 4122 4306 
L 4122 3641 
Q 3803 3938 3442 4084 
Q 3081 4231 2675 4231 
Q 1875 4231 1450 3742 
Q 1025 3253 1025 2328 
Q 1025 1406 1450 917 
Q 1875 428 2675 428 
Q 3081 428 3442 575 
Q 3803 722 4122 1019 
L 4122 359 
Q 3791 134 3420 21 
Q 3050 -91 2638 -91 
Q 1578 -91 968 557 
Q 359 1206 359 2328 
Q 359 3453 968 4101 
Q 1578 4750 2638 4750 
Q 3056 4750 3426 4639 
Q 3797 4528 4122 4306 
z
" transform="scale(0.015625)"/>
        <path id="DejaVuSans-62" d="M 3116 1747 
Q 3116 2381 2855 2742 
Q 2594 3103 2138 3103 
Q 1681 3103 1420 2742 
Q 1159 2381 1159 1747 
Q 1159 1113 1420 752 
Q 1681 391 2138 391 
Q 2594 391 2855 752 
Q 3116 1113 3116 1747 
z
M 1159 2969 
Q 1341 3281 1617 3432 
Q 1894 3584 2278 3584 
Q 2916 3584 3314 3078 
Q 3713 2572 3713 1747 
Q 3713 922 3314 415 
Q 2916 -91 2278 -91 
Q 1894 -91 1617 61 
Q 1341 213 1159 525 
L 1159 0 
L 581 0 
L 581 4863 
L 1159 4863 
L 1159 2969 
z
" transform="scale(0.015625)"/>
       </defs>
       <use xlink:href="#DejaVuSans-4c"/>
       <use xlink:href="#DejaVuSans-20" x="55.712891"/>
       <use xlink:href="#DejaVuSans-41" x="87.5"/>
       <use xlink:href="#DejaVuSans-6d" x="155.908203"/>
       <use xlink:href="#DejaVuSans-65" x="253.320312"/>
       <use xlink:href="#DejaVuSans-72" x="314.84375"/>
       <use xlink:href="#DejaVuSans-20" x="355.957031"/>
       <use xlink:href="#DejaVuSans-26" x="387.744141"/>
       <use xlink:href="#DejaVuSans-20" x="465.722656"/>
       <use xlink:href="#DejaVuSans-43" x="497.509766"/>
       <use xlink:href="#DejaVuSans-61" x="567.333984"/>
       <use xlink:href="#DejaVuSans-72" x="628.613281"/>
       <use xlink:href="#DejaVuSans-69" x="669.726562"/>
       <use xlink:href="#DejaVuSans-62" x="697.509766"/>
      </g>
     </g>
    </g>
   </g>
   <g id="matplotlib.axis_2">
    <g id="ytick_1">
     <g id="line2d_7">
      <defs>
       <path id="mb515a27da2" d="M 0 0 
L -3.5 0 
" style="stroke: #000000; stroke-width: 0.8"/>
      </defs>
      <g>
       <use xlink:href="#mb515a27da2" x="50.836875" y="316.774219" style="stroke: #000000; stroke-width: 0.8"/>
      </g>
     </g>
     <g id="text_7">
      <!-- 0 -->
      <g transform="translate(37.474375 320.573437)scale(0.1 -0.1)">
       <defs>
        <path id="DejaVuSans-30" d="M 2034 4250 
Q 1547 4250 1301 3770 
Q 1056 3291 1056 2328 
Q 1056 1369 1301 889 
Q 1547 409 2034 409 
Q 2525 409 2770 889 
Q 3016 1369 3016 2328 
Q 3016 3291 2770 3770 
Q 2525 4250 2034 4250 
z
M 2034 4750 
Q 2819 4750 3233 4129 
Q 3647 3509 3647 2328 
Q 3647 1150 3233 529 
Q 2819 -91 2034 -91 
Q 1250 -91 836 529 
Q 422 1150 422 2328 
Q 422 3509 836 4129 
Q 1250 4750 2034 4750 
z
" transform="scale(0.015625)"/>
       </defs>
       <use xlink:href="#DejaVuSans-30"/>
      </g>
     </g>
    </g>
    <g id="ytick_2">
     <g id="line2d_8">
      <g>
       <use xlink:href="#mb515a27da2" x="50.836875" y="255.619219" style="stroke: #000000; stroke-width: 0.8"/>
      </g>
     </g>
     <g id="text_8">
      <!-- 20 -->
      <g transform="translate(31.111875 259.418437)scale(0.1 -0.1)">
       <defs>
        <path id="DejaVuSans-32" d="M 1228 531 
L 3431 531 
L 3431 0 
L 469 0 
L 469 531 
Q 828 903 1448 1529 
Q 2069 2156 2228 2338 
Q 2531 2678 2651 2914 
Q 2772 3150 2772 3378 
Q 2772 3750 2511 3984 
Q 2250 4219 1831 4219 
Q 1534 4219 1204 4116 
Q 875 4013 500 3803 
L 500 4441 
Q 881 4594 1212 4672 
Q 1544 4750 1819 4750 
Q 2544 4750 2975 4387 
Q 3406 4025 3406 3419 
Q 3406 3131 3298 2873 
Q 3191 2616 2906 2266 
Q 2828 2175 2409 1742 
Q 1991 1309 1228 531 
z
" transform="scale(0.015625)"/>
       </defs>
       <use xlink:href="#DejaVuSans-32"/>
       <use xlink:href="#DejaVuSans-30" x="63.623047"/>
      </g>
     </g>
    </g>
    <g id="ytick_3">
     <g id="line2d_9">
      <g>
       <use xlink:href="#mb515a27da2" x="50.836875" y="194.464219" style="stroke: #000000; stroke-width: 0.8"/>
      </g>
     </g>
     <g id="text_9">
      <!-- 40 -->
      <g transform="translate(31.111875 198.263437)scale(0.1 -0.1)">
       <defs>
        <path id="DejaVuSans-34" d="M 2419 4116 
L 825 1625 
L 2419 1625 
L 2419 4116 
z
M 2253 4666 
L 3047 4666 
L 3047 1625 
L 3713 1625 
L 3713 1100 
L 3047 1100 
L 3047 0 
L 2419 0 
L 2419 1100 
L 313 1100 
L 313 1709 
L 2253 4666 
z
" transform="scale(0.015625)"/>
       </defs>
       <use xlink:href="#DejaVuSans-34"/>
       <use xlink:href="#DejaVuSans-30" x="63.623047"/>
      </g>
     </g>
    </g>
    <g id="ytick_4">
     <g id="line2d_10">
      <g>
       <use xlink:href="#mb515a27da2" x="50.836875" y="133.309219" style="stroke: #000000; stroke-width: 0.8"/>
      </g>
     </g>
     <g id="text_10">
      <!-- 60 -->
      <g transform="translate(31.111875 137.108437)scale(0.1 -0.1)">
       <defs>
        <path id="DejaVuSans-36" d="M 2113 2584 
Q 1688 2584 1439 2293 
Q 1191 2003 1191 1497 
Q 1191 994 1439 701 
Q 1688 409 2113 409 
Q 2538 409 2786 701 
Q 3034 994 3034 1497 
Q 3034 2003 2786 2293 
Q 2538 2584 2113 2584 
z
M 3366 4563 
L 3366 3988 
Q 3128 4100 2886 4159 
Q 2644 4219 2406 4219 
Q 1781 4219 1451 3797 
Q 1122 3375 1075 2522 
Q 1259 2794 1537 2939 
Q 1816 3084 2150 3084 
Q 2853 3084 3261 2657 
Q 3669 2231 3669 1497 
Q 3669 778 3244 343 
Q 2819 -91 2113 -91 
Q 1303 -91 875 529 
Q 447 1150 447 2328 
Q 447 3434 972 4092 
Q 1497 4750 2381 4750 
Q 2619 4750 2861 4703 
Q 3103 4656 3366 4563 
z
" transform="scale(0.015625)"/>
       </defs>
       <use xlink:href="#DejaVuSans-36"/>
       <use xlink:href="#DejaVuSans-30" x="63.623047"/>
      </g>
     </g>
    </g>
    <g id="ytick_5">
     <g id="line2d_11">
      <g>
       <use xlink:href="#mb515a27da2" x="50.836875" y="72.154219" style="stroke: #000000; stroke-width: 0.8"/>
      </g>
     </g>
     <g id="text_11">
      <!-- 80 -->
      <g transform="translate(31.111875 75.953437)scale(0.1 -0.1)">
       <defs>
        <path id="DejaVuSans-38" d="M 2034 2216 
Q 1584 2216 1326 1975 
Q 1069 1734 1069 1313 
Q 1069 891 1326 650 
Q 1584 409 2034 409 
Q 2484 409 2743 651 
Q 3003 894 3003 1313 
Q 3003 1734 2745 1975 
Q 2488 2216 2034 2216 
z
M 1403 2484 
Q 997 2584 770 2862 
Q 544 3141 544 3541 
Q 544 4100 942 4425 
Q 1341 4750 2034 4750 
Q 2731 4750 3128 4425 
Q 3525 4100 3525 3541 
Q 3525 3141 3298 2862 
Q 3072 2584 2669 2484 
Q 3125 2378 3379 2068 
Q 3634 1759 3634 1313 
Q 3634 634 3220 271 
Q 2806 -91 2034 -91 
Q 1263 -91 848 271 
Q 434 634 434 1313 
Q 434 1759 690 2068 
Q 947 2378 1403 2484 
z
M 1172 3481 
Q 1172 3119 1398 2916 
Q 1625 2713 2034 2713 
Q 2441 2713 2670 2916 
Q 2900 3119 2900 3481 
Q 2900 3844 2670 4047 
Q 2441 4250 2034 4250 
Q 1625 4250 1398 4047 
Q 1172 3844 1172 3481 
z
" transform="scale(0.015625)"/>
       </defs>
       <use xlink:href="#DejaVuSans-38"/>
       <use xlink:href="#DejaVuSans-30" x="63.623047"/>
      </g>
     </g>
    </g>
    <g id="ytick_6">
     <g id="line2d_12">
      <g>
       <use xlink:href="#mb515a27da2" x="50.836875" y="10.999219" style="stroke: #000000; stroke-width: 0.8"/>
      </g>
     </g>
     <g id="text_12">
      <!-- 100 -->
      <g transform="translate(24.749375 14.798437)scale(0.1 -0.1)">
       <defs>
        <path id="DejaVuSans-31" d="M 794 531 
L 1825 531 
L 1825 4091 
L 703 3866 
L 703 4441 
L 1819 4666 
L 2450 4666 
L 2450 531 
L 3481 531 
L 3481 0 
L 794 0 
L 794 531 
z
" transform="scale(0.015625)"/>
       </defs>
       <use xlink:href="#DejaVuSans-31"/>
       <use xlink:href="#DejaVuSans-30" x="63.623047"/>
       <use xlink:href="#DejaVuSans-30" x="127.246094"/>
      </g>
     </g>
    </g>
    <g id="text_13">
     <!-- Percent of GeoAreas -->
     <g transform="translate(17.837813 235.180625)rotate(-90)scale(0.14 -0.14)">
      <defs>
       <path id="DejaVuSans-50" d="M 1259 4147 
L 1259 2394 
L 2053 2394 
Q 2494 2394 2734 2622 
Q 2975 2850 2975 3272 
Q 2975 3691 2734 3919 
Q 2494 4147 2053 4147 
L 1259 4147 
z
M 628 4666 
L 2053 4666 
Q 2838 4666 3239 4311 
Q 3641 3956 3641 3272 
Q 3641 2581 3239 2228 
Q 2838 1875 2053 1875 
L 1259 1875 
L 1259 0 
L 628 0 
L 628 4666 
z
" transform="scale(0.015625)"/>
       <path id="DejaVuSans-74" d="M 1172 4494 
L 1172 3500 
L 2356 3500 
L 2356 3053 
L 1172 3053 
L 1172 1153 
Q 1172 725 1289 603 
Q 1406 481 1766 481 
L 2356 481 
L 2356 0 
L 1766 0 
Q 1100 0 847 248 
Q 594 497 594 1153 
L 594 3053 
L 172 3053 
L 172 3500 
L 594 3500 
L 594 4494 
L 1172 4494 
z
" transform="scale(0.015625)"/>
       <path id="DejaVuSans-47" d="M 3809 666 
L 3809 1919 
L 2778 1919 
L 2778 2438 
L 4434 2438 
L 4434 434 
Q 4069 175 3628 42 
Q 3188 -91 2688 -91 
Q 1594 -91 976 548 
Q 359 1188 359 2328 
Q 359 3472 976 4111 
Q 1594 4750 2688 4750 
Q 3144 4750 3555 4637 
Q 3966 4525 4313 4306 
L 4313 3634 
Q 3963 3931 3569 4081 
Q 3175 4231 2741 4231 
Q 1884 4231 1454 3753 
Q 1025 3275 1025 2328 
Q 1025 1384 1454 906 
Q 1884 428 2741 428 
Q 3075 428 3337 486 
Q 3600 544 3809 666 
z
" transform="scale(0.015625)"/>
      </defs>
      <use xlink:href="#DejaVuSans-50"/>
      <use xlink:href="#DejaVuSans-65" x="56.677734"/>
      <use xlink:href="#DejaVuSans-72" x="118.201172"/>
      <use xlink:href="#DejaVuSans-63" x="157.064453"/>
      <use xlink:href="#DejaVuSans-65" x="212.044922"/>
      <use xlink:href="#DejaVuSans-6e" x="273.568359"/>
      <use xlink:href="#DejaVuSans-74" x="336.947266"/>
      <use xlink:href="#DejaVuSans-20" x="376.15625"/>
      <use xlink:href="#DejaVuSans-6f" x="407.943359"/>
      <use xlink:href="#DejaVuSans-66" x="469.125"/>
      <use xlink:href="#DejaVuSans-20" x="504.330078"/>
      <use xlink:href="#DejaVuSans-47" x="536.117188"/>
      <use xlink:href="#DejaVuSans-65" x="613.607422"/>
      <use xlink:href="#DejaVuSans-6f" x="675.130859"/>
      <use xlink:href="#DejaVuSans-41" x="736.3125"/>
      <use xlink:href="#DejaVuSans-72" x="804.720703"/>
      <use xlink:href="#DejaVuSans-65" x="843.583984"/>
      <use xlink:href="#DejaVuSans-61" x="905.107422"/>
      <use xlink:href="#DejaVuSans-73" x="966.386719"/>
     </g>
    </g>
   </g>
   <g id="patch_45">
    <path d="M 50.836875 316.774219 
L 50.836875 10.999219 
" style="fill: none; stroke: #000000; stroke-width: 0.8; stroke-linejoin: miter; stroke-linecap: square"/>
   </g>
   <g id="patch_46">
    <path d="M 50.836875 316.774219 
L 608.836875 316.774219 
" style="fill: none; stroke: #000000; stroke-width: 0.8; stroke-linejoin: miter; stroke-linecap: square"/>
   </g>
   <g id="legend_1">
    <g id="patch_47">
     <path d="M 615.836875 131.837594 
L 754.949375 131.837594 
Q 756.949375 131.837594 756.949375 129.837594 
L 756.949375 13.412594 
Q 756.949375 11.412594 754.949375 11.412594 
L 615.836875 11.412594 
Q 613.836875 11.412594 613.836875 13.412594 
L 613.836875 129.837594 
Q 613.836875 131.837594 615.836875 131.837594 
z
" style="fill: #ffffff; opacity: 0.8"/>
    </g>
    <g id="text_14">
     <!-- Research: Sensor Presence -->
     <g transform="translate(617.836875 23.011031)scale(0.1 -0.1)">
      <defs>
       <path id="DejaVuSans-52" d="M 2841 2188 
Q 3044 2119 3236 1894 
Q 3428 1669 3622 1275 
L 4263 0 
L 3584 0 
L 2988 1197 
Q 2756 1666 2539 1819 
Q 2322 1972 1947 1972 
L 1259 1972 
L 1259 0 
L 628 0 
L 628 4666 
L 2053 4666 
Q 2853 4666 3247 4331 
Q 3641 3997 3641 3322 
Q 3641 2881 3436 2590 
Q 3231 2300 2841 2188 
z
M 1259 4147 
L 1259 2491 
L 2053 2491 
Q 2509 2491 2742 2702 
Q 2975 2913 2975 3322 
Q 2975 3731 2742 3939 
Q 2509 4147 2053 4147 
L 1259 4147 
z
" transform="scale(0.015625)"/>
       <path id="DejaVuSans-68" d="M 3513 2113 
L 3513 0 
L 2938 0 
L 2938 2094 
Q 2938 2591 2744 2837 
Q 2550 3084 2163 3084 
Q 1697 3084 1428 2787 
Q 1159 2491 1159 1978 
L 1159 0 
L 581 0 
L 581 4863 
L 1159 4863 
L 1159 2956 
Q 1366 3272 1645 3428 
Q 1925 3584 2291 3584 
Q 2894 3584 3203 3211 
Q 3513 2838 3513 2113 
z
" transform="scale(0.015625)"/>
       <path id="DejaVuSans-3a" d="M 750 794 
L 1409 794 
L 1409 0 
L 750 0 
L 750 794 
z
M 750 3309 
L 1409 3309 
L 1409 2516 
L 750 2516 
L 750 3309 
z
" transform="scale(0.015625)"/>
       <path id="DejaVuSans-53" d="M 3425 4513 
L 3425 3897 
Q 3066 4069 2747 4153 
Q 2428 4238 2131 4238 
Q 1616 4238 1336 4038 
Q 1056 3838 1056 3469 
Q 1056 3159 1242 3001 
Q 1428 2844 1947 2747 
L 2328 2669 
Q 3034 2534 3370 2195 
Q 3706 1856 3706 1288 
Q 3706 609 3251 259 
Q 2797 -91 1919 -91 
Q 1588 -91 1214 -16 
Q 841 59 441 206 
L 441 856 
Q 825 641 1194 531 
Q 1563 422 1919 422 
Q 2459 422 2753 634 
Q 3047 847 3047 1241 
Q 3047 1584 2836 1778 
Q 2625 1972 2144 2069 
L 1759 2144 
Q 1053 2284 737 2584 
Q 422 2884 422 3419 
Q 422 4038 858 4394 
Q 1294 4750 2059 4750 
Q 2388 4750 2728 4690 
Q 3069 4631 3425 4513 
z
" transform="scale(0.015625)"/>
      </defs>
      <use xlink:href="#DejaVuSans-52"/>
      <use xlink:href="#DejaVuSans-65" x="64.982422"/>
      <use xlink:href="#DejaVuSans-73" x="126.505859"/>
      <use xlink:href="#DejaVuSans-65" x="178.605469"/>
      <use xlink:href="#DejaVuSans-61" x="240.128906"/>
      <use xlink:href="#DejaVuSans-72" x="301.408203"/>
      <use xlink:href="#DejaVuSans-63" x="340.271484"/>
      <use xlink:href="#DejaVuSans-68" x="395.251953"/>
      <use xlink:href="#DejaVuSans-3a" x="458.630859"/>
      <use xlink:href="#DejaVuSans-20" x="492.322266"/>
      <use xlink:href="#DejaVuSans-53" x="524.109375"/>
      <use xlink:href="#DejaVuSans-65" x="587.585938"/>
      <use xlink:href="#DejaVuSans-6e" x="649.109375"/>
      <use xlink:href="#DejaVuSans-73" x="712.488281"/>
      <use xlink:href="#DejaVuSans-6f" x="764.587891"/>
      <use xlink:href="#DejaVuSans-72" x="825.769531"/>
      <use xlink:href="#DejaVuSans-20" x="866.882812"/>
      <use xlink:href="#DejaVuSans-50" x="898.669922"/>
      <use xlink:href="#DejaVuSans-72" x="957.222656"/>
      <use xlink:href="#DejaVuSans-65" x="996.085938"/>
      <use xlink:href="#DejaVuSans-73" x="1057.609375"/>
      <use xlink:href="#DejaVuSans-65" x="1109.708984"/>
      <use xlink:href="#DejaVuSans-6e" x="1171.232422"/>
      <use xlink:href="#DejaVuSans-63" x="1234.611328"/>
      <use xlink:href="#DejaVuSans-65" x="1289.591797"/>
     </g>
    </g>
    <g id="patch_48">
     <path d="M 627.150937 37.689156 
L 647.150937 37.689156 
L 647.150937 30.689156 
L 627.150937 30.689156 
z
" style="fill: #214550; stroke: #ffffff; stroke-linejoin: miter"/>
    </g>
    <g id="text_15">
     <!-- CTD -->
     <g transform="translate(655.150937 37.689156)scale(0.1 -0.1)">
      <defs>
       <path id="DejaVuSans-54" d="M -19 4666 
L 3928 4666 
L 3928 4134 
L 2272 4134 
L 2272 0 
L 1638 0 
L 1638 4134 
L -19 4134 
L -19 4666 
z
" transform="scale(0.015625)"/>
       <path id="DejaVuSans-44" d="M 1259 4147 
L 1259 519 
L 2022 519 
Q 2988 519 3436 956 
Q 3884 1394 3884 2338 
Q 3884 3275 3436 3711 
Q 2988 4147 2022 4147 
L 1259 4147 
z
M 628 4666 
L 1925 4666 
Q 3281 4666 3915 4102 
Q 4550 3538 4550 2338 
Q 4550 1131 3912 565 
Q 3275 0 1925 0 
L 628 0 
L 628 4666 
z
" transform="scale(0.015625)"/>
      </defs>
      <use xlink:href="#DejaVuSans-43"/>
      <use xlink:href="#DejaVuSans-54" x="69.824219"/>
      <use xlink:href="#DejaVuSans-44" x="130.908203"/>
     </g>
    </g>
    <g id="patch_49">
     <path d="M 627.150937 52.367281 
L 647.150937 52.367281 
L 647.150937 45.367281 
L 627.150937 45.367281 
z
" style="fill: #b7795b; stroke: #ffffff; stroke-linejoin: miter"/>
    </g>
    <g id="text_16">
     <!-- Water sampling -->
     <g transform="translate(655.150937 52.367281)scale(0.1 -0.1)">
      <defs>
       <path id="DejaVuSans-57" d="M 213 4666 
L 850 4666 
L 1831 722 
L 2809 4666 
L 3519 4666 
L 4500 722 
L 5478 4666 
L 6119 4666 
L 4947 0 
L 4153 0 
L 3169 4050 
L 2175 0 
L 1381 0 
L 213 4666 
z
" transform="scale(0.015625)"/>
       <path id="DejaVuSans-6c" d="M 603 4863 
L 1178 4863 
L 1178 0 
L 603 0 
L 603 4863 
z
" transform="scale(0.015625)"/>
       <path id="DejaVuSans-67" d="M 2906 1791 
Q 2906 2416 2648 2759 
Q 2391 3103 1925 3103 
Q 1463 3103 1205 2759 
Q 947 2416 947 1791 
Q 947 1169 1205 825 
Q 1463 481 1925 481 
Q 2391 481 2648 825 
Q 2906 1169 2906 1791 
z
M 3481 434 
Q 3481 -459 3084 -895 
Q 2688 -1331 1869 -1331 
Q 1566 -1331 1297 -1286 
Q 1028 -1241 775 -1147 
L 775 -588 
Q 1028 -725 1275 -790 
Q 1522 -856 1778 -856 
Q 2344 -856 2625 -561 
Q 2906 -266 2906 331 
L 2906 616 
Q 2728 306 2450 153 
Q 2172 0 1784 0 
Q 1141 0 747 490 
Q 353 981 353 1791 
Q 353 2603 747 3093 
Q 1141 3584 1784 3584 
Q 2172 3584 2450 3431 
Q 2728 3278 2906 2969 
L 2906 3500 
L 3481 3500 
L 3481 434 
z
" transform="scale(0.015625)"/>
      </defs>
      <use xlink:href="#DejaVuSans-57"/>
      <use xlink:href="#DejaVuSans-61" x="92.501953"/>
      <use xlink:href="#DejaVuSans-74" x="153.78125"/>
      <use xlink:href="#DejaVuSans-65" x="192.990234"/>
      <use xlink:href="#DejaVuSans-72" x="254.513672"/>
      <use xlink:href="#DejaVuSans-20" x="295.626953"/>
      <use xlink:href="#DejaVuSans-73" x="327.414062"/>
      <use xlink:href="#DejaVuSans-61" x="379.513672"/>
      <use xlink:href="#DejaVuSans-6d" x="440.792969"/>
      <use xlink:href="#DejaVuSans-70" x="538.205078"/>
      <use xlink:href="#DejaVuSans-6c" x="601.681641"/>
      <use xlink:href="#DejaVuSans-69" x="629.464844"/>
      <use xlink:href="#DejaVuSans-6e" x="657.248047"/>
      <use xlink:href="#DejaVuSans-67" x="720.626953"/>
     </g>
    </g>
    <g id="patch_50">
     <path d="M 627.150937 67.045406 
L 647.150937 67.045406 
L 647.150937 60.045406 
L 627.150937 60.045406 
z
" style="fill: #ccb873; stroke: #ffffff; stroke-linejoin: miter"/>
    </g>
    <g id="text_17">
     <!-- Oxygen, pH, eH -->
     <g transform="translate(655.150937 67.045406)scale(0.1 -0.1)">
      <defs>
       <path id="DejaVuSans-78" d="M 3513 3500 
L 2247 1797 
L 3578 0 
L 2900 0 
L 1881 1375 
L 863 0 
L 184 0 
L 1544 1831 
L 300 3500 
L 978 3500 
L 1906 2253 
L 2834 3500 
L 3513 3500 
z
" transform="scale(0.015625)"/>
       <path id="DejaVuSans-79" d="M 2059 -325 
Q 1816 -950 1584 -1140 
Q 1353 -1331 966 -1331 
L 506 -1331 
L 506 -850 
L 844 -850 
Q 1081 -850 1212 -737 
Q 1344 -625 1503 -206 
L 1606 56 
L 191 3500 
L 800 3500 
L 1894 763 
L 2988 3500 
L 3597 3500 
L 2059 -325 
z
" transform="scale(0.015625)"/>
       <path id="DejaVuSans-2c" d="M 750 794 
L 1409 794 
L 1409 256 
L 897 -744 
L 494 -744 
L 750 256 
L 750 794 
z
" transform="scale(0.015625)"/>
       <path id="DejaVuSans-48" d="M 628 4666 
L 1259 4666 
L 1259 2753 
L 3553 2753 
L 3553 4666 
L 4184 4666 
L 4184 0 
L 3553 0 
L 3553 2222 
L 1259 2222 
L 1259 0 
L 628 0 
L 628 4666 
z
" transform="scale(0.015625)"/>
      </defs>
      <use xlink:href="#DejaVuSans-4f"/>
      <use xlink:href="#DejaVuSans-78" x="78.710938"/>
      <use xlink:href="#DejaVuSans-79" x="137.890625"/>
      <use xlink:href="#DejaVuSans-67" x="197.070312"/>
      <use xlink:href="#DejaVuSans-65" x="260.546875"/>
      <use xlink:href="#DejaVuSans-6e" x="322.070312"/>
      <use xlink:href="#DejaVuSans-2c" x="385.449219"/>
      <use xlink:href="#DejaVuSans-20" x="417.236328"/>
      <use xlink:href="#DejaVuSans-70" x="449.023438"/>
      <use xlink:href="#DejaVuSans-48" x="512.5"/>
      <use xlink:href="#DejaVuSans-2c" x="587.695312"/>
      <use xlink:href="#DejaVuSans-20" x="619.482422"/>
      <use xlink:href="#DejaVuSans-65" x="651.269531"/>
      <use xlink:href="#DejaVuSans-48" x="712.792969"/>
     </g>
    </g>
    <g id="patch_51">
     <path d="M 627.150937 81.723531 
L 647.150937 81.723531 
L 647.150937 74.723531 
L 627.150937 74.723531 
z
" style="fill: #428389; stroke: #ffffff; stroke-linejoin: miter"/>
    </g>
    <g id="text_18">
     <!-- Seafloor mapping -->
     <g transform="translate(655.150937 81.723531)scale(0.1 -0.1)">
      <use xlink:href="#DejaVuSans-53"/>
      <use xlink:href="#DejaVuSans-65" x="63.476562"/>
      <use xlink:href="#DejaVuSans-61" x="125"/>
      <use xlink:href="#DejaVuSans-66" x="186.279297"/>
      <use xlink:href="#DejaVuSans-6c" x="221.484375"/>
      <use xlink:href="#DejaVuSans-6f" x="249.267578"/>
      <use xlink:href="#DejaVuSans-6f" x="310.449219"/>
      <use xlink:href="#DejaVuSans-72" x="371.630859"/>
      <use xlink:href="#DejaVuSans-20" x="412.744141"/>
      <use xlink:href="#DejaVuSans-6d" x="444.53125"/>
      <use xlink:href="#DejaVuSans-61" x="541.943359"/>
      <use xlink:href="#DejaVuSans-70" x="603.222656"/>
      <use xlink:href="#DejaVuSans-70" x="666.699219"/>
      <use xlink:href="#DejaVuSans-69" x="730.175781"/>
      <use xlink:href="#DejaVuSans-6e" x="757.958984"/>
      <use xlink:href="#DejaVuSans-67" x="821.337891"/>
     </g>
    </g>
    <g id="patch_52">
     <path d="M 627.150937 96.401656 
L 647.150937 96.401656 
L 647.150937 89.401656 
L 627.150937 89.401656 
z
" style="fill: #434370; stroke: #ffffff; stroke-linejoin: miter"/>
    </g>
    <g id="text_19">
     <!-- Imaging -->
     <g transform="translate(655.150937 96.401656)scale(0.1 -0.1)">
      <defs>
       <path id="DejaVuSans-49" d="M 628 4666 
L 1259 4666 
L 1259 0 
L 628 0 
L 628 4666 
z
" transform="scale(0.015625)"/>
      </defs>
      <use xlink:href="#DejaVuSans-49"/>
      <use xlink:href="#DejaVuSans-6d" x="29.492188"/>
      <use xlink:href="#DejaVuSans-61" x="126.904297"/>
      <use xlink:href="#DejaVuSans-67" x="188.183594"/>
      <use xlink:href="#DejaVuSans-69" x="251.660156"/>
      <use xlink:href="#DejaVuSans-6e" x="279.443359"/>
      <use xlink:href="#DejaVuSans-67" x="342.822266"/>
     </g>
    </g>
    <g id="patch_53">
     <path d="M 627.150937 111.079781 
L 647.150937 111.079781 
L 647.150937 104.079781 
L 627.150937 104.079781 
z
" style="fill: #809e72; stroke: #ffffff; stroke-linejoin: miter"/>
    </g>
    <g id="text_20">
     <!-- Navigation -->
     <g transform="translate(655.150937 111.079781)scale(0.1 -0.1)">
      <defs>
       <path id="DejaVuSans-76" d="M 191 3500 
L 800 3500 
L 1894 563 
L 2988 3500 
L 3597 3500 
L 2284 0 
L 1503 0 
L 191 3500 
z
" transform="scale(0.015625)"/>
      </defs>
      <use xlink:href="#DejaVuSans-4e"/>
      <use xlink:href="#DejaVuSans-61" x="74.804688"/>
      <use xlink:href="#DejaVuSans-76" x="136.083984"/>
      <use xlink:href="#DejaVuSans-69" x="195.263672"/>
      <use xlink:href="#DejaVuSans-67" x="223.046875"/>
      <use xlink:href="#DejaVuSans-61" x="286.523438"/>
      <use xlink:href="#DejaVuSans-74" x="347.802734"/>
      <use xlink:href="#DejaVuSans-69" x="387.011719"/>
      <use xlink:href="#DejaVuSans-6f" x="414.794922"/>
      <use xlink:href="#DejaVuSans-6e" x="475.976562"/>
     </g>
    </g>
    <g id="patch_54">
     <path d="M 627.150937 125.757906 
L 647.150937 125.757906 
L 647.150937 118.757906 
L 627.150937 118.757906 
z
" style="fill: #091d3c; stroke: #ffffff; stroke-linejoin: miter"/>
    </g>
    <g id="text_21">
     <!-- eDNA sampling -->
     <g transform="translate(655.150937 125.757906)scale(0.1 -0.1)">
      <use xlink:href="#DejaVuSans-65"/>
      <use xlink:href="#DejaVuSans-44" x="61.523438"/>
      <use xlink:href="#DejaVuSans-4e" x="138.525391"/>
      <use xlink:href="#DejaVuSans-41" x="213.330078"/>
      <use xlink:href="#DejaVuSans-20" x="281.738281"/>
      <use xlink:href="#DejaVuSans-73" x="313.525391"/>
      <use xlink:href="#DejaVuSans-61" x="365.625"/>
      <use xlink:href="#DejaVuSans-6d" x="426.904297"/>
      <use xlink:href="#DejaVuSans-70" x="524.316406"/>
      <use xlink:href="#DejaVuSans-6c" x="587.792969"/>
      <use xlink:href="#DejaVuSans-69" x="615.576172"/>
      <use xlink:href="#DejaVuSans-6e" x="643.359375"/>
      <use xlink:href="#DejaVuSans-67" x="706.738281"/>
     </g>
    </g>
   </g>
  </g>
 </g>
 <defs>
  <clipPath id="p678e580be2">
   <rect x="50.836875" y="10.999219" width="558" height="305.775"/>
  </clipPath>
 </defs>
</svg>
