<?xml version="1.0" encoding="utf-8" standalone="no"?>
<!DOCTYPE svg PUBLIC "-//W3C//DTD SVG 1.1//EN"
  "http://www.w3.org/Graphics/SVG/1.1/DTD/svg11.dtd">
<svg xmlns:xlink="http://www.w3.org/1999/xlink" width="605.856875pt" height="358.27375pt" viewBox="0 0 605.856875 358.27375" xmlns="http://www.w3.org/2000/svg" version="1.1">
 <metadata>
  <rdf:RDF xmlns:dc="http://purl.org/dc/elements/1.1/" xmlns:cc="http://creativecommons.org/ns#" xmlns:rdf="http://www.w3.org/1999/02/22-rdf-syntax-ns#">
   <cc:Work>
    <dc:type rdf:resource="http://purl.org/dc/dcmitype/StillImage"/>
    <dc:date>2022-10-04T09:46:34.267860</dc:date>
    <dc:format>image/svg+xml</dc:format>
    <dc:creator>
     <cc:Agent>
      <dc:title>Matplotlib v3.5.1, https://matplotlib.org/</dc:title>
     </cc:Agent>
    </dc:creator>
   </cc:Work>
  </rdf:RDF>
 </metadata>
 <defs>
  <style type="text/css">*{stroke-linejoin: round; stroke-linecap: butt}</style>
 </defs>
 <g id="figure_1">
  <g id="patch_1">
   <path d="M 0 358.27375 
L 605.856875 358.27375 
L 605.856875 0 
L 0 0 
L 0 358.27375 
z
" style="fill: none"/>
  </g>
  <g id="axes_1">
   <g id="patch_2">
    <path d="M 40.656875 312.975 
L 598.656875 312.975 
L 598.656875 7.2 
L 40.656875 7.2 
L 40.656875 312.975 
z
" style="fill: none"/>
   </g>
   <g id="PathCollection_1">
    <path d="M 324.871828 242.151881 
C 327.243877 242.151881 329.519092 241.209456 331.196384 239.532164 
C 332.873675 237.854872 333.8161 235.579657 333.8161 233.207609 
C 333.8161 230.83556 332.873675 228.560345 331.196384 226.883053 
C 329.519092 225.205762 327.243877 224.263337 324.871828 224.263337 
C 322.49978 224.263337 320.224565 225.205762 318.547273 226.883053 
C 316.869981 228.560345 315.927556 230.83556 315.927556 233.207609 
C 315.927556 235.579657 316.869981 237.854872 318.547273 239.532164 
C 320.224565 241.209456 322.49978 242.151881 324.871828 242.151881 
z
" clip-path="url(#p9d1c03e979)" style="fill: #000d22; fill-opacity: 0.8; stroke: #ffffff; stroke-opacity: 0.8"/>
    <path d="M 213.12283 242.151881 
C 215.494878 242.151881 217.770093 241.209456 219.447385 239.532164 
C 221.124677 237.854872 222.067102 235.579657 222.067102 233.207609 
C 222.067102 230.83556 221.124677 228.560345 219.447385 226.883053 
C 217.770093 225.205762 215.494878 224.263337 213.12283 224.263337 
C 210.750781 224.263337 208.475566 225.205762 206.798274 226.883053 
C 205.120983 228.560345 204.178558 230.83556 204.178558 233.207609 
C 204.178558 235.579657 205.120983 237.854872 206.798274 239.532164 
C 208.475566 241.209456 210.750781 242.151881 213.12283 242.151881 
z
" clip-path="url(#p9d1c03e979)" style="fill: #000d22; fill-opacity: 0.8; stroke: #ffffff; stroke-opacity: 0.8"/>
    <path d="M 64.124165 175.679055 
C 66.496213 175.679055 68.771428 174.73663 70.44872 173.059338 
C 72.126012 171.382046 73.068437 169.106831 73.068437 166.734783 
C 73.068437 164.362734 72.126012 162.087519 70.44872 160.410227 
C 68.771428 158.732936 66.496213 157.790511 64.124165 157.790511 
C 61.752116 157.790511 59.476901 158.732936 57.799609 160.410227 
C 56.122318 162.087519 55.179893 164.362734 55.179893 166.734783 
C 55.179893 169.106831 56.122318 171.382046 57.799609 173.059338 
C 59.476901 174.73663 61.752116 175.679055 64.124165 175.679055 
z
" clip-path="url(#p9d1c03e979)" style="fill: #caf1ee; fill-opacity: 0.8; stroke: #ffffff; stroke-opacity: 0.8"/>
    <path d="M 231.002669 239.017084 
C 232.54336 239.017084 234.021156 238.404961 235.110589 237.315528 
C 236.200021 236.226095 236.812144 234.748299 236.812144 233.207609 
C 236.812144 231.666918 236.200021 230.189122 235.110589 229.09969 
C 234.021156 228.010257 232.54336 227.398134 231.002669 227.398134 
C 229.461979 227.398134 227.984183 228.010257 226.89475 229.09969 
C 225.805317 230.189122 225.193194 231.666918 225.193194 233.207609 
C 225.193194 234.748299 225.805317 236.226095 226.89475 237.315528 
C 227.984183 238.404961 229.461979 239.017084 231.002669 239.017084 
z
" clip-path="url(#p9d1c03e979)" style="fill: #000d22; fill-opacity: 0.8; stroke: #ffffff; stroke-opacity: 0.8"/>
    <path d="M 237.95594 239.017084 
C 239.496631 239.017084 240.974427 238.404961 242.06386 237.315528 
C 243.153293 236.226095 243.765415 234.748299 243.765415 233.207609 
C 243.765415 231.666918 243.153293 230.189122 242.06386 229.09969 
C 240.974427 228.010257 239.496631 227.398134 237.95594 227.398134 
C 236.41525 227.398134 234.937454 228.010257 233.848021 229.09969 
C 232.758588 230.189122 232.146465 231.666918 232.146465 233.207609 
C 232.146465 234.748299 232.758588 236.226095 233.848021 237.315528 
C 234.937454 238.404961 236.41525 239.017084 237.95594 239.017084 
z
" clip-path="url(#p9d1c03e979)" style="fill: #000d22; fill-opacity: 0.8; stroke: #ffffff; stroke-opacity: 0.8"/>
    <path d="M 64.124165 239.017084 
C 65.664856 239.017084 67.142651 238.404961 68.232084 237.315528 
C 69.321517 236.226095 69.93364 234.748299 69.93364 233.207609 
C 69.93364 231.666918 69.321517 230.189122 68.232084 229.09969 
C 67.142651 228.010257 65.664856 227.398134 64.124165 227.398134 
C 62.583474 227.398134 61.105678 228.010257 60.016246 229.09969 
C 58.926813 230.189122 58.31469 231.666918 58.31469 233.207609 
C 58.31469 234.748299 58.926813 236.226095 60.016246 237.315528 
C 61.105678 238.404961 62.583474 239.017084 64.124165 239.017084 
z
" clip-path="url(#p9d1c03e979)" style="fill: #000d22; fill-opacity: 0.8; stroke: #ffffff; stroke-opacity: 0.8"/>
    <path d="M 194.497996 239.017084 
C 196.038687 239.017084 197.516483 238.404961 198.605916 237.315528 
C 199.695349 236.226095 200.307472 234.748299 200.307472 233.207609 
C 200.307472 231.666918 199.695349 230.189122 198.605916 229.09969 
C 197.516483 228.010257 196.038687 227.398134 194.497996 227.398134 
C 192.957306 227.398134 191.47951 228.010257 190.390077 229.09969 
C 189.300644 230.189122 188.688521 231.666918 188.688521 233.207609 
C 188.688521 234.748299 189.300644 236.226095 190.390077 237.315528 
C 191.47951 238.404961 192.957306 239.017084 194.497996 239.017084 
z
" clip-path="url(#p9d1c03e979)" style="fill: #1f5664; fill-opacity: 0.8; stroke: #ffffff; stroke-opacity: 0.8"/>
    <path d="M 64.124165 239.017084 
C 65.664856 239.017084 67.142651 238.404961 68.232084 237.315528 
C 69.321517 236.226095 69.93364 234.748299 69.93364 233.207609 
C 69.93364 231.666918 69.321517 230.189122 68.232084 229.09969 
C 67.142651 228.010257 65.664856 227.398134 64.124165 227.398134 
C 62.583474 227.398134 61.105678 228.010257 60.016246 229.09969 
C 58.926813 230.189122 58.31469 231.666918 58.31469 233.207609 
C 58.31469 234.748299 58.926813 236.226095 60.016246 237.315528 
C 61.105678 238.404961 62.583474 239.017084 64.124165 239.017084 
z
" clip-path="url(#p9d1c03e979)" style="fill: #000d22; fill-opacity: 0.8; stroke: #ffffff; stroke-opacity: 0.8"/>
    <path d="M 272.722296 236.369886 
C 273.560941 236.369886 274.365351 236.036689 274.958364 235.443677 
C 275.551376 234.850665 275.884573 234.046255 275.884573 233.207609 
C 275.884573 232.368963 275.551376 231.564553 274.958364 230.971541 
C 274.365351 230.378529 273.560941 230.045331 272.722296 230.045331 
C 271.88365 230.045331 271.07924 230.378529 270.486228 230.971541 
C 269.893215 231.564553 269.560018 232.368963 269.560018 233.207609 
C 269.560018 234.046255 269.893215 234.850665 270.486228 235.443677 
C 271.07924 236.036689 271.88365 236.369886 272.722296 236.369886 
z
" clip-path="url(#p9d1c03e979)" style="fill: #000d22; fill-opacity: 0.8; stroke: #ffffff; stroke-opacity: 0.8"/>
    <path d="M 250.372496 302.842712 
C 251.211142 302.842712 252.015552 302.509515 252.608564 301.916503 
C 253.201576 301.323491 253.534773 300.519081 253.534773 299.680435 
C 253.534773 298.841789 253.201576 298.037379 252.608564 297.444367 
C 252.015552 296.851355 251.211142 296.518157 250.372496 296.518157 
C 249.53385 296.518157 248.72944 296.851355 248.136428 297.444367 
C 247.543416 298.037379 247.210218 298.841789 247.210218 299.680435 
C 247.210218 300.519081 247.543416 301.323491 248.136428 301.916503 
C 248.72944 302.509515 249.53385 302.842712 250.372496 302.842712 
z
" clip-path="url(#p9d1c03e979)" style="fill: #000d22; fill-opacity: 0.8; stroke: #ffffff; stroke-opacity: 0.8"/>
   </g>
   <g id="matplotlib.axis_1">
    <g id="xtick_1">
     <g id="line2d_1">
      <defs>
       <path id="md1d7e9b522" d="M 0 0 
L 0 3.5 
" style="stroke: #000000; stroke-width: 0.8"/>
      </defs>
      <g>
       <use xlink:href="#md1d7e9b522" x="64.124165" y="312.975" style="stroke: #000000; stroke-width: 0.8"/>
      </g>
     </g>
     <g id="text_1">
      <!-- 1 -->
      <g transform="translate(59.670415 330.612812)scale(0.14 -0.14)">
       <defs>
        <path id="DejaVuSans-31" d="M 794 531 
L 1825 531 
L 1825 4091 
L 703 3866 
L 703 4441 
L 1819 4666 
L 2450 4666 
L 2450 531 
L 3481 531 
L 3481 0 
L 794 0 
L 794 531 
z
" transform="scale(0.015625)"/>
       </defs>
       <use xlink:href="#DejaVuSans-31"/>
      </g>
     </g>
    </g>
    <g id="xtick_2">
     <g id="line2d_2">
      <g>
       <use xlink:href="#md1d7e9b522" x="194.497996" y="312.975" style="stroke: #000000; stroke-width: 0.8"/>
      </g>
     </g>
     <g id="text_2">
      <!-- 2 -->
      <g transform="translate(190.044246 330.612812)scale(0.14 -0.14)">
       <defs>
        <path id="DejaVuSans-32" d="M 1228 531 
L 3431 531 
L 3431 0 
L 469 0 
L 469 531 
Q 828 903 1448 1529 
Q 2069 2156 2228 2338 
Q 2531 2678 2651 2914 
Q 2772 3150 2772 3378 
Q 2772 3750 2511 3984 
Q 2250 4219 1831 4219 
Q 1534 4219 1204 4116 
Q 875 4013 500 3803 
L 500 4441 
Q 881 4594 1212 4672 
Q 1544 4750 1819 4750 
Q 2544 4750 2975 4387 
Q 3406 4025 3406 3419 
Q 3406 3131 3298 2873 
Q 3191 2616 2906 2266 
Q 2828 2175 2409 1742 
Q 1991 1309 1228 531 
z
" transform="scale(0.015625)"/>
       </defs>
       <use xlink:href="#DejaVuSans-32"/>
      </g>
     </g>
    </g>
    <g id="xtick_3">
     <g id="line2d_3">
      <g>
       <use xlink:href="#md1d7e9b522" x="324.871828" y="312.975" style="stroke: #000000; stroke-width: 0.8"/>
      </g>
     </g>
     <g id="text_3">
      <!-- 3 -->
      <g transform="translate(320.418078 330.612812)scale(0.14 -0.14)">
       <defs>
        <path id="DejaVuSans-33" d="M 2597 2516 
Q 3050 2419 3304 2112 
Q 3559 1806 3559 1356 
Q 3559 666 3084 287 
Q 2609 -91 1734 -91 
Q 1441 -91 1130 -33 
Q 819 25 488 141 
L 488 750 
Q 750 597 1062 519 
Q 1375 441 1716 441 
Q 2309 441 2620 675 
Q 2931 909 2931 1356 
Q 2931 1769 2642 2001 
Q 2353 2234 1838 2234 
L 1294 2234 
L 1294 2753 
L 1863 2753 
Q 2328 2753 2575 2939 
Q 2822 3125 2822 3475 
Q 2822 3834 2567 4026 
Q 2313 4219 1838 4219 
Q 1578 4219 1281 4162 
Q 984 4106 628 3988 
L 628 4550 
Q 988 4650 1302 4700 
Q 1616 4750 1894 4750 
Q 2613 4750 3031 4423 
Q 3450 4097 3450 3541 
Q 3450 3153 3228 2886 
Q 3006 2619 2597 2516 
z
" transform="scale(0.015625)"/>
       </defs>
       <use xlink:href="#DejaVuSans-33"/>
      </g>
     </g>
    </g>
    <g id="xtick_4">
     <g id="line2d_4">
      <g>
       <use xlink:href="#md1d7e9b522" x="455.24566" y="312.975" style="stroke: #000000; stroke-width: 0.8"/>
      </g>
     </g>
     <g id="text_4">
      <!-- 4 -->
      <g transform="translate(450.79191 330.612812)scale(0.14 -0.14)">
       <defs>
        <path id="DejaVuSans-34" d="M 2419 4116 
L 825 1625 
L 2419 1625 
L 2419 4116 
z
M 2253 4666 
L 3047 4666 
L 3047 1625 
L 3713 1625 
L 3713 1100 
L 3047 1100 
L 3047 0 
L 2419 0 
L 2419 1100 
L 313 1100 
L 313 1709 
L 2253 4666 
z
" transform="scale(0.015625)"/>
       </defs>
       <use xlink:href="#DejaVuSans-34"/>
      </g>
     </g>
    </g>
    <g id="xtick_5">
     <g id="line2d_5">
      <g>
       <use xlink:href="#md1d7e9b522" x="585.619492" y="312.975" style="stroke: #000000; stroke-width: 0.8"/>
      </g>
     </g>
     <g id="text_5">
      <!-- 5 -->
      <g transform="translate(581.165742 330.612812)scale(0.14 -0.14)">
       <defs>
        <path id="DejaVuSans-35" d="M 691 4666 
L 3169 4666 
L 3169 4134 
L 1269 4134 
L 1269 2991 
Q 1406 3038 1543 3061 
Q 1681 3084 1819 3084 
Q 2600 3084 3056 2656 
Q 3513 2228 3513 1497 
Q 3513 744 3044 326 
Q 2575 -91 1722 -91 
Q 1428 -91 1123 -41 
Q 819 9 494 109 
L 494 744 
Q 775 591 1075 516 
Q 1375 441 1709 441 
Q 2250 441 2565 725 
Q 2881 1009 2881 1497 
Q 2881 1984 2565 2268 
Q 2250 2553 1709 2553 
Q 1456 2553 1204 2497 
Q 953 2441 691 2322 
L 691 4666 
z
" transform="scale(0.015625)"/>
       </defs>
       <use xlink:href="#DejaVuSans-35"/>
      </g>
     </g>
    </g>
    <g id="text_6">
     <!-- Deep-Sea Capacity Presence Index -->
     <g transform="translate(197.431406 348.162187)scale(0.14 -0.14)">
      <defs>
       <path id="DejaVuSans-44" d="M 1259 4147 
L 1259 519 
L 2022 519 
Q 2988 519 3436 956 
Q 3884 1394 3884 2338 
Q 3884 3275 3436 3711 
Q 2988 4147 2022 4147 
L 1259 4147 
z
M 628 4666 
L 1925 4666 
Q 3281 4666 3915 4102 
Q 4550 3538 4550 2338 
Q 4550 1131 3912 565 
Q 3275 0 1925 0 
L 628 0 
L 628 4666 
z
" transform="scale(0.015625)"/>
       <path id="DejaVuSans-65" d="M 3597 1894 
L 3597 1613 
L 953 1613 
Q 991 1019 1311 708 
Q 1631 397 2203 397 
Q 2534 397 2845 478 
Q 3156 559 3463 722 
L 3463 178 
Q 3153 47 2828 -22 
Q 2503 -91 2169 -91 
Q 1331 -91 842 396 
Q 353 884 353 1716 
Q 353 2575 817 3079 
Q 1281 3584 2069 3584 
Q 2775 3584 3186 3129 
Q 3597 2675 3597 1894 
z
M 3022 2063 
Q 3016 2534 2758 2815 
Q 2500 3097 2075 3097 
Q 1594 3097 1305 2825 
Q 1016 2553 972 2059 
L 3022 2063 
z
" transform="scale(0.015625)"/>
       <path id="DejaVuSans-70" d="M 1159 525 
L 1159 -1331 
L 581 -1331 
L 581 3500 
L 1159 3500 
L 1159 2969 
Q 1341 3281 1617 3432 
Q 1894 3584 2278 3584 
Q 2916 3584 3314 3078 
Q 3713 2572 3713 1747 
Q 3713 922 3314 415 
Q 2916 -91 2278 -91 
Q 1894 -91 1617 61 
Q 1341 213 1159 525 
z
M 3116 1747 
Q 3116 2381 2855 2742 
Q 2594 3103 2138 3103 
Q 1681 3103 1420 2742 
Q 1159 2381 1159 1747 
Q 1159 1113 1420 752 
Q 1681 391 2138 391 
Q 2594 391 2855 752 
Q 3116 1113 3116 1747 
z
" transform="scale(0.015625)"/>
       <path id="DejaVuSans-2d" d="M 313 2009 
L 1997 2009 
L 1997 1497 
L 313 1497 
L 313 2009 
z
" transform="scale(0.015625)"/>
       <path id="DejaVuSans-53" d="M 3425 4513 
L 3425 3897 
Q 3066 4069 2747 4153 
Q 2428 4238 2131 4238 
Q 1616 4238 1336 4038 
Q 1056 3838 1056 3469 
Q 1056 3159 1242 3001 
Q 1428 2844 1947 2747 
L 2328 2669 
Q 3034 2534 3370 2195 
Q 3706 1856 3706 1288 
Q 3706 609 3251 259 
Q 2797 -91 1919 -91 
Q 1588 -91 1214 -16 
Q 841 59 441 206 
L 441 856 
Q 825 641 1194 531 
Q 1563 422 1919 422 
Q 2459 422 2753 634 
Q 3047 847 3047 1241 
Q 3047 1584 2836 1778 
Q 2625 1972 2144 2069 
L 1759 2144 
Q 1053 2284 737 2584 
Q 422 2884 422 3419 
Q 422 4038 858 4394 
Q 1294 4750 2059 4750 
Q 2388 4750 2728 4690 
Q 3069 4631 3425 4513 
z
" transform="scale(0.015625)"/>
       <path id="DejaVuSans-61" d="M 2194 1759 
Q 1497 1759 1228 1600 
Q 959 1441 959 1056 
Q 959 750 1161 570 
Q 1363 391 1709 391 
Q 2188 391 2477 730 
Q 2766 1069 2766 1631 
L 2766 1759 
L 2194 1759 
z
M 3341 1997 
L 3341 0 
L 2766 0 
L 2766 531 
Q 2569 213 2275 61 
Q 1981 -91 1556 -91 
Q 1019 -91 701 211 
Q 384 513 384 1019 
Q 384 1609 779 1909 
Q 1175 2209 1959 2209 
L 2766 2209 
L 2766 2266 
Q 2766 2663 2505 2880 
Q 2244 3097 1772 3097 
Q 1472 3097 1187 3025 
Q 903 2953 641 2809 
L 641 3341 
Q 956 3463 1253 3523 
Q 1550 3584 1831 3584 
Q 2591 3584 2966 3190 
Q 3341 2797 3341 1997 
z
" transform="scale(0.015625)"/>
       <path id="DejaVuSans-20" transform="scale(0.015625)"/>
       <path id="DejaVuSans-43" d="M 4122 4306 
L 4122 3641 
Q 3803 3938 3442 4084 
Q 3081 4231 2675 4231 
Q 1875 4231 1450 3742 
Q 1025 3253 1025 2328 
Q 1025 1406 1450 917 
Q 1875 428 2675 428 
Q 3081 428 3442 575 
Q 3803 722 4122 1019 
L 4122 359 
Q 3791 134 3420 21 
Q 3050 -91 2638 -91 
Q 1578 -91 968 557 
Q 359 1206 359 2328 
Q 359 3453 968 4101 
Q 1578 4750 2638 4750 
Q 3056 4750 3426 4639 
Q 3797 4528 4122 4306 
z
" transform="scale(0.015625)"/>
       <path id="DejaVuSans-63" d="M 3122 3366 
L 3122 2828 
Q 2878 2963 2633 3030 
Q 2388 3097 2138 3097 
Q 1578 3097 1268 2742 
Q 959 2388 959 1747 
Q 959 1106 1268 751 
Q 1578 397 2138 397 
Q 2388 397 2633 464 
Q 2878 531 3122 666 
L 3122 134 
Q 2881 22 2623 -34 
Q 2366 -91 2075 -91 
Q 1284 -91 818 406 
Q 353 903 353 1747 
Q 353 2603 823 3093 
Q 1294 3584 2113 3584 
Q 2378 3584 2631 3529 
Q 2884 3475 3122 3366 
z
" transform="scale(0.015625)"/>
       <path id="DejaVuSans-69" d="M 603 3500 
L 1178 3500 
L 1178 0 
L 603 0 
L 603 3500 
z
M 603 4863 
L 1178 4863 
L 1178 4134 
L 603 4134 
L 603 4863 
z
" transform="scale(0.015625)"/>
       <path id="DejaVuSans-74" d="M 1172 4494 
L 1172 3500 
L 2356 3500 
L 2356 3053 
L 1172 3053 
L 1172 1153 
Q 1172 725 1289 603 
Q 1406 481 1766 481 
L 2356 481 
L 2356 0 
L 1766 0 
Q 1100 0 847 248 
Q 594 497 594 1153 
L 594 3053 
L 172 3053 
L 172 3500 
L 594 3500 
L 594 4494 
L 1172 4494 
z
" transform="scale(0.015625)"/>
       <path id="DejaVuSans-79" d="M 2059 -325 
Q 1816 -950 1584 -1140 
Q 1353 -1331 966 -1331 
L 506 -1331 
L 506 -850 
L 844 -850 
Q 1081 -850 1212 -737 
Q 1344 -625 1503 -206 
L 1606 56 
L 191 3500 
L 800 3500 
L 1894 763 
L 2988 3500 
L 3597 3500 
L 2059 -325 
z
" transform="scale(0.015625)"/>
       <path id="DejaVuSans-50" d="M 1259 4147 
L 1259 2394 
L 2053 2394 
Q 2494 2394 2734 2622 
Q 2975 2850 2975 3272 
Q 2975 3691 2734 3919 
Q 2494 4147 2053 4147 
L 1259 4147 
z
M 628 4666 
L 2053 4666 
Q 2838 4666 3239 4311 
Q 3641 3956 3641 3272 
Q 3641 2581 3239 2228 
Q 2838 1875 2053 1875 
L 1259 1875 
L 1259 0 
L 628 0 
L 628 4666 
z
" transform="scale(0.015625)"/>
       <path id="DejaVuSans-72" d="M 2631 2963 
Q 2534 3019 2420 3045 
Q 2306 3072 2169 3072 
Q 1681 3072 1420 2755 
Q 1159 2438 1159 1844 
L 1159 0 
L 581 0 
L 581 3500 
L 1159 3500 
L 1159 2956 
Q 1341 3275 1631 3429 
Q 1922 3584 2338 3584 
Q 2397 3584 2469 3576 
Q 2541 3569 2628 3553 
L 2631 2963 
z
" transform="scale(0.015625)"/>
       <path id="DejaVuSans-73" d="M 2834 3397 
L 2834 2853 
Q 2591 2978 2328 3040 
Q 2066 3103 1784 3103 
Q 1356 3103 1142 2972 
Q 928 2841 928 2578 
Q 928 2378 1081 2264 
Q 1234 2150 1697 2047 
L 1894 2003 
Q 2506 1872 2764 1633 
Q 3022 1394 3022 966 
Q 3022 478 2636 193 
Q 2250 -91 1575 -91 
Q 1294 -91 989 -36 
Q 684 19 347 128 
L 347 722 
Q 666 556 975 473 
Q 1284 391 1588 391 
Q 1994 391 2212 530 
Q 2431 669 2431 922 
Q 2431 1156 2273 1281 
Q 2116 1406 1581 1522 
L 1381 1569 
Q 847 1681 609 1914 
Q 372 2147 372 2553 
Q 372 3047 722 3315 
Q 1072 3584 1716 3584 
Q 2034 3584 2315 3537 
Q 2597 3491 2834 3397 
z
" transform="scale(0.015625)"/>
       <path id="DejaVuSans-6e" d="M 3513 2113 
L 3513 0 
L 2938 0 
L 2938 2094 
Q 2938 2591 2744 2837 
Q 2550 3084 2163 3084 
Q 1697 3084 1428 2787 
Q 1159 2491 1159 1978 
L 1159 0 
L 581 0 
L 581 3500 
L 1159 3500 
L 1159 2956 
Q 1366 3272 1645 3428 
Q 1925 3584 2291 3584 
Q 2894 3584 3203 3211 
Q 3513 2838 3513 2113 
z
" transform="scale(0.015625)"/>
       <path id="DejaVuSans-49" d="M 628 4666 
L 1259 4666 
L 1259 0 
L 628 0 
L 628 4666 
z
" transform="scale(0.015625)"/>
       <path id="DejaVuSans-64" d="M 2906 2969 
L 2906 4863 
L 3481 4863 
L 3481 0 
L 2906 0 
L 2906 525 
Q 2725 213 2448 61 
Q 2172 -91 1784 -91 
Q 1150 -91 751 415 
Q 353 922 353 1747 
Q 353 2572 751 3078 
Q 1150 3584 1784 3584 
Q 2172 3584 2448 3432 
Q 2725 3281 2906 2969 
z
M 947 1747 
Q 947 1113 1208 752 
Q 1469 391 1925 391 
Q 2381 391 2643 752 
Q 2906 1113 2906 1747 
Q 2906 2381 2643 2742 
Q 2381 3103 1925 3103 
Q 1469 3103 1208 2742 
Q 947 2381 947 1747 
z
" transform="scale(0.015625)"/>
       <path id="DejaVuSans-78" d="M 3513 3500 
L 2247 1797 
L 3578 0 
L 2900 0 
L 1881 1375 
L 863 0 
L 184 0 
L 1544 1831 
L 300 3500 
L 978 3500 
L 1906 2253 
L 2834 3500 
L 3513 3500 
z
" transform="scale(0.015625)"/>
      </defs>
      <use xlink:href="#DejaVuSans-44"/>
      <use xlink:href="#DejaVuSans-65" x="77.001953"/>
      <use xlink:href="#DejaVuSans-65" x="138.525391"/>
      <use xlink:href="#DejaVuSans-70" x="200.048828"/>
      <use xlink:href="#DejaVuSans-2d" x="263.525391"/>
      <use xlink:href="#DejaVuSans-53" x="299.609375"/>
      <use xlink:href="#DejaVuSans-65" x="363.085938"/>
      <use xlink:href="#DejaVuSans-61" x="424.609375"/>
      <use xlink:href="#DejaVuSans-20" x="485.888672"/>
      <use xlink:href="#DejaVuSans-43" x="517.675781"/>
      <use xlink:href="#DejaVuSans-61" x="587.5"/>
      <use xlink:href="#DejaVuSans-70" x="648.779297"/>
      <use xlink:href="#DejaVuSans-61" x="712.255859"/>
      <use xlink:href="#DejaVuSans-63" x="773.535156"/>
      <use xlink:href="#DejaVuSans-69" x="828.515625"/>
      <use xlink:href="#DejaVuSans-74" x="856.298828"/>
      <use xlink:href="#DejaVuSans-79" x="895.507812"/>
      <use xlink:href="#DejaVuSans-20" x="954.6875"/>
      <use xlink:href="#DejaVuSans-50" x="986.474609"/>
      <use xlink:href="#DejaVuSans-72" x="1045.027344"/>
      <use xlink:href="#DejaVuSans-65" x="1083.890625"/>
      <use xlink:href="#DejaVuSans-73" x="1145.414062"/>
      <use xlink:href="#DejaVuSans-65" x="1197.513672"/>
      <use xlink:href="#DejaVuSans-6e" x="1259.037109"/>
      <use xlink:href="#DejaVuSans-63" x="1322.416016"/>
      <use xlink:href="#DejaVuSans-65" x="1377.396484"/>
      <use xlink:href="#DejaVuSans-20" x="1438.919922"/>
      <use xlink:href="#DejaVuSans-49" x="1470.707031"/>
      <use xlink:href="#DejaVuSans-6e" x="1500.199219"/>
      <use xlink:href="#DejaVuSans-64" x="1563.578125"/>
      <use xlink:href="#DejaVuSans-65" x="1627.054688"/>
      <use xlink:href="#DejaVuSans-78" x="1686.828125"/>
     </g>
    </g>
   </g>
   <g id="matplotlib.axis_2">
    <g id="ytick_1">
     <g id="line2d_6">
      <defs>
       <path id="m20f06c870e" d="M 0 0 
L -3.5 0 
" style="stroke: #000000; stroke-width: 0.8"/>
      </defs>
      <g>
       <use xlink:href="#m20f06c870e" x="40.656875" y="299.680435" style="stroke: #000000; stroke-width: 0.8"/>
      </g>
     </g>
     <g id="text_7">
      <!-- 1 -->
      <g transform="translate(24.749375 304.999341)scale(0.14 -0.14)">
       <use xlink:href="#DejaVuSans-31"/>
      </g>
     </g>
    </g>
    <g id="ytick_2">
     <g id="line2d_7">
      <g>
       <use xlink:href="#m20f06c870e" x="40.656875" y="233.207609" style="stroke: #000000; stroke-width: 0.8"/>
      </g>
     </g>
     <g id="text_8">
      <!-- 2 -->
      <g transform="translate(24.749375 238.526515)scale(0.14 -0.14)">
       <use xlink:href="#DejaVuSans-32"/>
      </g>
     </g>
    </g>
    <g id="ytick_3">
     <g id="line2d_8">
      <g>
       <use xlink:href="#m20f06c870e" x="40.656875" y="166.734783" style="stroke: #000000; stroke-width: 0.8"/>
      </g>
     </g>
     <g id="text_9">
      <!-- 3 -->
      <g transform="translate(24.749375 172.053689)scale(0.14 -0.14)">
       <use xlink:href="#DejaVuSans-33"/>
      </g>
     </g>
    </g>
    <g id="ytick_4">
     <g id="line2d_9">
      <g>
       <use xlink:href="#m20f06c870e" x="40.656875" y="100.261957" style="stroke: #000000; stroke-width: 0.8"/>
      </g>
     </g>
     <g id="text_10">
      <!-- 4 -->
      <g transform="translate(24.749375 105.580863)scale(0.14 -0.14)">
       <use xlink:href="#DejaVuSans-34"/>
      </g>
     </g>
    </g>
    <g id="ytick_5">
     <g id="line2d_10">
      <g>
       <use xlink:href="#m20f06c870e" x="40.656875" y="33.78913" style="stroke: #000000; stroke-width: 0.8"/>
      </g>
     </g>
     <g id="text_11">
      <!-- 5 -->
      <g transform="translate(24.749375 39.108037)scale(0.14 -0.14)">
       <use xlink:href="#DejaVuSans-35"/>
      </g>
     </g>
    </g>
    <g id="text_12">
     <!-- Deep-Sea Capacity Accessibility Index -->
     <g transform="translate(17.837813 293.715312)rotate(-90)scale(0.14 -0.14)">
      <defs>
       <path id="DejaVuSans-41" d="M 2188 4044 
L 1331 1722 
L 3047 1722 
L 2188 4044 
z
M 1831 4666 
L 2547 4666 
L 4325 0 
L 3669 0 
L 3244 1197 
L 1141 1197 
L 716 0 
L 50 0 
L 1831 4666 
z
" transform="scale(0.015625)"/>
       <path id="DejaVuSans-62" d="M 3116 1747 
Q 3116 2381 2855 2742 
Q 2594 3103 2138 3103 
Q 1681 3103 1420 2742 
Q 1159 2381 1159 1747 
Q 1159 1113 1420 752 
Q 1681 391 2138 391 
Q 2594 391 2855 752 
Q 3116 1113 3116 1747 
z
M 1159 2969 
Q 1341 3281 1617 3432 
Q 1894 3584 2278 3584 
Q 2916 3584 3314 3078 
Q 3713 2572 3713 1747 
Q 3713 922 3314 415 
Q 2916 -91 2278 -91 
Q 1894 -91 1617 61 
Q 1341 213 1159 525 
L 1159 0 
L 581 0 
L 581 4863 
L 1159 4863 
L 1159 2969 
z
" transform="scale(0.015625)"/>
       <path id="DejaVuSans-6c" d="M 603 4863 
L 1178 4863 
L 1178 0 
L 603 0 
L 603 4863 
z
" transform="scale(0.015625)"/>
      </defs>
      <use xlink:href="#DejaVuSans-44"/>
      <use xlink:href="#DejaVuSans-65" x="77.001953"/>
      <use xlink:href="#DejaVuSans-65" x="138.525391"/>
      <use xlink:href="#DejaVuSans-70" x="200.048828"/>
      <use xlink:href="#DejaVuSans-2d" x="263.525391"/>
      <use xlink:href="#DejaVuSans-53" x="299.609375"/>
      <use xlink:href="#DejaVuSans-65" x="363.085938"/>
      <use xlink:href="#DejaVuSans-61" x="424.609375"/>
      <use xlink:href="#DejaVuSans-20" x="485.888672"/>
      <use xlink:href="#DejaVuSans-43" x="517.675781"/>
      <use xlink:href="#DejaVuSans-61" x="587.5"/>
      <use xlink:href="#DejaVuSans-70" x="648.779297"/>
      <use xlink:href="#DejaVuSans-61" x="712.255859"/>
      <use xlink:href="#DejaVuSans-63" x="773.535156"/>
      <use xlink:href="#DejaVuSans-69" x="828.515625"/>
      <use xlink:href="#DejaVuSans-74" x="856.298828"/>
      <use xlink:href="#DejaVuSans-79" x="895.507812"/>
      <use xlink:href="#DejaVuSans-20" x="954.6875"/>
      <use xlink:href="#DejaVuSans-41" x="986.474609"/>
      <use xlink:href="#DejaVuSans-63" x="1053.132812"/>
      <use xlink:href="#DejaVuSans-63" x="1108.113281"/>
      <use xlink:href="#DejaVuSans-65" x="1163.09375"/>
      <use xlink:href="#DejaVuSans-73" x="1224.617188"/>
      <use xlink:href="#DejaVuSans-73" x="1276.716797"/>
      <use xlink:href="#DejaVuSans-69" x="1328.816406"/>
      <use xlink:href="#DejaVuSans-62" x="1356.599609"/>
      <use xlink:href="#DejaVuSans-69" x="1420.076172"/>
      <use xlink:href="#DejaVuSans-6c" x="1447.859375"/>
      <use xlink:href="#DejaVuSans-69" x="1475.642578"/>
      <use xlink:href="#DejaVuSans-74" x="1503.425781"/>
      <use xlink:href="#DejaVuSans-79" x="1542.634766"/>
      <use xlink:href="#DejaVuSans-20" x="1601.814453"/>
      <use xlink:href="#DejaVuSans-49" x="1633.601562"/>
      <use xlink:href="#DejaVuSans-6e" x="1663.09375"/>
      <use xlink:href="#DejaVuSans-64" x="1726.472656"/>
      <use xlink:href="#DejaVuSans-65" x="1789.949219"/>
      <use xlink:href="#DejaVuSans-78" x="1849.722656"/>
     </g>
    </g>
   </g>
   <g id="patch_3">
    <path d="M 40.656875 312.975 
L 40.656875 7.2 
" style="fill: none; stroke: #000000; stroke-width: 0.8; stroke-linejoin: miter; stroke-linecap: square"/>
   </g>
   <g id="patch_4">
    <path d="M 40.656875 312.975 
L 598.656875 312.975 
" style="fill: none; stroke: #000000; stroke-width: 0.8; stroke-linejoin: miter; stroke-linecap: square"/>
   </g>
  </g>
 </g>
 <defs>
  <clipPath id="p9d1c03e979">
   <rect x="40.656875" y="7.2" width="558" height="305.775"/>
  </clipPath>
 </defs>
</svg>
