<?xml version="1.0" encoding="utf-8" standalone="no"?>
<!DOCTYPE svg PUBLIC "-//W3C//DTD SVG 1.1//EN"
  "http://www.w3.org/Graphics/SVG/1.1/DTD/svg11.dtd">
<svg xmlns:xlink="http://www.w3.org/1999/xlink" width="783.694687pt" height="346.043281pt" viewBox="0 0 783.694687 346.043281" xmlns="http://www.w3.org/2000/svg" version="1.1">
 <metadata>
  <rdf:RDF xmlns:dc="http://purl.org/dc/elements/1.1/" xmlns:cc="http://creativecommons.org/ns#" xmlns:rdf="http://www.w3.org/1999/02/22-rdf-syntax-ns#">
   <cc:Work>
    <dc:type rdf:resource="http://purl.org/dc/dcmitype/StillImage"/>
    <dc:date>2022-10-04T09:42:39.673468</dc:date>
    <dc:format>image/svg+xml</dc:format>
    <dc:creator>
     <cc:Agent>
      <dc:title>Matplotlib v3.5.1, https://matplotlib.org/</dc:title>
     </cc:Agent>
    </dc:creator>
   </cc:Work>
  </rdf:RDF>
 </metadata>
 <defs>
  <style type="text/css">*{stroke-linejoin: round; stroke-linecap: butt}</style>
 </defs>
 <g id="figure_1">
  <g id="patch_1">
   <path d="M 0 346.043281 
L 783.694687 346.043281 
L 783.694687 0 
L 0 0 
L 0 346.043281 
z
" style="fill: none"/>
  </g>
  <g id="axes_1">
   <g id="patch_2">
    <path d="M 58.471875 318.293906 
L 616.471875 318.293906 
L 616.471875 12.518906 
L 58.471875 12.518906 
L 58.471875 318.293906 
z
" style="fill: none"/>
   </g>
   <g id="patch_3">
    <path d="M 93.346875 318.293906 
L 163.096875 318.293906 
L 163.096875 290.254339 
L 93.346875 290.254339 
z
" clip-path="url(#pb4d1595c17)" style="fill: #194958; stroke: #ffffff; stroke-linejoin: miter"/>
   </g>
   <g id="patch_4">
    <path d="M 232.846875 318.293906 
L 302.596875 318.293906 
L 302.596875 241.850156 
L 232.846875 241.850156 
z
" clip-path="url(#pb4d1595c17)" style="fill: #194958; stroke: #ffffff; stroke-linejoin: miter"/>
   </g>
   <g id="patch_5">
    <path d="M 372.346875 318.293906 
L 442.096875 318.293906 
L 442.096875 244.571554 
L 372.346875 244.571554 
z
" clip-path="url(#pb4d1595c17)" style="fill: #194958; stroke: #ffffff; stroke-linejoin: miter"/>
   </g>
   <g id="patch_6">
    <path d="M 511.846875 318.293906 
L 581.596875 318.293906 
L 581.596875 264.599816 
L 511.846875 264.599816 
z
" clip-path="url(#pb4d1595c17)" style="fill: #194958; stroke: #ffffff; stroke-linejoin: miter"/>
   </g>
   <g id="patch_7">
    <path d="M 93.346875 290.254339 
L 163.096875 290.254339 
L 163.096875 216.348521 
L 93.346875 216.348521 
z
" clip-path="url(#pb4d1595c17)" style="fill: #c6744c; stroke: #ffffff; stroke-linejoin: miter"/>
   </g>
   <g id="patch_8">
    <path d="M 232.846875 241.850156 
L 302.596875 241.850156 
L 302.596875 186.627191 
L 232.846875 186.627191 
z
" clip-path="url(#pb4d1595c17)" style="fill: #c6744c; stroke: #ffffff; stroke-linejoin: miter"/>
   </g>
   <g id="patch_9">
    <path d="M 372.346875 244.571554 
L 442.096875 244.571554 
L 442.096875 184.517344 
L 372.346875 184.517344 
z
" clip-path="url(#pb4d1595c17)" style="fill: #c6744c; stroke: #ffffff; stroke-linejoin: miter"/>
   </g>
   <g id="patch_10">
    <path d="M 511.846875 264.599816 
L 581.596875 264.599816 
L 581.596875 220.262441 
L 511.846875 220.262441 
z
" clip-path="url(#pb4d1595c17)" style="fill: #c6744c; stroke: #ffffff; stroke-linejoin: miter"/>
   </g>
   <g id="patch_11">
    <path d="M 93.346875 216.348521 
L 163.096875 216.348521 
L 163.096875 175.588714 
L 93.346875 175.588714 
z
" clip-path="url(#pb4d1595c17)" style="fill: #dbc064; stroke: #ffffff; stroke-linejoin: miter"/>
   </g>
   <g id="patch_12">
    <path d="M 232.846875 186.627191 
L 302.596875 186.627191 
L 302.596875 152.655589 
L 232.846875 152.655589 
z
" clip-path="url(#pb4d1595c17)" style="fill: #dbc064; stroke: #ffffff; stroke-linejoin: miter"/>
   </g>
   <g id="patch_13">
    <path d="M 372.346875 184.517344 
L 442.096875 184.517344 
L 442.096875 138.100699 
L 372.346875 138.100699 
z
" clip-path="url(#pb4d1595c17)" style="fill: #dbc064; stroke: #ffffff; stroke-linejoin: miter"/>
   </g>
   <g id="patch_14">
    <path d="M 511.846875 220.262441 
L 581.596875 220.262441 
L 581.596875 168.922819 
L 511.846875 168.922819 
z
" clip-path="url(#pb4d1595c17)" style="fill: #dbc064; stroke: #ffffff; stroke-linejoin: miter"/>
   </g>
   <g id="patch_15">
    <path d="M 93.346875 175.588714 
L 163.096875 175.588714 
L 163.096875 142.473281 
L 93.346875 142.473281 
z
" clip-path="url(#pb4d1595c17)" style="fill: #368d95; stroke: #ffffff; stroke-linejoin: miter"/>
   </g>
   <g id="patch_16">
    <path d="M 232.846875 152.655589 
L 302.596875 152.655589 
L 302.596875 105.933169 
L 232.846875 105.933169 
z
" clip-path="url(#pb4d1595c17)" style="fill: #368d95; stroke: #ffffff; stroke-linejoin: miter"/>
   </g>
   <g id="patch_17">
    <path d="M 372.346875 138.100699 
L 442.096875 138.100699 
L 442.096875 102.600221 
L 372.346875 102.600221 
z
" clip-path="url(#pb4d1595c17)" style="fill: #368d95; stroke: #ffffff; stroke-linejoin: miter"/>
   </g>
   <g id="patch_18">
    <path d="M 511.846875 168.922819 
L 581.596875 168.922819 
L 581.596875 126.909334 
L 511.846875 126.909334 
z
" clip-path="url(#pb4d1595c17)" style="fill: #368d95; stroke: #ffffff; stroke-linejoin: miter"/>
   </g>
   <g id="patch_19">
    <path d="M 93.346875 142.473281 
L 163.096875 142.473281 
L 163.096875 104.251406 
L 93.346875 104.251406 
z
" clip-path="url(#pb4d1595c17)" style="fill: #3b3c78; stroke: #ffffff; stroke-linejoin: miter"/>
   </g>
   <g id="patch_20">
    <path d="M 232.846875 105.933169 
L 302.596875 105.933169 
L 302.596875 88.932079 
L 232.846875 88.932079 
z
" clip-path="url(#pb4d1595c17)" style="fill: #3b3c78; stroke: #ffffff; stroke-linejoin: miter"/>
   </g>
   <g id="patch_21">
    <path d="M 372.346875 102.600221 
L 442.096875 102.600221 
L 442.096875 64.378346 
L 372.346875 64.378346 
z
" clip-path="url(#pb4d1595c17)" style="fill: #3b3c78; stroke: #ffffff; stroke-linejoin: miter"/>
   </g>
   <g id="patch_22">
    <path d="M 511.846875 126.909334 
L 581.596875 126.909334 
L 581.596875 89.574206 
L 511.846875 89.574206 
z
" clip-path="url(#pb4d1595c17)" style="fill: #3b3c78; stroke: #ffffff; stroke-linejoin: miter"/>
   </g>
   <g id="patch_23">
    <path d="M 93.346875 104.251406 
L 163.096875 104.251406 
L 163.096875 60.923089 
L 93.346875 60.923089 
z
" clip-path="url(#pb4d1595c17)" style="fill: #7ea56b; stroke: #ffffff; stroke-linejoin: miter"/>
   </g>
   <g id="patch_24">
    <path d="M 232.846875 88.932079 
L 302.596875 88.932079 
L 302.596875 50.710204 
L 232.846875 50.710204 
z
" clip-path="url(#pb4d1595c17)" style="fill: #7ea56b; stroke: #ffffff; stroke-linejoin: miter"/>
   </g>
   <g id="patch_25">
    <path d="M 372.346875 64.378346 
L 442.096875 64.378346 
L 442.096875 42.546011 
L 372.346875 42.546011 
z
" clip-path="url(#pb4d1595c17)" style="fill: #7ea56b; stroke: #ffffff; stroke-linejoin: miter"/>
   </g>
   <g id="patch_26">
    <path d="M 511.846875 89.574206 
L 581.596875 89.574206 
L 581.596875 54.562969 
L 511.846875 54.562969 
z
" clip-path="url(#pb4d1595c17)" style="fill: #7ea56b; stroke: #ffffff; stroke-linejoin: miter"/>
   </g>
   <g id="patch_27">
    <path d="M 93.346875 60.923089 
L 163.096875 60.923089 
L 163.096875 15.056839 
L 93.346875 15.056839 
z
" clip-path="url(#pb4d1595c17)" style="fill: #011b44; stroke: #ffffff; stroke-linejoin: miter"/>
   </g>
   <g id="patch_28">
    <path d="M 232.846875 50.710204 
L 302.596875 50.710204 
L 302.596875 25.239146 
L 232.846875 25.239146 
z
" clip-path="url(#pb4d1595c17)" style="fill: #011b44; stroke: #ffffff; stroke-linejoin: miter"/>
   </g>
   <g id="patch_29">
    <path d="M 372.346875 42.546011 
L 442.096875 42.546011 
L 442.096875 20.713676 
L 372.346875 20.713676 
z
" clip-path="url(#pb4d1595c17)" style="fill: #011b44; stroke: #ffffff; stroke-linejoin: miter"/>
   </g>
   <g id="patch_30">
    <path d="M 511.846875 54.562969 
L 581.596875 54.562969 
L 581.596875 21.875621 
L 511.846875 21.875621 
z
" clip-path="url(#pb4d1595c17)" style="fill: #011b44; stroke: #ffffff; stroke-linejoin: miter"/>
   </g>
   <g id="patch_31">
    <path d="M 93.346875 15.056839 
L 163.096875 15.056839 
L 163.096875 12.518906 
L 93.346875 12.518906 
z
" clip-path="url(#pb4d1595c17)" style="fill: #d4d4d4; stroke: #ffffff; stroke-linejoin: miter"/>
   </g>
   <g id="patch_32">
    <path d="M 232.846875 25.239146 
L 302.596875 25.239146 
L 302.596875 12.488329 
L 232.846875 12.488329 
z
" clip-path="url(#pb4d1595c17)" style="fill: #d4d4d4; stroke: #ffffff; stroke-linejoin: miter"/>
   </g>
   <g id="patch_33">
    <path d="M 372.346875 20.713676 
L 442.096875 20.713676 
L 442.096875 12.518906 
L 372.346875 12.518906 
z
" clip-path="url(#pb4d1595c17)" style="fill: #d4d4d4; stroke: #ffffff; stroke-linejoin: miter"/>
   </g>
   <g id="patch_34">
    <path d="M 511.846875 21.875621 
L 581.596875 21.875621 
L 581.596875 12.549484 
L 511.846875 12.549484 
z
" clip-path="url(#pb4d1595c17)" style="fill: #d4d4d4; stroke: #ffffff; stroke-linejoin: miter"/>
   </g>
   <g id="matplotlib.axis_1">
    <g id="xtick_1">
     <g id="line2d_1">
      <defs>
       <path id="mb0b6be1834" d="M 0 0 
L 0 3.5 
" style="stroke: #000000; stroke-width: 0.8"/>
      </defs>
      <g>
       <use xlink:href="#mb0b6be1834" x="128.221875" y="318.293906" style="stroke: #000000; stroke-width: 0.8"/>
      </g>
     </g>
     <g id="text_1">
      <!-- N America -->
      <g transform="translate(91.885312 335.931719)scale(0.14 -0.14)">
       <defs>
        <path id="DejaVuSans-4e" d="M 628 4666 
L 1478 4666 
L 3547 763 
L 3547 4666 
L 4159 4666 
L 4159 0 
L 3309 0 
L 1241 3903 
L 1241 0 
L 628 0 
L 628 4666 
z
" transform="scale(0.015625)"/>
        <path id="DejaVuSans-20" transform="scale(0.015625)"/>
        <path id="DejaVuSans-41" d="M 2188 4044 
L 1331 1722 
L 3047 1722 
L 2188 4044 
z
M 1831 4666 
L 2547 4666 
L 4325 0 
L 3669 0 
L 3244 1197 
L 1141 1197 
L 716 0 
L 50 0 
L 1831 4666 
z
" transform="scale(0.015625)"/>
        <path id="DejaVuSans-6d" d="M 3328 2828 
Q 3544 3216 3844 3400 
Q 4144 3584 4550 3584 
Q 5097 3584 5394 3201 
Q 5691 2819 5691 2113 
L 5691 0 
L 5113 0 
L 5113 2094 
Q 5113 2597 4934 2840 
Q 4756 3084 4391 3084 
Q 3944 3084 3684 2787 
Q 3425 2491 3425 1978 
L 3425 0 
L 2847 0 
L 2847 2094 
Q 2847 2600 2669 2842 
Q 2491 3084 2119 3084 
Q 1678 3084 1418 2786 
Q 1159 2488 1159 1978 
L 1159 0 
L 581 0 
L 581 3500 
L 1159 3500 
L 1159 2956 
Q 1356 3278 1631 3431 
Q 1906 3584 2284 3584 
Q 2666 3584 2933 3390 
Q 3200 3197 3328 2828 
z
" transform="scale(0.015625)"/>
        <path id="DejaVuSans-65" d="M 3597 1894 
L 3597 1613 
L 953 1613 
Q 991 1019 1311 708 
Q 1631 397 2203 397 
Q 2534 397 2845 478 
Q 3156 559 3463 722 
L 3463 178 
Q 3153 47 2828 -22 
Q 2503 -91 2169 -91 
Q 1331 -91 842 396 
Q 353 884 353 1716 
Q 353 2575 817 3079 
Q 1281 3584 2069 3584 
Q 2775 3584 3186 3129 
Q 3597 2675 3597 1894 
z
M 3022 2063 
Q 3016 2534 2758 2815 
Q 2500 3097 2075 3097 
Q 1594 3097 1305 2825 
Q 1016 2553 972 2059 
L 3022 2063 
z
" transform="scale(0.015625)"/>
        <path id="DejaVuSans-72" d="M 2631 2963 
Q 2534 3019 2420 3045 
Q 2306 3072 2169 3072 
Q 1681 3072 1420 2755 
Q 1159 2438 1159 1844 
L 1159 0 
L 581 0 
L 581 3500 
L 1159 3500 
L 1159 2956 
Q 1341 3275 1631 3429 
Q 1922 3584 2338 3584 
Q 2397 3584 2469 3576 
Q 2541 3569 2628 3553 
L 2631 2963 
z
" transform="scale(0.015625)"/>
        <path id="DejaVuSans-69" d="M 603 3500 
L 1178 3500 
L 1178 0 
L 603 0 
L 603 3500 
z
M 603 4863 
L 1178 4863 
L 1178 4134 
L 603 4134 
L 603 4863 
z
" transform="scale(0.015625)"/>
        <path id="DejaVuSans-63" d="M 3122 3366 
L 3122 2828 
Q 2878 2963 2633 3030 
Q 2388 3097 2138 3097 
Q 1578 3097 1268 2742 
Q 959 2388 959 1747 
Q 959 1106 1268 751 
Q 1578 397 2138 397 
Q 2388 397 2633 464 
Q 2878 531 3122 666 
L 3122 134 
Q 2881 22 2623 -34 
Q 2366 -91 2075 -91 
Q 1284 -91 818 406 
Q 353 903 353 1747 
Q 353 2603 823 3093 
Q 1294 3584 2113 3584 
Q 2378 3584 2631 3529 
Q 2884 3475 3122 3366 
z
" transform="scale(0.015625)"/>
        <path id="DejaVuSans-61" d="M 2194 1759 
Q 1497 1759 1228 1600 
Q 959 1441 959 1056 
Q 959 750 1161 570 
Q 1363 391 1709 391 
Q 2188 391 2477 730 
Q 2766 1069 2766 1631 
L 2766 1759 
L 2194 1759 
z
M 3341 1997 
L 3341 0 
L 2766 0 
L 2766 531 
Q 2569 213 2275 61 
Q 1981 -91 1556 -91 
Q 1019 -91 701 211 
Q 384 513 384 1019 
Q 384 1609 779 1909 
Q 1175 2209 1959 2209 
L 2766 2209 
L 2766 2266 
Q 2766 2663 2505 2880 
Q 2244 3097 1772 3097 
Q 1472 3097 1187 3025 
Q 903 2953 641 2809 
L 641 3341 
Q 956 3463 1253 3523 
Q 1550 3584 1831 3584 
Q 2591 3584 2966 3190 
Q 3341 2797 3341 1997 
z
" transform="scale(0.015625)"/>
       </defs>
       <use xlink:href="#DejaVuSans-4e"/>
       <use xlink:href="#DejaVuSans-20" x="74.804688"/>
       <use xlink:href="#DejaVuSans-41" x="106.591797"/>
       <use xlink:href="#DejaVuSans-6d" x="175"/>
       <use xlink:href="#DejaVuSans-65" x="272.412109"/>
       <use xlink:href="#DejaVuSans-72" x="333.935547"/>
       <use xlink:href="#DejaVuSans-69" x="375.048828"/>
       <use xlink:href="#DejaVuSans-63" x="402.832031"/>
       <use xlink:href="#DejaVuSans-61" x="457.8125"/>
      </g>
     </g>
    </g>
    <g id="xtick_2">
     <g id="line2d_2">
      <g>
       <use xlink:href="#mb0b6be1834" x="267.721875" y="318.293906" style="stroke: #000000; stroke-width: 0.8"/>
      </g>
     </g>
     <g id="text_2">
      <!-- Central America -->
      <g transform="translate(211.134531 335.931719)scale(0.14 -0.14)">
       <defs>
        <path id="DejaVuSans-43" d="M 4122 4306 
L 4122 3641 
Q 3803 3938 3442 4084 
Q 3081 4231 2675 4231 
Q 1875 4231 1450 3742 
Q 1025 3253 1025 2328 
Q 1025 1406 1450 917 
Q 1875 428 2675 428 
Q 3081 428 3442 575 
Q 3803 722 4122 1019 
L 4122 359 
Q 3791 134 3420 21 
Q 3050 -91 2638 -91 
Q 1578 -91 968 557 
Q 359 1206 359 2328 
Q 359 3453 968 4101 
Q 1578 4750 2638 4750 
Q 3056 4750 3426 4639 
Q 3797 4528 4122 4306 
z
" transform="scale(0.015625)"/>
        <path id="DejaVuSans-6e" d="M 3513 2113 
L 3513 0 
L 2938 0 
L 2938 2094 
Q 2938 2591 2744 2837 
Q 2550 3084 2163 3084 
Q 1697 3084 1428 2787 
Q 1159 2491 1159 1978 
L 1159 0 
L 581 0 
L 581 3500 
L 1159 3500 
L 1159 2956 
Q 1366 3272 1645 3428 
Q 1925 3584 2291 3584 
Q 2894 3584 3203 3211 
Q 3513 2838 3513 2113 
z
" transform="scale(0.015625)"/>
        <path id="DejaVuSans-74" d="M 1172 4494 
L 1172 3500 
L 2356 3500 
L 2356 3053 
L 1172 3053 
L 1172 1153 
Q 1172 725 1289 603 
Q 1406 481 1766 481 
L 2356 481 
L 2356 0 
L 1766 0 
Q 1100 0 847 248 
Q 594 497 594 1153 
L 594 3053 
L 172 3053 
L 172 3500 
L 594 3500 
L 594 4494 
L 1172 4494 
z
" transform="scale(0.015625)"/>
        <path id="DejaVuSans-6c" d="M 603 4863 
L 1178 4863 
L 1178 0 
L 603 0 
L 603 4863 
z
" transform="scale(0.015625)"/>
       </defs>
       <use xlink:href="#DejaVuSans-43"/>
       <use xlink:href="#DejaVuSans-65" x="69.824219"/>
       <use xlink:href="#DejaVuSans-6e" x="131.347656"/>
       <use xlink:href="#DejaVuSans-74" x="194.726562"/>
       <use xlink:href="#DejaVuSans-72" x="233.935547"/>
       <use xlink:href="#DejaVuSans-61" x="275.048828"/>
       <use xlink:href="#DejaVuSans-6c" x="336.328125"/>
       <use xlink:href="#DejaVuSans-20" x="364.111328"/>
       <use xlink:href="#DejaVuSans-41" x="395.898438"/>
       <use xlink:href="#DejaVuSans-6d" x="464.306641"/>
       <use xlink:href="#DejaVuSans-65" x="561.71875"/>
       <use xlink:href="#DejaVuSans-72" x="623.242188"/>
       <use xlink:href="#DejaVuSans-69" x="664.355469"/>
       <use xlink:href="#DejaVuSans-63" x="692.138672"/>
       <use xlink:href="#DejaVuSans-61" x="747.119141"/>
      </g>
     </g>
    </g>
    <g id="xtick_3">
     <g id="line2d_3">
      <g>
       <use xlink:href="#mb0b6be1834" x="407.221875" y="318.293906" style="stroke: #000000; stroke-width: 0.8"/>
      </g>
     </g>
     <g id="text_3">
      <!-- Caribbean -->
      <g transform="translate(371.300938 335.931719)scale(0.14 -0.14)">
       <defs>
        <path id="DejaVuSans-62" d="M 3116 1747 
Q 3116 2381 2855 2742 
Q 2594 3103 2138 3103 
Q 1681 3103 1420 2742 
Q 1159 2381 1159 1747 
Q 1159 1113 1420 752 
Q 1681 391 2138 391 
Q 2594 391 2855 752 
Q 3116 1113 3116 1747 
z
M 1159 2969 
Q 1341 3281 1617 3432 
Q 1894 3584 2278 3584 
Q 2916 3584 3314 3078 
Q 3713 2572 3713 1747 
Q 3713 922 3314 415 
Q 2916 -91 2278 -91 
Q 1894 -91 1617 61 
Q 1341 213 1159 525 
L 1159 0 
L 581 0 
L 581 4863 
L 1159 4863 
L 1159 2969 
z
" transform="scale(0.015625)"/>
       </defs>
       <use xlink:href="#DejaVuSans-43"/>
       <use xlink:href="#DejaVuSans-61" x="69.824219"/>
       <use xlink:href="#DejaVuSans-72" x="131.103516"/>
       <use xlink:href="#DejaVuSans-69" x="172.216797"/>
       <use xlink:href="#DejaVuSans-62" x="200"/>
       <use xlink:href="#DejaVuSans-62" x="263.476562"/>
       <use xlink:href="#DejaVuSans-65" x="326.953125"/>
       <use xlink:href="#DejaVuSans-61" x="388.476562"/>
       <use xlink:href="#DejaVuSans-6e" x="449.755859"/>
      </g>
     </g>
    </g>
    <g id="xtick_4">
     <g id="line2d_4">
      <g>
       <use xlink:href="#mb0b6be1834" x="546.721875" y="318.293906" style="stroke: #000000; stroke-width: 0.8"/>
      </g>
     </g>
     <g id="text_4">
      <!-- South America -->
      <g transform="translate(495.278437 335.931719)scale(0.14 -0.14)">
       <defs>
        <path id="DejaVuSans-53" d="M 3425 4513 
L 3425 3897 
Q 3066 4069 2747 4153 
Q 2428 4238 2131 4238 
Q 1616 4238 1336 4038 
Q 1056 3838 1056 3469 
Q 1056 3159 1242 3001 
Q 1428 2844 1947 2747 
L 2328 2669 
Q 3034 2534 3370 2195 
Q 3706 1856 3706 1288 
Q 3706 609 3251 259 
Q 2797 -91 1919 -91 
Q 1588 -91 1214 -16 
Q 841 59 441 206 
L 441 856 
Q 825 641 1194 531 
Q 1563 422 1919 422 
Q 2459 422 2753 634 
Q 3047 847 3047 1241 
Q 3047 1584 2836 1778 
Q 2625 1972 2144 2069 
L 1759 2144 
Q 1053 2284 737 2584 
Q 422 2884 422 3419 
Q 422 4038 858 4394 
Q 1294 4750 2059 4750 
Q 2388 4750 2728 4690 
Q 3069 4631 3425 4513 
z
" transform="scale(0.015625)"/>
        <path id="DejaVuSans-6f" d="M 1959 3097 
Q 1497 3097 1228 2736 
Q 959 2375 959 1747 
Q 959 1119 1226 758 
Q 1494 397 1959 397 
Q 2419 397 2687 759 
Q 2956 1122 2956 1747 
Q 2956 2369 2687 2733 
Q 2419 3097 1959 3097 
z
M 1959 3584 
Q 2709 3584 3137 3096 
Q 3566 2609 3566 1747 
Q 3566 888 3137 398 
Q 2709 -91 1959 -91 
Q 1206 -91 779 398 
Q 353 888 353 1747 
Q 353 2609 779 3096 
Q 1206 3584 1959 3584 
z
" transform="scale(0.015625)"/>
        <path id="DejaVuSans-75" d="M 544 1381 
L 544 3500 
L 1119 3500 
L 1119 1403 
Q 1119 906 1312 657 
Q 1506 409 1894 409 
Q 2359 409 2629 706 
Q 2900 1003 2900 1516 
L 2900 3500 
L 3475 3500 
L 3475 0 
L 2900 0 
L 2900 538 
Q 2691 219 2414 64 
Q 2138 -91 1772 -91 
Q 1169 -91 856 284 
Q 544 659 544 1381 
z
M 1991 3584 
L 1991 3584 
z
" transform="scale(0.015625)"/>
        <path id="DejaVuSans-68" d="M 3513 2113 
L 3513 0 
L 2938 0 
L 2938 2094 
Q 2938 2591 2744 2837 
Q 2550 3084 2163 3084 
Q 1697 3084 1428 2787 
Q 1159 2491 1159 1978 
L 1159 0 
L 581 0 
L 581 4863 
L 1159 4863 
L 1159 2956 
Q 1366 3272 1645 3428 
Q 1925 3584 2291 3584 
Q 2894 3584 3203 3211 
Q 3513 2838 3513 2113 
z
" transform="scale(0.015625)"/>
       </defs>
       <use xlink:href="#DejaVuSans-53"/>
       <use xlink:href="#DejaVuSans-6f" x="63.476562"/>
       <use xlink:href="#DejaVuSans-75" x="124.658203"/>
       <use xlink:href="#DejaVuSans-74" x="188.037109"/>
       <use xlink:href="#DejaVuSans-68" x="227.246094"/>
       <use xlink:href="#DejaVuSans-20" x="290.625"/>
       <use xlink:href="#DejaVuSans-41" x="322.412109"/>
       <use xlink:href="#DejaVuSans-6d" x="390.820312"/>
       <use xlink:href="#DejaVuSans-65" x="488.232422"/>
       <use xlink:href="#DejaVuSans-72" x="549.755859"/>
       <use xlink:href="#DejaVuSans-69" x="590.869141"/>
       <use xlink:href="#DejaVuSans-63" x="618.652344"/>
       <use xlink:href="#DejaVuSans-61" x="673.632812"/>
      </g>
     </g>
    </g>
   </g>
   <g id="matplotlib.axis_2">
    <g id="ytick_1">
     <g id="line2d_5">
      <defs>
       <path id="m127e2c8394" d="M 0 0 
L -3.5 0 
" style="stroke: #000000; stroke-width: 0.8"/>
      </defs>
      <g>
       <use xlink:href="#m127e2c8394" x="58.471875" y="318.293906" style="stroke: #000000; stroke-width: 0.8"/>
      </g>
     </g>
     <g id="text_5">
      <!-- 0 -->
      <g transform="translate(42.564375 323.612812)scale(0.14 -0.14)">
       <defs>
        <path id="DejaVuSans-30" d="M 2034 4250 
Q 1547 4250 1301 3770 
Q 1056 3291 1056 2328 
Q 1056 1369 1301 889 
Q 1547 409 2034 409 
Q 2525 409 2770 889 
Q 3016 1369 3016 2328 
Q 3016 3291 2770 3770 
Q 2525 4250 2034 4250 
z
M 2034 4750 
Q 2819 4750 3233 4129 
Q 3647 3509 3647 2328 
Q 3647 1150 3233 529 
Q 2819 -91 2034 -91 
Q 1250 -91 836 529 
Q 422 1150 422 2328 
Q 422 3509 836 4129 
Q 1250 4750 2034 4750 
z
" transform="scale(0.015625)"/>
       </defs>
       <use xlink:href="#DejaVuSans-30"/>
      </g>
     </g>
    </g>
    <g id="ytick_2">
     <g id="line2d_6">
      <g>
       <use xlink:href="#m127e2c8394" x="58.471875" y="257.138906" style="stroke: #000000; stroke-width: 0.8"/>
      </g>
     </g>
     <g id="text_6">
      <!-- 20 -->
      <g transform="translate(33.656875 262.457812)scale(0.14 -0.14)">
       <defs>
        <path id="DejaVuSans-32" d="M 1228 531 
L 3431 531 
L 3431 0 
L 469 0 
L 469 531 
Q 828 903 1448 1529 
Q 2069 2156 2228 2338 
Q 2531 2678 2651 2914 
Q 2772 3150 2772 3378 
Q 2772 3750 2511 3984 
Q 2250 4219 1831 4219 
Q 1534 4219 1204 4116 
Q 875 4013 500 3803 
L 500 4441 
Q 881 4594 1212 4672 
Q 1544 4750 1819 4750 
Q 2544 4750 2975 4387 
Q 3406 4025 3406 3419 
Q 3406 3131 3298 2873 
Q 3191 2616 2906 2266 
Q 2828 2175 2409 1742 
Q 1991 1309 1228 531 
z
" transform="scale(0.015625)"/>
       </defs>
       <use xlink:href="#DejaVuSans-32"/>
       <use xlink:href="#DejaVuSans-30" x="63.623047"/>
      </g>
     </g>
    </g>
    <g id="ytick_3">
     <g id="line2d_7">
      <g>
       <use xlink:href="#m127e2c8394" x="58.471875" y="195.983906" style="stroke: #000000; stroke-width: 0.8"/>
      </g>
     </g>
     <g id="text_7">
      <!-- 40 -->
      <g transform="translate(33.656875 201.302812)scale(0.14 -0.14)">
       <defs>
        <path id="DejaVuSans-34" d="M 2419 4116 
L 825 1625 
L 2419 1625 
L 2419 4116 
z
M 2253 4666 
L 3047 4666 
L 3047 1625 
L 3713 1625 
L 3713 1100 
L 3047 1100 
L 3047 0 
L 2419 0 
L 2419 1100 
L 313 1100 
L 313 1709 
L 2253 4666 
z
" transform="scale(0.015625)"/>
       </defs>
       <use xlink:href="#DejaVuSans-34"/>
       <use xlink:href="#DejaVuSans-30" x="63.623047"/>
      </g>
     </g>
    </g>
    <g id="ytick_4">
     <g id="line2d_8">
      <g>
       <use xlink:href="#m127e2c8394" x="58.471875" y="134.828906" style="stroke: #000000; stroke-width: 0.8"/>
      </g>
     </g>
     <g id="text_8">
      <!-- 60 -->
      <g transform="translate(33.656875 140.147812)scale(0.14 -0.14)">
       <defs>
        <path id="DejaVuSans-36" d="M 2113 2584 
Q 1688 2584 1439 2293 
Q 1191 2003 1191 1497 
Q 1191 994 1439 701 
Q 1688 409 2113 409 
Q 2538 409 2786 701 
Q 3034 994 3034 1497 
Q 3034 2003 2786 2293 
Q 2538 2584 2113 2584 
z
M 3366 4563 
L 3366 3988 
Q 3128 4100 2886 4159 
Q 2644 4219 2406 4219 
Q 1781 4219 1451 3797 
Q 1122 3375 1075 2522 
Q 1259 2794 1537 2939 
Q 1816 3084 2150 3084 
Q 2853 3084 3261 2657 
Q 3669 2231 3669 1497 
Q 3669 778 3244 343 
Q 2819 -91 2113 -91 
Q 1303 -91 875 529 
Q 447 1150 447 2328 
Q 447 3434 972 4092 
Q 1497 4750 2381 4750 
Q 2619 4750 2861 4703 
Q 3103 4656 3366 4563 
z
" transform="scale(0.015625)"/>
       </defs>
       <use xlink:href="#DejaVuSans-36"/>
       <use xlink:href="#DejaVuSans-30" x="63.623047"/>
      </g>
     </g>
    </g>
    <g id="ytick_5">
     <g id="line2d_9">
      <g>
       <use xlink:href="#m127e2c8394" x="58.471875" y="73.673906" style="stroke: #000000; stroke-width: 0.8"/>
      </g>
     </g>
     <g id="text_9">
      <!-- 80 -->
      <g transform="translate(33.656875 78.992812)scale(0.14 -0.14)">
       <defs>
        <path id="DejaVuSans-38" d="M 2034 2216 
Q 1584 2216 1326 1975 
Q 1069 1734 1069 1313 
Q 1069 891 1326 650 
Q 1584 409 2034 409 
Q 2484 409 2743 651 
Q 3003 894 3003 1313 
Q 3003 1734 2745 1975 
Q 2488 2216 2034 2216 
z
M 1403 2484 
Q 997 2584 770 2862 
Q 544 3141 544 3541 
Q 544 4100 942 4425 
Q 1341 4750 2034 4750 
Q 2731 4750 3128 4425 
Q 3525 4100 3525 3541 
Q 3525 3141 3298 2862 
Q 3072 2584 2669 2484 
Q 3125 2378 3379 2068 
Q 3634 1759 3634 1313 
Q 3634 634 3220 271 
Q 2806 -91 2034 -91 
Q 1263 -91 848 271 
Q 434 634 434 1313 
Q 434 1759 690 2068 
Q 947 2378 1403 2484 
z
M 1172 3481 
Q 1172 3119 1398 2916 
Q 1625 2713 2034 2713 
Q 2441 2713 2670 2916 
Q 2900 3119 2900 3481 
Q 2900 3844 2670 4047 
Q 2441 4250 2034 4250 
Q 1625 4250 1398 4047 
Q 1172 3844 1172 3481 
z
" transform="scale(0.015625)"/>
       </defs>
       <use xlink:href="#DejaVuSans-38"/>
       <use xlink:href="#DejaVuSans-30" x="63.623047"/>
      </g>
     </g>
    </g>
    <g id="ytick_6">
     <g id="line2d_10">
      <g>
       <use xlink:href="#m127e2c8394" x="58.471875" y="12.518906" style="stroke: #000000; stroke-width: 0.8"/>
      </g>
     </g>
     <g id="text_10">
      <!-- 100 -->
      <g transform="translate(24.749375 17.837812)scale(0.14 -0.14)">
       <defs>
        <path id="DejaVuSans-31" d="M 794 531 
L 1825 531 
L 1825 4091 
L 703 3866 
L 703 4441 
L 1819 4666 
L 2450 4666 
L 2450 531 
L 3481 531 
L 3481 0 
L 794 0 
L 794 531 
z
" transform="scale(0.015625)"/>
       </defs>
       <use xlink:href="#DejaVuSans-31"/>
       <use xlink:href="#DejaVuSans-30" x="63.623047"/>
       <use xlink:href="#DejaVuSans-30" x="127.246094"/>
      </g>
     </g>
    </g>
    <g id="text_11">
     <!-- Percent of Selections -->
     <g transform="translate(17.837813 238.840781)rotate(-90)scale(0.14 -0.14)">
      <defs>
       <path id="DejaVuSans-50" d="M 1259 4147 
L 1259 2394 
L 2053 2394 
Q 2494 2394 2734 2622 
Q 2975 2850 2975 3272 
Q 2975 3691 2734 3919 
Q 2494 4147 2053 4147 
L 1259 4147 
z
M 628 4666 
L 2053 4666 
Q 2838 4666 3239 4311 
Q 3641 3956 3641 3272 
Q 3641 2581 3239 2228 
Q 2838 1875 2053 1875 
L 1259 1875 
L 1259 0 
L 628 0 
L 628 4666 
z
" transform="scale(0.015625)"/>
       <path id="DejaVuSans-66" d="M 2375 4863 
L 2375 4384 
L 1825 4384 
Q 1516 4384 1395 4259 
Q 1275 4134 1275 3809 
L 1275 3500 
L 2222 3500 
L 2222 3053 
L 1275 3053 
L 1275 0 
L 697 0 
L 697 3053 
L 147 3053 
L 147 3500 
L 697 3500 
L 697 3744 
Q 697 4328 969 4595 
Q 1241 4863 1831 4863 
L 2375 4863 
z
" transform="scale(0.015625)"/>
       <path id="DejaVuSans-73" d="M 2834 3397 
L 2834 2853 
Q 2591 2978 2328 3040 
Q 2066 3103 1784 3103 
Q 1356 3103 1142 2972 
Q 928 2841 928 2578 
Q 928 2378 1081 2264 
Q 1234 2150 1697 2047 
L 1894 2003 
Q 2506 1872 2764 1633 
Q 3022 1394 3022 966 
Q 3022 478 2636 193 
Q 2250 -91 1575 -91 
Q 1294 -91 989 -36 
Q 684 19 347 128 
L 347 722 
Q 666 556 975 473 
Q 1284 391 1588 391 
Q 1994 391 2212 530 
Q 2431 669 2431 922 
Q 2431 1156 2273 1281 
Q 2116 1406 1581 1522 
L 1381 1569 
Q 847 1681 609 1914 
Q 372 2147 372 2553 
Q 372 3047 722 3315 
Q 1072 3584 1716 3584 
Q 2034 3584 2315 3537 
Q 2597 3491 2834 3397 
z
" transform="scale(0.015625)"/>
      </defs>
      <use xlink:href="#DejaVuSans-50"/>
      <use xlink:href="#DejaVuSans-65" x="56.677734"/>
      <use xlink:href="#DejaVuSans-72" x="118.201172"/>
      <use xlink:href="#DejaVuSans-63" x="157.064453"/>
      <use xlink:href="#DejaVuSans-65" x="212.044922"/>
      <use xlink:href="#DejaVuSans-6e" x="273.568359"/>
      <use xlink:href="#DejaVuSans-74" x="336.947266"/>
      <use xlink:href="#DejaVuSans-20" x="376.15625"/>
      <use xlink:href="#DejaVuSans-6f" x="407.943359"/>
      <use xlink:href="#DejaVuSans-66" x="469.125"/>
      <use xlink:href="#DejaVuSans-20" x="504.330078"/>
      <use xlink:href="#DejaVuSans-53" x="536.117188"/>
      <use xlink:href="#DejaVuSans-65" x="599.59375"/>
      <use xlink:href="#DejaVuSans-6c" x="661.117188"/>
      <use xlink:href="#DejaVuSans-65" x="688.900391"/>
      <use xlink:href="#DejaVuSans-63" x="750.423828"/>
      <use xlink:href="#DejaVuSans-74" x="805.404297"/>
      <use xlink:href="#DejaVuSans-69" x="844.613281"/>
      <use xlink:href="#DejaVuSans-6f" x="872.396484"/>
      <use xlink:href="#DejaVuSans-6e" x="933.578125"/>
      <use xlink:href="#DejaVuSans-73" x="996.957031"/>
     </g>
    </g>
   </g>
   <g id="patch_35">
    <path d="M 58.471875 318.293906 
L 58.471875 12.518906 
" style="fill: none; stroke: #000000; stroke-width: 0.8; stroke-linejoin: miter; stroke-linecap: square"/>
   </g>
   <g id="patch_36">
    <path d="M 58.471875 318.293906 
L 616.471875 318.293906 
" style="fill: none; stroke: #000000; stroke-width: 0.8; stroke-linejoin: miter; stroke-linecap: square"/>
   </g>
   <g id="legend_1">
    <g id="patch_37">
     <path d="M 626.261875 148.035406 
L 774.494687 148.035406 
Q 776.494687 148.035406 776.494687 146.035406 
L 776.494687 14.932281 
Q 776.494687 12.932281 774.494687 12.932281 
L 626.261875 12.932281 
Q 624.261875 12.932281 624.261875 14.932281 
L 624.261875 146.035406 
Q 624.261875 148.035406 626.261875 148.035406 
z
" style="fill: #ffffff; opacity: 0.8"/>
    </g>
    <g id="text_12">
     <!-- Opportunities -->
     <g transform="translate(666.261875 24.530719)scale(0.1 -0.1)">
      <defs>
       <path id="DejaVuSans-4f" d="M 2522 4238 
Q 1834 4238 1429 3725 
Q 1025 3213 1025 2328 
Q 1025 1447 1429 934 
Q 1834 422 2522 422 
Q 3209 422 3611 934 
Q 4013 1447 4013 2328 
Q 4013 3213 3611 3725 
Q 3209 4238 2522 4238 
z
M 2522 4750 
Q 3503 4750 4090 4092 
Q 4678 3434 4678 2328 
Q 4678 1225 4090 567 
Q 3503 -91 2522 -91 
Q 1538 -91 948 565 
Q 359 1222 359 2328 
Q 359 3434 948 4092 
Q 1538 4750 2522 4750 
z
" transform="scale(0.015625)"/>
       <path id="DejaVuSans-70" d="M 1159 525 
L 1159 -1331 
L 581 -1331 
L 581 3500 
L 1159 3500 
L 1159 2969 
Q 1341 3281 1617 3432 
Q 1894 3584 2278 3584 
Q 2916 3584 3314 3078 
Q 3713 2572 3713 1747 
Q 3713 922 3314 415 
Q 2916 -91 2278 -91 
Q 1894 -91 1617 61 
Q 1341 213 1159 525 
z
M 3116 1747 
Q 3116 2381 2855 2742 
Q 2594 3103 2138 3103 
Q 1681 3103 1420 2742 
Q 1159 2381 1159 1747 
Q 1159 1113 1420 752 
Q 1681 391 2138 391 
Q 2594 391 2855 752 
Q 3116 1113 3116 1747 
z
" transform="scale(0.015625)"/>
      </defs>
      <use xlink:href="#DejaVuSans-4f"/>
      <use xlink:href="#DejaVuSans-70" x="78.710938"/>
      <use xlink:href="#DejaVuSans-70" x="142.1875"/>
      <use xlink:href="#DejaVuSans-6f" x="205.664062"/>
      <use xlink:href="#DejaVuSans-72" x="266.845703"/>
      <use xlink:href="#DejaVuSans-74" x="307.958984"/>
      <use xlink:href="#DejaVuSans-75" x="347.167969"/>
      <use xlink:href="#DejaVuSans-6e" x="410.546875"/>
      <use xlink:href="#DejaVuSans-69" x="473.925781"/>
      <use xlink:href="#DejaVuSans-74" x="501.708984"/>
      <use xlink:href="#DejaVuSans-69" x="540.917969"/>
      <use xlink:href="#DejaVuSans-65" x="568.701172"/>
      <use xlink:href="#DejaVuSans-73" x="630.224609"/>
     </g>
    </g>
    <g id="patch_38">
     <path d="M 628.261875 39.208844 
L 648.261875 39.208844 
L 648.261875 32.208844 
L 628.261875 32.208844 
z
" style="fill: #194958; stroke: #ffffff; stroke-linejoin: miter"/>
    </g>
    <g id="text_13">
     <!-- Training opportunities -->
     <g transform="translate(656.261875 39.208844)scale(0.1 -0.1)">
      <defs>
       <path id="DejaVuSans-54" d="M -19 4666 
L 3928 4666 
L 3928 4134 
L 2272 4134 
L 2272 0 
L 1638 0 
L 1638 4134 
L -19 4134 
L -19 4666 
z
" transform="scale(0.015625)"/>
       <path id="DejaVuSans-67" d="M 2906 1791 
Q 2906 2416 2648 2759 
Q 2391 3103 1925 3103 
Q 1463 3103 1205 2759 
Q 947 2416 947 1791 
Q 947 1169 1205 825 
Q 1463 481 1925 481 
Q 2391 481 2648 825 
Q 2906 1169 2906 1791 
z
M 3481 434 
Q 3481 -459 3084 -895 
Q 2688 -1331 1869 -1331 
Q 1566 -1331 1297 -1286 
Q 1028 -1241 775 -1147 
L 775 -588 
Q 1028 -725 1275 -790 
Q 1522 -856 1778 -856 
Q 2344 -856 2625 -561 
Q 2906 -266 2906 331 
L 2906 616 
Q 2728 306 2450 153 
Q 2172 0 1784 0 
Q 1141 0 747 490 
Q 353 981 353 1791 
Q 353 2603 747 3093 
Q 1141 3584 1784 3584 
Q 2172 3584 2450 3431 
Q 2728 3278 2906 2969 
L 2906 3500 
L 3481 3500 
L 3481 434 
z
" transform="scale(0.015625)"/>
      </defs>
      <use xlink:href="#DejaVuSans-54"/>
      <use xlink:href="#DejaVuSans-72" x="46.333984"/>
      <use xlink:href="#DejaVuSans-61" x="87.447266"/>
      <use xlink:href="#DejaVuSans-69" x="148.726562"/>
      <use xlink:href="#DejaVuSans-6e" x="176.509766"/>
      <use xlink:href="#DejaVuSans-69" x="239.888672"/>
      <use xlink:href="#DejaVuSans-6e" x="267.671875"/>
      <use xlink:href="#DejaVuSans-67" x="331.050781"/>
      <use xlink:href="#DejaVuSans-20" x="394.527344"/>
      <use xlink:href="#DejaVuSans-6f" x="426.314453"/>
      <use xlink:href="#DejaVuSans-70" x="487.496094"/>
      <use xlink:href="#DejaVuSans-70" x="550.972656"/>
      <use xlink:href="#DejaVuSans-6f" x="614.449219"/>
      <use xlink:href="#DejaVuSans-72" x="675.630859"/>
      <use xlink:href="#DejaVuSans-74" x="716.744141"/>
      <use xlink:href="#DejaVuSans-75" x="755.953125"/>
      <use xlink:href="#DejaVuSans-6e" x="819.332031"/>
      <use xlink:href="#DejaVuSans-69" x="882.710938"/>
      <use xlink:href="#DejaVuSans-74" x="910.494141"/>
      <use xlink:href="#DejaVuSans-69" x="949.703125"/>
      <use xlink:href="#DejaVuSans-65" x="977.486328"/>
      <use xlink:href="#DejaVuSans-73" x="1039.009766"/>
     </g>
    </g>
    <g id="patch_39">
     <path d="M 628.261875 53.886969 
L 648.261875 53.886969 
L 648.261875 46.886969 
L 628.261875 46.886969 
z
" style="fill: #c6744c; stroke: #ffffff; stroke-linejoin: miter"/>
    </g>
    <g id="text_14">
     <!-- Less expensive tech -->
     <g transform="translate(656.261875 53.886969)scale(0.1 -0.1)">
      <defs>
       <path id="DejaVuSans-4c" d="M 628 4666 
L 1259 4666 
L 1259 531 
L 3531 531 
L 3531 0 
L 628 0 
L 628 4666 
z
" transform="scale(0.015625)"/>
       <path id="DejaVuSans-78" d="M 3513 3500 
L 2247 1797 
L 3578 0 
L 2900 0 
L 1881 1375 
L 863 0 
L 184 0 
L 1544 1831 
L 300 3500 
L 978 3500 
L 1906 2253 
L 2834 3500 
L 3513 3500 
z
" transform="scale(0.015625)"/>
       <path id="DejaVuSans-76" d="M 191 3500 
L 800 3500 
L 1894 563 
L 2988 3500 
L 3597 3500 
L 2284 0 
L 1503 0 
L 191 3500 
z
" transform="scale(0.015625)"/>
      </defs>
      <use xlink:href="#DejaVuSans-4c"/>
      <use xlink:href="#DejaVuSans-65" x="53.962891"/>
      <use xlink:href="#DejaVuSans-73" x="115.486328"/>
      <use xlink:href="#DejaVuSans-73" x="167.585938"/>
      <use xlink:href="#DejaVuSans-20" x="219.685547"/>
      <use xlink:href="#DejaVuSans-65" x="251.472656"/>
      <use xlink:href="#DejaVuSans-78" x="311.246094"/>
      <use xlink:href="#DejaVuSans-70" x="370.425781"/>
      <use xlink:href="#DejaVuSans-65" x="433.902344"/>
      <use xlink:href="#DejaVuSans-6e" x="495.425781"/>
      <use xlink:href="#DejaVuSans-73" x="558.804688"/>
      <use xlink:href="#DejaVuSans-69" x="610.904297"/>
      <use xlink:href="#DejaVuSans-76" x="638.6875"/>
      <use xlink:href="#DejaVuSans-65" x="697.867188"/>
      <use xlink:href="#DejaVuSans-20" x="759.390625"/>
      <use xlink:href="#DejaVuSans-74" x="791.177734"/>
      <use xlink:href="#DejaVuSans-65" x="830.386719"/>
      <use xlink:href="#DejaVuSans-63" x="891.910156"/>
      <use xlink:href="#DejaVuSans-68" x="946.890625"/>
     </g>
    </g>
    <g id="patch_40">
     <path d="M 628.261875 68.565094 
L 648.261875 68.565094 
L 648.261875 61.565094 
L 628.261875 61.565094 
z
" style="fill: #dbc064; stroke: #ffffff; stroke-linejoin: miter"/>
    </g>
    <g id="text_15">
     <!-- Better data tools -->
     <g transform="translate(656.261875 68.565094)scale(0.1 -0.1)">
      <defs>
       <path id="DejaVuSans-42" d="M 1259 2228 
L 1259 519 
L 2272 519 
Q 2781 519 3026 730 
Q 3272 941 3272 1375 
Q 3272 1813 3026 2020 
Q 2781 2228 2272 2228 
L 1259 2228 
z
M 1259 4147 
L 1259 2741 
L 2194 2741 
Q 2656 2741 2882 2914 
Q 3109 3088 3109 3444 
Q 3109 3797 2882 3972 
Q 2656 4147 2194 4147 
L 1259 4147 
z
M 628 4666 
L 2241 4666 
Q 2963 4666 3353 4366 
Q 3744 4066 3744 3513 
Q 3744 3084 3544 2831 
Q 3344 2578 2956 2516 
Q 3422 2416 3680 2098 
Q 3938 1781 3938 1306 
Q 3938 681 3513 340 
Q 3088 0 2303 0 
L 628 0 
L 628 4666 
z
" transform="scale(0.015625)"/>
       <path id="DejaVuSans-64" d="M 2906 2969 
L 2906 4863 
L 3481 4863 
L 3481 0 
L 2906 0 
L 2906 525 
Q 2725 213 2448 61 
Q 2172 -91 1784 -91 
Q 1150 -91 751 415 
Q 353 922 353 1747 
Q 353 2572 751 3078 
Q 1150 3584 1784 3584 
Q 2172 3584 2448 3432 
Q 2725 3281 2906 2969 
z
M 947 1747 
Q 947 1113 1208 752 
Q 1469 391 1925 391 
Q 2381 391 2643 752 
Q 2906 1113 2906 1747 
Q 2906 2381 2643 2742 
Q 2381 3103 1925 3103 
Q 1469 3103 1208 2742 
Q 947 2381 947 1747 
z
" transform="scale(0.015625)"/>
      </defs>
      <use xlink:href="#DejaVuSans-42"/>
      <use xlink:href="#DejaVuSans-65" x="68.603516"/>
      <use xlink:href="#DejaVuSans-74" x="130.126953"/>
      <use xlink:href="#DejaVuSans-74" x="169.335938"/>
      <use xlink:href="#DejaVuSans-65" x="208.544922"/>
      <use xlink:href="#DejaVuSans-72" x="270.068359"/>
      <use xlink:href="#DejaVuSans-20" x="311.181641"/>
      <use xlink:href="#DejaVuSans-64" x="342.96875"/>
      <use xlink:href="#DejaVuSans-61" x="406.445312"/>
      <use xlink:href="#DejaVuSans-74" x="467.724609"/>
      <use xlink:href="#DejaVuSans-61" x="506.933594"/>
      <use xlink:href="#DejaVuSans-20" x="568.212891"/>
      <use xlink:href="#DejaVuSans-74" x="600"/>
      <use xlink:href="#DejaVuSans-6f" x="639.208984"/>
      <use xlink:href="#DejaVuSans-6f" x="700.390625"/>
      <use xlink:href="#DejaVuSans-6c" x="761.572266"/>
      <use xlink:href="#DejaVuSans-73" x="789.355469"/>
     </g>
    </g>
    <g id="patch_41">
     <path d="M 628.261875 83.243219 
L 648.261875 83.243219 
L 648.261875 76.243219 
L 628.261875 76.243219 
z
" style="fill: #368d95; stroke: #ffffff; stroke-linejoin: miter"/>
    </g>
    <g id="text_16">
     <!-- Connecting with others -->
     <g transform="translate(656.261875 83.243219)scale(0.1 -0.1)">
      <defs>
       <path id="DejaVuSans-77" d="M 269 3500 
L 844 3500 
L 1563 769 
L 2278 3500 
L 2956 3500 
L 3675 769 
L 4391 3500 
L 4966 3500 
L 4050 0 
L 3372 0 
L 2619 2869 
L 1863 0 
L 1184 0 
L 269 3500 
z
" transform="scale(0.015625)"/>
      </defs>
      <use xlink:href="#DejaVuSans-43"/>
      <use xlink:href="#DejaVuSans-6f" x="69.824219"/>
      <use xlink:href="#DejaVuSans-6e" x="131.005859"/>
      <use xlink:href="#DejaVuSans-6e" x="194.384766"/>
      <use xlink:href="#DejaVuSans-65" x="257.763672"/>
      <use xlink:href="#DejaVuSans-63" x="319.287109"/>
      <use xlink:href="#DejaVuSans-74" x="374.267578"/>
      <use xlink:href="#DejaVuSans-69" x="413.476562"/>
      <use xlink:href="#DejaVuSans-6e" x="441.259766"/>
      <use xlink:href="#DejaVuSans-67" x="504.638672"/>
      <use xlink:href="#DejaVuSans-20" x="568.115234"/>
      <use xlink:href="#DejaVuSans-77" x="599.902344"/>
      <use xlink:href="#DejaVuSans-69" x="681.689453"/>
      <use xlink:href="#DejaVuSans-74" x="709.472656"/>
      <use xlink:href="#DejaVuSans-68" x="748.681641"/>
      <use xlink:href="#DejaVuSans-20" x="812.060547"/>
      <use xlink:href="#DejaVuSans-6f" x="843.847656"/>
      <use xlink:href="#DejaVuSans-74" x="905.029297"/>
      <use xlink:href="#DejaVuSans-68" x="944.238281"/>
      <use xlink:href="#DejaVuSans-65" x="1007.617188"/>
      <use xlink:href="#DejaVuSans-72" x="1069.140625"/>
      <use xlink:href="#DejaVuSans-73" x="1110.253906"/>
     </g>
    </g>
    <g id="patch_42">
     <path d="M 628.261875 97.921344 
L 648.261875 97.921344 
L 648.261875 90.921344 
L 628.261875 90.921344 
z
" style="fill: #3b3c78; stroke: #ffffff; stroke-linejoin: miter"/>
    </g>
    <g id="text_17">
     <!-- More precise tech -->
     <g transform="translate(656.261875 97.921344)scale(0.1 -0.1)">
      <defs>
       <path id="DejaVuSans-4d" d="M 628 4666 
L 1569 4666 
L 2759 1491 
L 3956 4666 
L 4897 4666 
L 4897 0 
L 4281 0 
L 4281 4097 
L 3078 897 
L 2444 897 
L 1241 4097 
L 1241 0 
L 628 0 
L 628 4666 
z
" transform="scale(0.015625)"/>
      </defs>
      <use xlink:href="#DejaVuSans-4d"/>
      <use xlink:href="#DejaVuSans-6f" x="86.279297"/>
      <use xlink:href="#DejaVuSans-72" x="147.460938"/>
      <use xlink:href="#DejaVuSans-65" x="186.324219"/>
      <use xlink:href="#DejaVuSans-20" x="247.847656"/>
      <use xlink:href="#DejaVuSans-70" x="279.634766"/>
      <use xlink:href="#DejaVuSans-72" x="343.111328"/>
      <use xlink:href="#DejaVuSans-65" x="381.974609"/>
      <use xlink:href="#DejaVuSans-63" x="443.498047"/>
      <use xlink:href="#DejaVuSans-69" x="498.478516"/>
      <use xlink:href="#DejaVuSans-73" x="526.261719"/>
      <use xlink:href="#DejaVuSans-65" x="578.361328"/>
      <use xlink:href="#DejaVuSans-20" x="639.884766"/>
      <use xlink:href="#DejaVuSans-74" x="671.671875"/>
      <use xlink:href="#DejaVuSans-65" x="710.880859"/>
      <use xlink:href="#DejaVuSans-63" x="772.404297"/>
      <use xlink:href="#DejaVuSans-68" x="827.384766"/>
     </g>
    </g>
    <g id="patch_43">
     <path d="M 628.261875 112.599469 
L 648.261875 112.599469 
L 648.261875 105.599469 
L 628.261875 105.599469 
z
" style="fill: #7ea56b; stroke: #ffffff; stroke-linejoin: miter"/>
    </g>
    <g id="text_18">
     <!-- Deeper tech -->
     <g transform="translate(656.261875 112.599469)scale(0.1 -0.1)">
      <defs>
       <path id="DejaVuSans-44" d="M 1259 4147 
L 1259 519 
L 2022 519 
Q 2988 519 3436 956 
Q 3884 1394 3884 2338 
Q 3884 3275 3436 3711 
Q 2988 4147 2022 4147 
L 1259 4147 
z
M 628 4666 
L 1925 4666 
Q 3281 4666 3915 4102 
Q 4550 3538 4550 2338 
Q 4550 1131 3912 565 
Q 3275 0 1925 0 
L 628 0 
L 628 4666 
z
" transform="scale(0.015625)"/>
      </defs>
      <use xlink:href="#DejaVuSans-44"/>
      <use xlink:href="#DejaVuSans-65" x="77.001953"/>
      <use xlink:href="#DejaVuSans-65" x="138.525391"/>
      <use xlink:href="#DejaVuSans-70" x="200.048828"/>
      <use xlink:href="#DejaVuSans-65" x="263.525391"/>
      <use xlink:href="#DejaVuSans-72" x="325.048828"/>
      <use xlink:href="#DejaVuSans-20" x="366.162109"/>
      <use xlink:href="#DejaVuSans-74" x="397.949219"/>
      <use xlink:href="#DejaVuSans-65" x="437.158203"/>
      <use xlink:href="#DejaVuSans-63" x="498.681641"/>
      <use xlink:href="#DejaVuSans-68" x="553.662109"/>
     </g>
    </g>
    <g id="patch_44">
     <path d="M 628.261875 127.277594 
L 648.261875 127.277594 
L 648.261875 120.277594 
L 628.261875 120.277594 
z
" style="fill: #011b44; stroke: #ffffff; stroke-linejoin: miter"/>
    </g>
    <g id="text_19">
     <!-- Scalable tech -->
     <g transform="translate(656.261875 127.277594)scale(0.1 -0.1)">
      <use xlink:href="#DejaVuSans-53"/>
      <use xlink:href="#DejaVuSans-63" x="63.476562"/>
      <use xlink:href="#DejaVuSans-61" x="118.457031"/>
      <use xlink:href="#DejaVuSans-6c" x="179.736328"/>
      <use xlink:href="#DejaVuSans-61" x="207.519531"/>
      <use xlink:href="#DejaVuSans-62" x="268.798828"/>
      <use xlink:href="#DejaVuSans-6c" x="332.275391"/>
      <use xlink:href="#DejaVuSans-65" x="360.058594"/>
      <use xlink:href="#DejaVuSans-20" x="421.582031"/>
      <use xlink:href="#DejaVuSans-74" x="453.369141"/>
      <use xlink:href="#DejaVuSans-65" x="492.578125"/>
      <use xlink:href="#DejaVuSans-63" x="554.101562"/>
      <use xlink:href="#DejaVuSans-68" x="609.082031"/>
     </g>
    </g>
    <g id="patch_45">
     <path d="M 628.261875 141.955719 
L 648.261875 141.955719 
L 648.261875 134.955719 
L 628.261875 134.955719 
z
" style="fill: #d4d4d4; stroke: #ffffff; stroke-linejoin: miter"/>
    </g>
    <g id="text_20">
     <!-- Other -->
     <g transform="translate(656.261875 141.955719)scale(0.1 -0.1)">
      <use xlink:href="#DejaVuSans-4f"/>
      <use xlink:href="#DejaVuSans-74" x="78.710938"/>
      <use xlink:href="#DejaVuSans-68" x="117.919922"/>
      <use xlink:href="#DejaVuSans-65" x="181.298828"/>
      <use xlink:href="#DejaVuSans-72" x="242.822266"/>
     </g>
    </g>
   </g>
  </g>
 </g>
 <defs>
  <clipPath id="pb4d1595c17">
   <rect x="58.471875" y="12.518906" width="558" height="305.775"/>
  </clipPath>
 </defs>
</svg>
