<?xml version="1.0" encoding="utf-8" standalone="no"?>
<!DOCTYPE svg PUBLIC "-//W3C//DTD SVG 1.1//EN"
  "http://www.w3.org/Graphics/SVG/1.1/DTD/svg11.dtd">
<svg xmlns:xlink="http://www.w3.org/1999/xlink" width="605.856875pt" height="358.27375pt" viewBox="0 0 605.856875 358.27375" xmlns="http://www.w3.org/2000/svg" version="1.1">
 <metadata>
  <rdf:RDF xmlns:dc="http://purl.org/dc/elements/1.1/" xmlns:cc="http://creativecommons.org/ns#" xmlns:rdf="http://www.w3.org/1999/02/22-rdf-syntax-ns#">
   <cc:Work>
    <dc:type rdf:resource="http://purl.org/dc/dcmitype/StillImage"/>
    <dc:date>2022-10-04T09:39:59.309552</dc:date>
    <dc:format>image/svg+xml</dc:format>
    <dc:creator>
     <cc:Agent>
      <dc:title>Matplotlib v3.5.1, https://matplotlib.org/</dc:title>
     </cc:Agent>
    </dc:creator>
   </cc:Work>
  </rdf:RDF>
 </metadata>
 <defs>
  <style type="text/css">*{stroke-linejoin: round; stroke-linecap: butt}</style>
 </defs>
 <g id="figure_1">
  <g id="patch_1">
   <path d="M 0 358.27375 
L 605.856875 358.27375 
L 605.856875 0 
L 0 0 
L 0 358.27375 
z
" style="fill: none"/>
  </g>
  <g id="axes_1">
   <g id="patch_2">
    <path d="M 40.656875 312.975 
L 598.656875 312.975 
L 598.656875 7.2 
L 40.656875 7.2 
L 40.656875 312.975 
z
" style="fill: none"/>
   </g>
   <g id="PathCollection_1">
    <path d="M 471.542389 50.220807 
C 475.900121 50.220807 480.079957 48.489462 483.161339 45.40808 
C 486.242721 42.326699 487.974066 38.146862 487.974066 33.78913 
C 487.974066 29.431399 486.242721 25.251562 483.161339 22.17018 
C 480.079957 19.088799 475.900121 17.357454 471.542389 17.357454 
C 467.184657 17.357454 463.004821 19.088799 459.923439 22.17018 
C 456.842057 25.251562 455.110712 29.431399 455.110712 33.78913 
C 455.110712 38.146862 456.842057 42.326699 459.923439 45.40808 
C 463.004821 48.489462 467.184657 50.220807 471.542389 50.220807 
z
" clip-path="url(#p743a2c1409)" style="fill: #caf1ee; fill-opacity: 0.8; stroke: #ffffff; stroke-opacity: 0.8"/>
    <path d="M 377.021361 46.28913 
C 380.3364 46.28913 383.516109 44.972052 385.860196 42.627965 
C 388.204282 40.283879 389.521361 37.104169 389.521361 33.78913 
C 389.521361 30.474092 388.204282 27.294382 385.860196 24.950296 
C 383.516109 22.606209 380.3364 21.28913 377.021361 21.28913 
C 373.706322 21.28913 370.526613 22.606209 368.182526 24.950296 
C 365.83844 27.294382 364.521361 30.474092 364.521361 33.78913 
C 364.521361 37.104169 365.83844 40.283879 368.182526 42.627965 
C 370.526613 44.972052 373.706322 46.28913 377.021361 46.28913 
z
" clip-path="url(#p743a2c1409)" style="fill: #d4d4d4; fill-opacity: 0.8; stroke: #ffffff; stroke-opacity: 0.8"/>
    <path d="M 422.652202 112.761957 
C 425.967241 112.761957 429.14695 111.444878 431.491037 109.100791 
C 433.835123 106.756705 435.152202 103.576995 435.152202 100.261957 
C 435.152202 96.946918 433.835123 93.767208 431.491037 91.423122 
C 429.14695 89.079035 425.967241 87.761957 422.652202 87.761957 
C 419.337163 87.761957 416.157454 89.079035 413.813367 91.423122 
C 411.469281 93.767208 410.152202 96.946918 410.152202 100.261957 
C 410.152202 103.576995 411.469281 106.756705 413.813367 109.100791 
C 416.157454 111.444878 419.337163 112.761957 422.652202 112.761957 
z
" clip-path="url(#p743a2c1409)" style="fill: #d4d4d4; fill-opacity: 0.8; stroke: #ffffff; stroke-opacity: 0.8"/>
    <path d="M 411.787716 112.761957 
C 415.102755 112.761957 418.282465 111.444878 420.626551 109.100791 
C 422.970637 106.756705 424.287716 103.576995 424.287716 100.261957 
C 424.287716 96.946918 422.970637 93.767208 420.626551 91.423122 
C 418.282465 89.079035 415.102755 87.761957 411.787716 87.761957 
C 408.472677 87.761957 405.292968 89.079035 402.948881 91.423122 
C 400.604795 93.767208 399.287716 96.946918 399.287716 100.261957 
C 399.287716 103.576995 400.604795 106.756705 402.948881 109.100791 
C 405.292968 111.444878 408.472677 112.761957 411.787716 112.761957 
z
" clip-path="url(#p743a2c1409)" style="fill: #3d9fa5; fill-opacity: 0.8; stroke: #ffffff; stroke-opacity: 0.8"/>
    <path d="M 390.058744 179.234783 
C 393.373783 179.234783 396.553493 177.917704 398.897579 175.573617 
C 401.241665 173.229531 402.558744 170.049821 402.558744 166.734783 
C 402.558744 163.419744 401.241665 160.240034 398.897579 157.895948 
C 396.553493 155.551861 393.373783 154.234783 390.058744 154.234783 
C 386.743705 154.234783 383.563996 155.551861 381.219909 157.895948 
C 378.875823 160.240034 377.558744 163.419744 377.558744 166.734783 
C 377.558744 170.049821 378.875823 173.229531 381.219909 175.573617 
C 383.563996 177.917704 386.743705 179.234783 390.058744 179.234783 
z
" clip-path="url(#p743a2c1409)" style="fill: #3d9fa5; fill-opacity: 0.8; stroke: #ffffff; stroke-opacity: 0.8"/>
    <path d="M 368.329772 242.151881 
C 370.701821 242.151881 372.977036 241.209456 374.654328 239.532164 
C 376.331619 237.854872 377.274044 235.579657 377.274044 233.207609 
C 377.274044 230.83556 376.331619 228.560345 374.654328 226.883053 
C 372.977036 225.205762 370.701821 224.263337 368.329772 224.263337 
C 365.957724 224.263337 363.682509 225.205762 362.005217 226.883053 
C 360.327925 228.560345 359.3855 230.83556 359.3855 233.207609 
C 359.3855 235.579657 360.327925 237.854872 362.005217 239.532164 
C 363.682509 241.209456 365.957724 242.151881 368.329772 242.151881 
z
" clip-path="url(#p743a2c1409)" style="fill: #d4d4d4; fill-opacity: 0.8; stroke: #ffffff; stroke-opacity: 0.8"/>
    <path d="M 181.460613 242.151881 
C 183.832662 242.151881 186.107877 241.209456 187.785169 239.532164 
C 189.46246 237.854872 190.404885 235.579657 190.404885 233.207609 
C 190.404885 230.83556 189.46246 228.560345 187.785169 226.883053 
C 186.107877 225.205762 183.832662 224.263337 181.460613 224.263337 
C 179.088565 224.263337 176.81335 225.205762 175.136058 226.883053 
C 173.458766 228.560345 172.516341 230.83556 172.516341 233.207609 
C 172.516341 235.579657 173.458766 237.854872 175.136058 239.532164 
C 176.81335 241.209456 179.088565 242.151881 181.460613 242.151881 
z
" clip-path="url(#p743a2c1409)" style="fill: #d4d4d4; fill-opacity: 0.8; stroke: #ffffff; stroke-opacity: 0.8"/>
    <path d="M 357.465286 175.679055 
C 359.837335 175.679055 362.11255 174.73663 363.789842 173.059338 
C 365.467133 171.382046 366.409558 169.106831 366.409558 166.734783 
C 366.409558 164.362734 365.467133 162.087519 363.789842 160.410227 
C 362.11255 158.732936 359.837335 157.790511 357.465286 157.790511 
C 355.093238 157.790511 352.818023 158.732936 351.140731 160.410227 
C 349.463439 162.087519 348.521014 164.362734 348.521014 166.734783 
C 348.521014 169.106831 349.463439 171.382046 351.140731 173.059338 
C 352.818023 174.73663 355.093238 175.679055 357.465286 175.679055 
z
" clip-path="url(#p743a2c1409)" style="fill: #d4d4d4; fill-opacity: 0.8; stroke: #ffffff; stroke-opacity: 0.8"/>
    <path d="M 292.27837 242.151881 
C 294.650419 242.151881 296.925634 241.209456 298.602926 239.532164 
C 300.280217 237.854872 301.222642 235.579657 301.222642 233.207609 
C 301.222642 230.83556 300.280217 228.560345 298.602926 226.883053 
C 296.925634 225.205762 294.650419 224.263337 292.27837 224.263337 
C 289.906322 224.263337 287.631107 225.205762 285.953815 226.883053 
C 284.276523 228.560345 283.334098 230.83556 283.334098 233.207609 
C 283.334098 235.579657 284.276523 237.854872 285.953815 239.532164 
C 287.631107 241.209456 289.906322 242.151881 292.27837 242.151881 
z
" clip-path="url(#p743a2c1409)" style="fill: #d4d4d4; fill-opacity: 0.8; stroke: #ffffff; stroke-opacity: 0.8"/>
    <path d="M 303.142856 175.679055 
C 305.514905 175.679055 307.79012 174.73663 309.467412 173.059338 
C 311.144703 171.382046 312.087128 169.106831 312.087128 166.734783 
C 312.087128 164.362734 311.144703 162.087519 309.467412 160.410227 
C 307.79012 158.732936 305.514905 157.790511 303.142856 157.790511 
C 300.770808 157.790511 298.495593 158.732936 296.818301 160.410227 
C 295.141009 162.087519 294.198584 164.362734 294.198584 166.734783 
C 294.198584 169.106831 295.141009 171.382046 296.818301 173.059338 
C 298.495593 174.73663 300.770808 175.679055 303.142856 175.679055 
z
" clip-path="url(#p743a2c1409)" style="fill: #d4d4d4; fill-opacity: 0.8; stroke: #ffffff; stroke-opacity: 0.8"/>
    <path d="M 303.142856 109.206228 
C 305.514905 109.206228 307.79012 108.263804 309.467412 106.586512 
C 311.144703 104.90922 312.087128 102.634005 312.087128 100.261957 
C 312.087128 97.889908 311.144703 95.614693 309.467412 93.937401 
C 307.79012 92.26011 305.514905 91.317685 303.142856 91.317685 
C 300.770808 91.317685 298.495593 92.26011 296.818301 93.937401 
C 295.141009 95.614693 294.198584 97.889908 294.198584 100.261957 
C 294.198584 102.634005 295.141009 104.90922 296.818301 106.586512 
C 298.495593 108.263804 300.770808 109.206228 303.142856 109.206228 
z
" clip-path="url(#p743a2c1409)" style="fill: #d4d4d4; fill-opacity: 0.8; stroke: #ffffff; stroke-opacity: 0.8"/>
    <path d="M 390.058744 172.544258 
C 391.599435 172.544258 393.07723 171.932135 394.166663 170.842702 
C 395.256096 169.753269 395.868219 168.275473 395.868219 166.734783 
C 395.868219 165.194092 395.256096 163.716296 394.166663 162.626863 
C 393.07723 161.537431 391.599435 160.925308 390.058744 160.925308 
C 388.518053 160.925308 387.040258 161.537431 385.950825 162.626863 
C 384.861392 163.716296 384.249269 165.194092 384.249269 166.734783 
C 384.249269 168.275473 384.861392 169.753269 385.950825 170.842702 
C 387.040258 171.932135 388.518053 172.544258 390.058744 172.544258 
z
" clip-path="url(#p743a2c1409)" style="fill: #1f5664; fill-opacity: 0.8; stroke: #ffffff; stroke-opacity: 0.8"/>
    <path d="M 210.794725 239.017084 
C 212.335416 239.017084 213.813212 238.404961 214.902645 237.315528 
C 215.992078 236.226095 216.6042 234.748299 216.6042 233.207609 
C 216.6042 231.666918 215.992078 230.189122 214.902645 229.09969 
C 213.813212 228.010257 212.335416 227.398134 210.794725 227.398134 
C 209.254035 227.398134 207.776239 228.010257 206.686806 229.09969 
C 205.597373 230.189122 204.98525 231.666918 204.98525 233.207609 
C 204.98525 234.748299 205.597373 236.226095 206.686806 237.315528 
C 207.776239 238.404961 209.254035 239.017084 210.794725 239.017084 
z
" clip-path="url(#p743a2c1409)" style="fill: #d4d4d4; fill-opacity: 0.8; stroke: #ffffff; stroke-opacity: 0.8"/>
    <path d="M 211.881174 239.017084 
C 213.421865 239.017084 214.89966 238.404961 215.989093 237.315528 
C 217.078526 236.226095 217.690649 234.748299 217.690649 233.207609 
C 217.690649 231.666918 217.078526 230.189122 215.989093 229.09969 
C 214.89966 228.010257 213.421865 227.398134 211.881174 227.398134 
C 210.340483 227.398134 208.862688 228.010257 207.773255 229.09969 
C 206.683822 230.189122 206.071699 231.666918 206.071699 233.207609 
C 206.071699 234.748299 206.683822 236.226095 207.773255 237.315528 
C 208.862688 238.404961 210.340483 239.017084 211.881174 239.017084 
z
" clip-path="url(#p743a2c1409)" style="fill: #d4d4d4; fill-opacity: 0.8; stroke: #ffffff; stroke-opacity: 0.8"/>
    <path d="M 254.670534 239.017084 
C 256.211225 239.017084 257.689021 238.404961 258.778453 237.315528 
C 259.867886 236.226095 260.480009 234.748299 260.480009 233.207609 
C 260.480009 231.666918 259.867886 230.189122 258.778453 229.09969 
C 257.689021 228.010257 256.211225 227.398134 254.670534 227.398134 
C 253.129843 227.398134 251.652048 228.010257 250.562615 229.09969 
C 249.473182 230.189122 248.861059 231.666918 248.861059 233.207609 
C 248.861059 234.748299 249.473182 236.226095 250.562615 237.315528 
C 251.652048 238.404961 253.129843 239.017084 254.670534 239.017084 
z
" clip-path="url(#p743a2c1409)" style="fill: #d4d4d4; fill-opacity: 0.8; stroke: #ffffff; stroke-opacity: 0.8"/>
    <path d="M 357.465286 239.017084 
C 359.005977 239.017084 360.483772 238.404961 361.573205 237.315528 
C 362.662638 236.226095 363.274761 234.748299 363.274761 233.207609 
C 363.274761 231.666918 362.662638 230.189122 361.573205 229.09969 
C 360.483772 228.010257 359.005977 227.398134 357.465286 227.398134 
C 355.924595 227.398134 354.4468 228.010257 353.357367 229.09969 
C 352.267934 230.189122 351.655811 231.666918 351.655811 233.207609 
C 351.655811 234.748299 352.267934 236.226095 353.357367 237.315528 
C 354.4468 238.404961 355.924595 239.017084 357.465286 239.017084 
z
" clip-path="url(#p743a2c1409)" style="fill: #d4d4d4; fill-opacity: 0.8; stroke: #ffffff; stroke-opacity: 0.8"/>
    <path d="M 368.329772 172.544258 
C 369.870463 172.544258 371.348258 171.932135 372.437691 170.842702 
C 373.527124 169.753269 374.139247 168.275473 374.139247 166.734783 
C 374.139247 165.194092 373.527124 163.716296 372.437691 162.626863 
C 371.348258 161.537431 369.870463 160.925308 368.329772 160.925308 
C 366.789081 160.925308 365.311286 161.537431 364.221853 162.626863 
C 363.13242 163.716296 362.520297 165.194092 362.520297 166.734783 
C 362.520297 168.275473 363.13242 169.753269 364.221853 170.842702 
C 365.311286 171.932135 366.789081 172.544258 368.329772 172.544258 
z
" clip-path="url(#p743a2c1409)" style="fill: #d4d4d4; fill-opacity: 0.8; stroke: #ffffff; stroke-opacity: 0.8"/>
    <path d="M 411.787716 172.544258 
C 413.328407 172.544258 414.806202 171.932135 415.895635 170.842702 
C 416.985068 169.753269 417.597191 168.275473 417.597191 166.734783 
C 417.597191 165.194092 416.985068 163.716296 415.895635 162.626863 
C 414.806202 161.537431 413.328407 160.925308 411.787716 160.925308 
C 410.247025 160.925308 408.76923 161.537431 407.679797 162.626863 
C 406.590364 163.716296 405.978241 165.194092 405.978241 166.734783 
C 405.978241 168.275473 406.590364 169.753269 407.679797 170.842702 
C 408.76923 171.932135 410.247025 172.544258 411.787716 172.544258 
z
" clip-path="url(#p743a2c1409)" style="fill: #d4d4d4; fill-opacity: 0.8; stroke: #ffffff; stroke-opacity: 0.8"/>
    <path d="M 231.747663 239.017084 
C 233.288354 239.017084 234.766149 238.404961 235.855582 237.315528 
C 236.945015 236.226095 237.557138 234.748299 237.557138 233.207609 
C 237.557138 231.666918 236.945015 230.189122 235.855582 229.09969 
C 234.766149 228.010257 233.288354 227.398134 231.747663 227.398134 
C 230.206972 227.398134 228.729176 228.010257 227.639744 229.09969 
C 226.550311 230.189122 225.938188 231.666918 225.938188 233.207609 
C 225.938188 234.748299 226.550311 236.226095 227.639744 237.315528 
C 228.729176 238.404961 230.206972 239.017084 231.747663 239.017084 
z
" clip-path="url(#p743a2c1409)" style="fill: #d4d4d4; fill-opacity: 0.8; stroke: #ffffff; stroke-opacity: 0.8"/>
    <path d="M 272.722296 236.369886 
C 273.560941 236.369886 274.365351 236.036689 274.958364 235.443677 
C 275.551376 234.850665 275.884573 234.046255 275.884573 233.207609 
C 275.884573 232.368963 275.551376 231.564553 274.958364 230.971541 
C 274.365351 230.378529 273.560941 230.045331 272.722296 230.045331 
C 271.88365 230.045331 271.07924 230.378529 270.486228 230.971541 
C 269.893215 231.564553 269.560018 232.368963 269.560018 233.207609 
C 269.560018 234.046255 269.893215 234.850665 270.486228 235.443677 
C 271.07924 236.036689 271.88365 236.369886 272.722296 236.369886 
z
" clip-path="url(#p743a2c1409)" style="fill: #d4d4d4; fill-opacity: 0.8; stroke: #ffffff; stroke-opacity: 0.8"/>
    <path d="M 250.372496 302.842712 
C 251.211142 302.842712 252.015552 302.509515 252.608564 301.916503 
C 253.201576 301.323491 253.534773 300.519081 253.534773 299.680435 
C 253.534773 298.841789 253.201576 298.037379 252.608564 297.444367 
C 252.015552 296.851355 251.211142 296.518157 250.372496 296.518157 
C 249.53385 296.518157 248.72944 296.851355 248.136428 297.444367 
C 247.543416 298.037379 247.210218 298.841789 247.210218 299.680435 
C 247.210218 300.519081 247.543416 301.323491 248.136428 301.916503 
C 248.72944 302.509515 249.53385 302.842712 250.372496 302.842712 
z
" clip-path="url(#p743a2c1409)" style="fill: #d4d4d4; fill-opacity: 0.8; stroke: #ffffff; stroke-opacity: 0.8"/>
   </g>
   <g id="matplotlib.axis_1">
    <g id="xtick_1">
     <g id="line2d_1">
      <defs>
       <path id="m037a226c68" d="M 0 0 
L 0 3.5 
" style="stroke: #000000; stroke-width: 0.8"/>
      </defs>
      <g>
       <use xlink:href="#m037a226c68" x="64.124165" y="312.975" style="stroke: #000000; stroke-width: 0.8"/>
      </g>
     </g>
     <g id="text_1">
      <!-- 1 -->
      <g transform="translate(59.670415 330.612812)scale(0.14 -0.14)">
       <defs>
        <path id="DejaVuSans-31" d="M 794 531 
L 1825 531 
L 1825 4091 
L 703 3866 
L 703 4441 
L 1819 4666 
L 2450 4666 
L 2450 531 
L 3481 531 
L 3481 0 
L 794 0 
L 794 531 
z
" transform="scale(0.015625)"/>
       </defs>
       <use xlink:href="#DejaVuSans-31"/>
      </g>
     </g>
    </g>
    <g id="xtick_2">
     <g id="line2d_2">
      <g>
       <use xlink:href="#m037a226c68" x="194.497996" y="312.975" style="stroke: #000000; stroke-width: 0.8"/>
      </g>
     </g>
     <g id="text_2">
      <!-- 2 -->
      <g transform="translate(190.044246 330.612812)scale(0.14 -0.14)">
       <defs>
        <path id="DejaVuSans-32" d="M 1228 531 
L 3431 531 
L 3431 0 
L 469 0 
L 469 531 
Q 828 903 1448 1529 
Q 2069 2156 2228 2338 
Q 2531 2678 2651 2914 
Q 2772 3150 2772 3378 
Q 2772 3750 2511 3984 
Q 2250 4219 1831 4219 
Q 1534 4219 1204 4116 
Q 875 4013 500 3803 
L 500 4441 
Q 881 4594 1212 4672 
Q 1544 4750 1819 4750 
Q 2544 4750 2975 4387 
Q 3406 4025 3406 3419 
Q 3406 3131 3298 2873 
Q 3191 2616 2906 2266 
Q 2828 2175 2409 1742 
Q 1991 1309 1228 531 
z
" transform="scale(0.015625)"/>
       </defs>
       <use xlink:href="#DejaVuSans-32"/>
      </g>
     </g>
    </g>
    <g id="xtick_3">
     <g id="line2d_3">
      <g>
       <use xlink:href="#m037a226c68" x="324.871828" y="312.975" style="stroke: #000000; stroke-width: 0.8"/>
      </g>
     </g>
     <g id="text_3">
      <!-- 3 -->
      <g transform="translate(320.418078 330.612812)scale(0.14 -0.14)">
       <defs>
        <path id="DejaVuSans-33" d="M 2597 2516 
Q 3050 2419 3304 2112 
Q 3559 1806 3559 1356 
Q 3559 666 3084 287 
Q 2609 -91 1734 -91 
Q 1441 -91 1130 -33 
Q 819 25 488 141 
L 488 750 
Q 750 597 1062 519 
Q 1375 441 1716 441 
Q 2309 441 2620 675 
Q 2931 909 2931 1356 
Q 2931 1769 2642 2001 
Q 2353 2234 1838 2234 
L 1294 2234 
L 1294 2753 
L 1863 2753 
Q 2328 2753 2575 2939 
Q 2822 3125 2822 3475 
Q 2822 3834 2567 4026 
Q 2313 4219 1838 4219 
Q 1578 4219 1281 4162 
Q 984 4106 628 3988 
L 628 4550 
Q 988 4650 1302 4700 
Q 1616 4750 1894 4750 
Q 2613 4750 3031 4423 
Q 3450 4097 3450 3541 
Q 3450 3153 3228 2886 
Q 3006 2619 2597 2516 
z
" transform="scale(0.015625)"/>
       </defs>
       <use xlink:href="#DejaVuSans-33"/>
      </g>
     </g>
    </g>
    <g id="xtick_4">
     <g id="line2d_4">
      <g>
       <use xlink:href="#m037a226c68" x="455.24566" y="312.975" style="stroke: #000000; stroke-width: 0.8"/>
      </g>
     </g>
     <g id="text_4">
      <!-- 4 -->
      <g transform="translate(450.79191 330.612812)scale(0.14 -0.14)">
       <defs>
        <path id="DejaVuSans-34" d="M 2419 4116 
L 825 1625 
L 2419 1625 
L 2419 4116 
z
M 2253 4666 
L 3047 4666 
L 3047 1625 
L 3713 1625 
L 3713 1100 
L 3047 1100 
L 3047 0 
L 2419 0 
L 2419 1100 
L 313 1100 
L 313 1709 
L 2253 4666 
z
" transform="scale(0.015625)"/>
       </defs>
       <use xlink:href="#DejaVuSans-34"/>
      </g>
     </g>
    </g>
    <g id="xtick_5">
     <g id="line2d_5">
      <g>
       <use xlink:href="#m037a226c68" x="585.619492" y="312.975" style="stroke: #000000; stroke-width: 0.8"/>
      </g>
     </g>
     <g id="text_5">
      <!-- 5 -->
      <g transform="translate(581.165742 330.612812)scale(0.14 -0.14)">
       <defs>
        <path id="DejaVuSans-35" d="M 691 4666 
L 3169 4666 
L 3169 4134 
L 1269 4134 
L 1269 2991 
Q 1406 3038 1543 3061 
Q 1681 3084 1819 3084 
Q 2600 3084 3056 2656 
Q 3513 2228 3513 1497 
Q 3513 744 3044 326 
Q 2575 -91 1722 -91 
Q 1428 -91 1123 -41 
Q 819 9 494 109 
L 494 744 
Q 775 591 1075 516 
Q 1375 441 1709 441 
Q 2250 441 2565 725 
Q 2881 1009 2881 1497 
Q 2881 1984 2565 2268 
Q 2250 2553 1709 2553 
Q 1456 2553 1204 2497 
Q 953 2441 691 2322 
L 691 4666 
z
" transform="scale(0.015625)"/>
       </defs>
       <use xlink:href="#DejaVuSans-35"/>
      </g>
     </g>
    </g>
    <g id="text_6">
     <!-- Deep-Sea Capacity Presence Index -->
     <g transform="translate(197.431406 348.162187)scale(0.14 -0.14)">
      <defs>
       <path id="DejaVuSans-44" d="M 1259 4147 
L 1259 519 
L 2022 519 
Q 2988 519 3436 956 
Q 3884 1394 3884 2338 
Q 3884 3275 3436 3711 
Q 2988 4147 2022 4147 
L 1259 4147 
z
M 628 4666 
L 1925 4666 
Q 3281 4666 3915 4102 
Q 4550 3538 4550 2338 
Q 4550 1131 3912 565 
Q 3275 0 1925 0 
L 628 0 
L 628 4666 
z
" transform="scale(0.015625)"/>
       <path id="DejaVuSans-65" d="M 3597 1894 
L 3597 1613 
L 953 1613 
Q 991 1019 1311 708 
Q 1631 397 2203 397 
Q 2534 397 2845 478 
Q 3156 559 3463 722 
L 3463 178 
Q 3153 47 2828 -22 
Q 2503 -91 2169 -91 
Q 1331 -91 842 396 
Q 353 884 353 1716 
Q 353 2575 817 3079 
Q 1281 3584 2069 3584 
Q 2775 3584 3186 3129 
Q 3597 2675 3597 1894 
z
M 3022 2063 
Q 3016 2534 2758 2815 
Q 2500 3097 2075 3097 
Q 1594 3097 1305 2825 
Q 1016 2553 972 2059 
L 3022 2063 
z
" transform="scale(0.015625)"/>
       <path id="DejaVuSans-70" d="M 1159 525 
L 1159 -1331 
L 581 -1331 
L 581 3500 
L 1159 3500 
L 1159 2969 
Q 1341 3281 1617 3432 
Q 1894 3584 2278 3584 
Q 2916 3584 3314 3078 
Q 3713 2572 3713 1747 
Q 3713 922 3314 415 
Q 2916 -91 2278 -91 
Q 1894 -91 1617 61 
Q 1341 213 1159 525 
z
M 3116 1747 
Q 3116 2381 2855 2742 
Q 2594 3103 2138 3103 
Q 1681 3103 1420 2742 
Q 1159 2381 1159 1747 
Q 1159 1113 1420 752 
Q 1681 391 2138 391 
Q 2594 391 2855 752 
Q 3116 1113 3116 1747 
z
" transform="scale(0.015625)"/>
       <path id="DejaVuSans-2d" d="M 313 2009 
L 1997 2009 
L 1997 1497 
L 313 1497 
L 313 2009 
z
" transform="scale(0.015625)"/>
       <path id="DejaVuSans-53" d="M 3425 4513 
L 3425 3897 
Q 3066 4069 2747 4153 
Q 2428 4238 2131 4238 
Q 1616 4238 1336 4038 
Q 1056 3838 1056 3469 
Q 1056 3159 1242 3001 
Q 1428 2844 1947 2747 
L 2328 2669 
Q 3034 2534 3370 2195 
Q 3706 1856 3706 1288 
Q 3706 609 3251 259 
Q 2797 -91 1919 -91 
Q 1588 -91 1214 -16 
Q 841 59 441 206 
L 441 856 
Q 825 641 1194 531 
Q 1563 422 1919 422 
Q 2459 422 2753 634 
Q 3047 847 3047 1241 
Q 3047 1584 2836 1778 
Q 2625 1972 2144 2069 
L 1759 2144 
Q 1053 2284 737 2584 
Q 422 2884 422 3419 
Q 422 4038 858 4394 
Q 1294 4750 2059 4750 
Q 2388 4750 2728 4690 
Q 3069 4631 3425 4513 
z
" transform="scale(0.015625)"/>
       <path id="DejaVuSans-61" d="M 2194 1759 
Q 1497 1759 1228 1600 
Q 959 1441 959 1056 
Q 959 750 1161 570 
Q 1363 391 1709 391 
Q 2188 391 2477 730 
Q 2766 1069 2766 1631 
L 2766 1759 
L 2194 1759 
z
M 3341 1997 
L 3341 0 
L 2766 0 
L 2766 531 
Q 2569 213 2275 61 
Q 1981 -91 1556 -91 
Q 1019 -91 701 211 
Q 384 513 384 1019 
Q 384 1609 779 1909 
Q 1175 2209 1959 2209 
L 2766 2209 
L 2766 2266 
Q 2766 2663 2505 2880 
Q 2244 3097 1772 3097 
Q 1472 3097 1187 3025 
Q 903 2953 641 2809 
L 641 3341 
Q 956 3463 1253 3523 
Q 1550 3584 1831 3584 
Q 2591 3584 2966 3190 
Q 3341 2797 3341 1997 
z
" transform="scale(0.015625)"/>
       <path id="DejaVuSans-20" transform="scale(0.015625)"/>
       <path id="DejaVuSans-43" d="M 4122 4306 
L 4122 3641 
Q 3803 3938 3442 4084 
Q 3081 4231 2675 4231 
Q 1875 4231 1450 3742 
Q 1025 3253 1025 2328 
Q 1025 1406 1450 917 
Q 1875 428 2675 428 
Q 3081 428 3442 575 
Q 3803 722 4122 1019 
L 4122 359 
Q 3791 134 3420 21 
Q 3050 -91 2638 -91 
Q 1578 -91 968 557 
Q 359 1206 359 2328 
Q 359 3453 968 4101 
Q 1578 4750 2638 4750 
Q 3056 4750 3426 4639 
Q 3797 4528 4122 4306 
z
" transform="scale(0.015625)"/>
       <path id="DejaVuSans-63" d="M 3122 3366 
L 3122 2828 
Q 2878 2963 2633 3030 
Q 2388 3097 2138 3097 
Q 1578 3097 1268 2742 
Q 959 2388 959 1747 
Q 959 1106 1268 751 
Q 1578 397 2138 397 
Q 2388 397 2633 464 
Q 2878 531 3122 666 
L 3122 134 
Q 2881 22 2623 -34 
Q 2366 -91 2075 -91 
Q 1284 -91 818 406 
Q 353 903 353 1747 
Q 353 2603 823 3093 
Q 1294 3584 2113 3584 
Q 2378 3584 2631 3529 
Q 2884 3475 3122 3366 
z
" transform="scale(0.015625)"/>
       <path id="DejaVuSans-69" d="M 603 3500 
L 1178 3500 
L 1178 0 
L 603 0 
L 603 3500 
z
M 603 4863 
L 1178 4863 
L 1178 4134 
L 603 4134 
L 603 4863 
z
" transform="scale(0.015625)"/>
       <path id="DejaVuSans-74" d="M 1172 4494 
L 1172 3500 
L 2356 3500 
L 2356 3053 
L 1172 3053 
L 1172 1153 
Q 1172 725 1289 603 
Q 1406 481 1766 481 
L 2356 481 
L 2356 0 
L 1766 0 
Q 1100 0 847 248 
Q 594 497 594 1153 
L 594 3053 
L 172 3053 
L 172 3500 
L 594 3500 
L 594 4494 
L 1172 4494 
z
" transform="scale(0.015625)"/>
       <path id="DejaVuSans-79" d="M 2059 -325 
Q 1816 -950 1584 -1140 
Q 1353 -1331 966 -1331 
L 506 -1331 
L 506 -850 
L 844 -850 
Q 1081 -850 1212 -737 
Q 1344 -625 1503 -206 
L 1606 56 
L 191 3500 
L 800 3500 
L 1894 763 
L 2988 3500 
L 3597 3500 
L 2059 -325 
z
" transform="scale(0.015625)"/>
       <path id="DejaVuSans-50" d="M 1259 4147 
L 1259 2394 
L 2053 2394 
Q 2494 2394 2734 2622 
Q 2975 2850 2975 3272 
Q 2975 3691 2734 3919 
Q 2494 4147 2053 4147 
L 1259 4147 
z
M 628 4666 
L 2053 4666 
Q 2838 4666 3239 4311 
Q 3641 3956 3641 3272 
Q 3641 2581 3239 2228 
Q 2838 1875 2053 1875 
L 1259 1875 
L 1259 0 
L 628 0 
L 628 4666 
z
" transform="scale(0.015625)"/>
       <path id="DejaVuSans-72" d="M 2631 2963 
Q 2534 3019 2420 3045 
Q 2306 3072 2169 3072 
Q 1681 3072 1420 2755 
Q 1159 2438 1159 1844 
L 1159 0 
L 581 0 
L 581 3500 
L 1159 3500 
L 1159 2956 
Q 1341 3275 1631 3429 
Q 1922 3584 2338 3584 
Q 2397 3584 2469 3576 
Q 2541 3569 2628 3553 
L 2631 2963 
z
" transform="scale(0.015625)"/>
       <path id="DejaVuSans-73" d="M 2834 3397 
L 2834 2853 
Q 2591 2978 2328 3040 
Q 2066 3103 1784 3103 
Q 1356 3103 1142 2972 
Q 928 2841 928 2578 
Q 928 2378 1081 2264 
Q 1234 2150 1697 2047 
L 1894 2003 
Q 2506 1872 2764 1633 
Q 3022 1394 3022 966 
Q 3022 478 2636 193 
Q 2250 -91 1575 -91 
Q 1294 -91 989 -36 
Q 684 19 347 128 
L 347 722 
Q 666 556 975 473 
Q 1284 391 1588 391 
Q 1994 391 2212 530 
Q 2431 669 2431 922 
Q 2431 1156 2273 1281 
Q 2116 1406 1581 1522 
L 1381 1569 
Q 847 1681 609 1914 
Q 372 2147 372 2553 
Q 372 3047 722 3315 
Q 1072 3584 1716 3584 
Q 2034 3584 2315 3537 
Q 2597 3491 2834 3397 
z
" transform="scale(0.015625)"/>
       <path id="DejaVuSans-6e" d="M 3513 2113 
L 3513 0 
L 2938 0 
L 2938 2094 
Q 2938 2591 2744 2837 
Q 2550 3084 2163 3084 
Q 1697 3084 1428 2787 
Q 1159 2491 1159 1978 
L 1159 0 
L 581 0 
L 581 3500 
L 1159 3500 
L 1159 2956 
Q 1366 3272 1645 3428 
Q 1925 3584 2291 3584 
Q 2894 3584 3203 3211 
Q 3513 2838 3513 2113 
z
" transform="scale(0.015625)"/>
       <path id="DejaVuSans-49" d="M 628 4666 
L 1259 4666 
L 1259 0 
L 628 0 
L 628 4666 
z
" transform="scale(0.015625)"/>
       <path id="DejaVuSans-64" d="M 2906 2969 
L 2906 4863 
L 3481 4863 
L 3481 0 
L 2906 0 
L 2906 525 
Q 2725 213 2448 61 
Q 2172 -91 1784 -91 
Q 1150 -91 751 415 
Q 353 922 353 1747 
Q 353 2572 751 3078 
Q 1150 3584 1784 3584 
Q 2172 3584 2448 3432 
Q 2725 3281 2906 2969 
z
M 947 1747 
Q 947 1113 1208 752 
Q 1469 391 1925 391 
Q 2381 391 2643 752 
Q 2906 1113 2906 1747 
Q 2906 2381 2643 2742 
Q 2381 3103 1925 3103 
Q 1469 3103 1208 2742 
Q 947 2381 947 1747 
z
" transform="scale(0.015625)"/>
       <path id="DejaVuSans-78" d="M 3513 3500 
L 2247 1797 
L 3578 0 
L 2900 0 
L 1881 1375 
L 863 0 
L 184 0 
L 1544 1831 
L 300 3500 
L 978 3500 
L 1906 2253 
L 2834 3500 
L 3513 3500 
z
" transform="scale(0.015625)"/>
      </defs>
      <use xlink:href="#DejaVuSans-44"/>
      <use xlink:href="#DejaVuSans-65" x="77.001953"/>
      <use xlink:href="#DejaVuSans-65" x="138.525391"/>
      <use xlink:href="#DejaVuSans-70" x="200.048828"/>
      <use xlink:href="#DejaVuSans-2d" x="263.525391"/>
      <use xlink:href="#DejaVuSans-53" x="299.609375"/>
      <use xlink:href="#DejaVuSans-65" x="363.085938"/>
      <use xlink:href="#DejaVuSans-61" x="424.609375"/>
      <use xlink:href="#DejaVuSans-20" x="485.888672"/>
      <use xlink:href="#DejaVuSans-43" x="517.675781"/>
      <use xlink:href="#DejaVuSans-61" x="587.5"/>
      <use xlink:href="#DejaVuSans-70" x="648.779297"/>
      <use xlink:href="#DejaVuSans-61" x="712.255859"/>
      <use xlink:href="#DejaVuSans-63" x="773.535156"/>
      <use xlink:href="#DejaVuSans-69" x="828.515625"/>
      <use xlink:href="#DejaVuSans-74" x="856.298828"/>
      <use xlink:href="#DejaVuSans-79" x="895.507812"/>
      <use xlink:href="#DejaVuSans-20" x="954.6875"/>
      <use xlink:href="#DejaVuSans-50" x="986.474609"/>
      <use xlink:href="#DejaVuSans-72" x="1045.027344"/>
      <use xlink:href="#DejaVuSans-65" x="1083.890625"/>
      <use xlink:href="#DejaVuSans-73" x="1145.414062"/>
      <use xlink:href="#DejaVuSans-65" x="1197.513672"/>
      <use xlink:href="#DejaVuSans-6e" x="1259.037109"/>
      <use xlink:href="#DejaVuSans-63" x="1322.416016"/>
      <use xlink:href="#DejaVuSans-65" x="1377.396484"/>
      <use xlink:href="#DejaVuSans-20" x="1438.919922"/>
      <use xlink:href="#DejaVuSans-49" x="1470.707031"/>
      <use xlink:href="#DejaVuSans-6e" x="1500.199219"/>
      <use xlink:href="#DejaVuSans-64" x="1563.578125"/>
      <use xlink:href="#DejaVuSans-65" x="1627.054688"/>
      <use xlink:href="#DejaVuSans-78" x="1686.828125"/>
     </g>
    </g>
   </g>
   <g id="matplotlib.axis_2">
    <g id="ytick_1">
     <g id="line2d_6">
      <defs>
       <path id="m4d95ae8204" d="M 0 0 
L -3.5 0 
" style="stroke: #000000; stroke-width: 0.8"/>
      </defs>
      <g>
       <use xlink:href="#m4d95ae8204" x="40.656875" y="299.680435" style="stroke: #000000; stroke-width: 0.8"/>
      </g>
     </g>
     <g id="text_7">
      <!-- 1 -->
      <g transform="translate(24.749375 304.999341)scale(0.14 -0.14)">
       <use xlink:href="#DejaVuSans-31"/>
      </g>
     </g>
    </g>
    <g id="ytick_2">
     <g id="line2d_7">
      <g>
       <use xlink:href="#m4d95ae8204" x="40.656875" y="233.207609" style="stroke: #000000; stroke-width: 0.8"/>
      </g>
     </g>
     <g id="text_8">
      <!-- 2 -->
      <g transform="translate(24.749375 238.526515)scale(0.14 -0.14)">
       <use xlink:href="#DejaVuSans-32"/>
      </g>
     </g>
    </g>
    <g id="ytick_3">
     <g id="line2d_8">
      <g>
       <use xlink:href="#m4d95ae8204" x="40.656875" y="166.734783" style="stroke: #000000; stroke-width: 0.8"/>
      </g>
     </g>
     <g id="text_9">
      <!-- 3 -->
      <g transform="translate(24.749375 172.053689)scale(0.14 -0.14)">
       <use xlink:href="#DejaVuSans-33"/>
      </g>
     </g>
    </g>
    <g id="ytick_4">
     <g id="line2d_9">
      <g>
       <use xlink:href="#m4d95ae8204" x="40.656875" y="100.261957" style="stroke: #000000; stroke-width: 0.8"/>
      </g>
     </g>
     <g id="text_10">
      <!-- 4 -->
      <g transform="translate(24.749375 105.580863)scale(0.14 -0.14)">
       <use xlink:href="#DejaVuSans-34"/>
      </g>
     </g>
    </g>
    <g id="ytick_5">
     <g id="line2d_10">
      <g>
       <use xlink:href="#m4d95ae8204" x="40.656875" y="33.78913" style="stroke: #000000; stroke-width: 0.8"/>
      </g>
     </g>
     <g id="text_11">
      <!-- 5 -->
      <g transform="translate(24.749375 39.108037)scale(0.14 -0.14)">
       <use xlink:href="#DejaVuSans-35"/>
      </g>
     </g>
    </g>
    <g id="text_12">
     <!-- Deep-Sea Capacity Accessibility Index -->
     <g transform="translate(17.837813 293.715312)rotate(-90)scale(0.14 -0.14)">
      <defs>
       <path id="DejaVuSans-41" d="M 2188 4044 
L 1331 1722 
L 3047 1722 
L 2188 4044 
z
M 1831 4666 
L 2547 4666 
L 4325 0 
L 3669 0 
L 3244 1197 
L 1141 1197 
L 716 0 
L 50 0 
L 1831 4666 
z
" transform="scale(0.015625)"/>
       <path id="DejaVuSans-62" d="M 3116 1747 
Q 3116 2381 2855 2742 
Q 2594 3103 2138 3103 
Q 1681 3103 1420 2742 
Q 1159 2381 1159 1747 
Q 1159 1113 1420 752 
Q 1681 391 2138 391 
Q 2594 391 2855 752 
Q 3116 1113 3116 1747 
z
M 1159 2969 
Q 1341 3281 1617 3432 
Q 1894 3584 2278 3584 
Q 2916 3584 3314 3078 
Q 3713 2572 3713 1747 
Q 3713 922 3314 415 
Q 2916 -91 2278 -91 
Q 1894 -91 1617 61 
Q 1341 213 1159 525 
L 1159 0 
L 581 0 
L 581 4863 
L 1159 4863 
L 1159 2969 
z
" transform="scale(0.015625)"/>
       <path id="DejaVuSans-6c" d="M 603 4863 
L 1178 4863 
L 1178 0 
L 603 0 
L 603 4863 
z
" transform="scale(0.015625)"/>
      </defs>
      <use xlink:href="#DejaVuSans-44"/>
      <use xlink:href="#DejaVuSans-65" x="77.001953"/>
      <use xlink:href="#DejaVuSans-65" x="138.525391"/>
      <use xlink:href="#DejaVuSans-70" x="200.048828"/>
      <use xlink:href="#DejaVuSans-2d" x="263.525391"/>
      <use xlink:href="#DejaVuSans-53" x="299.609375"/>
      <use xlink:href="#DejaVuSans-65" x="363.085938"/>
      <use xlink:href="#DejaVuSans-61" x="424.609375"/>
      <use xlink:href="#DejaVuSans-20" x="485.888672"/>
      <use xlink:href="#DejaVuSans-43" x="517.675781"/>
      <use xlink:href="#DejaVuSans-61" x="587.5"/>
      <use xlink:href="#DejaVuSans-70" x="648.779297"/>
      <use xlink:href="#DejaVuSans-61" x="712.255859"/>
      <use xlink:href="#DejaVuSans-63" x="773.535156"/>
      <use xlink:href="#DejaVuSans-69" x="828.515625"/>
      <use xlink:href="#DejaVuSans-74" x="856.298828"/>
      <use xlink:href="#DejaVuSans-79" x="895.507812"/>
      <use xlink:href="#DejaVuSans-20" x="954.6875"/>
      <use xlink:href="#DejaVuSans-41" x="986.474609"/>
      <use xlink:href="#DejaVuSans-63" x="1053.132812"/>
      <use xlink:href="#DejaVuSans-63" x="1108.113281"/>
      <use xlink:href="#DejaVuSans-65" x="1163.09375"/>
      <use xlink:href="#DejaVuSans-73" x="1224.617188"/>
      <use xlink:href="#DejaVuSans-73" x="1276.716797"/>
      <use xlink:href="#DejaVuSans-69" x="1328.816406"/>
      <use xlink:href="#DejaVuSans-62" x="1356.599609"/>
      <use xlink:href="#DejaVuSans-69" x="1420.076172"/>
      <use xlink:href="#DejaVuSans-6c" x="1447.859375"/>
      <use xlink:href="#DejaVuSans-69" x="1475.642578"/>
      <use xlink:href="#DejaVuSans-74" x="1503.425781"/>
      <use xlink:href="#DejaVuSans-79" x="1542.634766"/>
      <use xlink:href="#DejaVuSans-20" x="1601.814453"/>
      <use xlink:href="#DejaVuSans-49" x="1633.601562"/>
      <use xlink:href="#DejaVuSans-6e" x="1663.09375"/>
      <use xlink:href="#DejaVuSans-64" x="1726.472656"/>
      <use xlink:href="#DejaVuSans-65" x="1789.949219"/>
      <use xlink:href="#DejaVuSans-78" x="1849.722656"/>
     </g>
    </g>
   </g>
   <g id="patch_3">
    <path d="M 40.656875 312.975 
L 40.656875 7.2 
" style="fill: none; stroke: #000000; stroke-width: 0.8; stroke-linejoin: miter; stroke-linecap: square"/>
   </g>
   <g id="patch_4">
    <path d="M 40.656875 312.975 
L 598.656875 312.975 
" style="fill: none; stroke: #000000; stroke-width: 0.8; stroke-linejoin: miter; stroke-linecap: square"/>
   </g>
  </g>
 </g>
 <defs>
  <clipPath id="p743a2c1409">
   <rect x="40.656875" y="7.2" width="558" height="305.775"/>
  </clipPath>
 </defs>
</svg>
